<svg width="76" height="76" viewBox="0 0 76 76" fill="none" xmlns="http://www.w3.org/2000/svg">
  <g clip-path="url(#clip0)">
    <path
      d="M23.1376 48.5213C20.4606 48.5213 17.7844 47.2616 15.1263 44.7431C10.517 40.377 6.03491 40.3751 1.42555 44.7431C1.08735 45.0652 0.553452 45.0509 0.231404 44.7108C-0.0887434 44.3736 -0.0744935 43.8387 0.263704 43.5186C5.58082 38.4817 10.972 38.4817 16.2882 43.5186C20.8976 47.8848 25.3787 47.8848 29.989 43.5186C35.3061 38.4808 40.6973 38.4808 46.0116 43.5186C50.6228 47.8857 55.103 47.8829 59.7133 43.5186C65.0285 38.4817 70.4207 38.4798 75.7359 43.5186C76.0751 43.8397 76.0893 44.3736 75.7682 44.7118C75.4471 45.0519 74.9132 45.0652 74.575 44.7441C69.9657 40.377 65.4845 40.377 60.8742 44.7441C55.559 49.78 50.1668 49.7819 44.8507 44.7441C40.2413 40.377 35.7593 40.377 31.1508 44.7441C28.4918 47.2625 25.8157 48.5213 23.1376 48.5213Z"
      fill="#2E79CA"/>
    <path
      d="M54.1653 5.4294C51.7381 5.4294 49.764 8.04283 49.764 11.2557V18.4377H26.094V10.8254C26.094 8.58338 27.3366 6.68814 28.8062 6.68814C30.2768 6.68814 31.5185 8.58243 31.5185 10.8254C31.5185 11.2918 31.8966 11.6699 32.363 11.6699C32.8294 11.6699 33.2075 11.2918 33.2075 10.8254C33.2075 7.61248 31.2325 5 28.8062 5C26.379 5 24.4049 7.61343 24.4049 10.8254V43.1869C24.4049 43.6533 24.783 44.0314 25.2495 44.0314C25.7159 44.0314 26.094 43.6533 26.094 43.1869V37.0157H49.765V43.1869C49.765 43.6533 50.1431 44.0314 50.6095 44.0314C51.076 44.0314 51.4541 43.6533 51.4541 43.1869V11.2557C51.4541 9.01277 52.6957 7.11849 54.1663 7.11849C55.6369 7.11849 56.8785 9.01277 56.8785 11.2557C56.8785 11.7222 57.2566 12.1002 57.7231 12.1002C58.1895 12.1002 58.5676 11.7222 58.5676 11.2557C58.5667 8.04283 56.5926 5.4294 54.1653 5.4294ZM49.765 20.1267V26.8821H26.094V20.1267H49.765ZM26.094 35.3266V28.5712H49.765V35.3266H26.094Z"
      fill="#2E79CA"/>
    <path
      d="M21.553 28.5709H0.845093C0.378647 28.5709 0.000549316 28.1928 0.000549316 27.7264C0.000549316 27.2599 0.378647 26.8818 0.845093 26.8818H21.553C22.0195 26.8818 22.3976 27.2599 22.3976 27.7264C22.3976 28.1928 22.0195 28.5709 21.553 28.5709Z"
      fill="#2E79CA"/>
    <path
      d="M75.1554 28.5709H54.1653C53.6989 28.5709 53.3208 28.1928 53.3208 27.7264C53.3208 27.2599 53.6989 26.8818 54.1653 26.8818H75.1554C75.6219 26.8818 76 27.2599 76 27.7264C76 28.1928 75.6219 28.5709 75.1554 28.5709Z"
      fill="#2E79CA"/>
    <path
      d="M23.1376 59.4993C20.4606 59.4993 17.7844 58.2396 15.1264 55.7211C10.517 51.355 6.03492 51.3531 1.42555 55.7211C1.08735 56.0432 0.553454 56.0299 0.231407 55.6888C-0.0896911 55.3506 -0.0744913 54.8167 0.263706 54.4956C5.58082 49.4588 10.972 49.4588 16.2882 54.4956C20.8976 58.8609 25.3787 58.8628 29.989 54.4956C35.3061 49.4578 40.6973 49.4578 46.0116 54.4956C50.6228 58.8628 55.103 58.8599 59.7133 54.4956C65.0285 49.4588 70.4207 49.4569 75.7359 54.4956C76.0751 54.8167 76.0893 55.3506 75.7682 55.6888C75.4471 56.0289 74.9132 56.0422 74.575 55.7211C69.9657 51.354 65.4845 51.354 60.8742 55.7211C55.559 60.7571 50.1669 60.759 44.8507 55.7211C40.2413 51.354 35.7593 51.354 31.1508 55.7211C28.4918 58.2396 25.8157 59.4993 23.1376 59.4993Z"
      fill="#2E79CA"/>
    <path
      d="M23.1376 70.4766C20.4606 70.4766 17.7844 69.2169 15.1264 66.6984C10.517 62.3313 6.03492 62.3313 1.42555 66.6984C1.08735 67.0205 0.553454 67.0062 0.231407 66.6661C-0.0896911 66.3279 -0.0744913 65.794 0.263706 65.4729C5.58082 60.4351 10.972 60.437 16.2882 65.4729C20.8976 69.8391 25.3787 69.8391 29.989 65.4729C35.3061 60.4342 40.6973 60.4361 46.0116 65.4729C50.6228 69.8401 55.103 69.8372 59.7133 65.4729C65.0285 60.4361 70.4207 60.4342 75.7359 65.4729C76.0751 65.794 76.0893 66.3279 75.7682 66.6661C75.4471 67.0053 74.9132 67.0195 74.575 66.6984C69.9657 62.3313 65.4845 62.3313 60.8742 66.6984C55.559 71.7343 50.1669 71.7362 44.8507 66.6984C40.2413 62.3313 35.7593 62.3313 31.1508 66.6984C28.4918 69.2178 25.8157 70.4766 23.1376 70.4766Z"
      fill="#2E79CA"/>
  </g>
  <defs>
    <clipPath id="clip0">
      <rect width="76" height="76" fill="white"/>
    </clipPath>
  </defs>
</svg>
