<svg width="64" height="64" viewBox="0 0 64 64" fill="none" xmlns="http://www.w3.org/2000/svg">
  <path
    d="M51.5496 39.1613L47.604 36.8652L33.3564 45.1495C32.5184 45.6383 31.4889 45.6383 30.6509 45.1495L16.4069 36.8652L12.4577 39.1613C12.1746 39.3262 12 39.6328 12 39.9649C12 40.297 12.1746 40.6036 12.4577 40.7685L31.5491 51.8785C31.8285 52.041 32.1715 52.041 32.4509 51.8785L51.5423 40.7685C51.8254 40.6036 52 40.297 52 39.9649C52 39.6328 51.8254 39.3262 51.5423 39.1613H51.5496Z"
    fill="#2E79CA"/>
  <path
    d="M51.5496 31.5929L47.604 29.2969L33.3564 37.5812C32.5184 38.07 31.4889 38.07 30.6509 37.5812L16.4069 29.2969L12.4577 31.5929C12.1746 31.7578 12 32.0645 12 32.3965C12 32.7286 12.1746 33.0353 12.4577 33.2002L31.5491 44.3101C31.8285 44.4726 32.1715 44.4726 32.4509 44.3101L51.5423 33.2002C51.8254 33.0353 52 32.7286 52 32.3965C52 32.0645 51.8254 31.7578 51.5423 31.5929H51.5496Z"
    fill="#D8D7E6"/>
  <path
    d="M51.5423 23.0979L32.4509 12.1205C32.1715 11.9598 31.8285 11.9598 31.5491 12.1205L12.4577 23.0979C12.1746 23.2608 12 23.5638 12 23.8919C12 24.22 12.1746 24.523 12.4577 24.6859L31.5491 35.6633C31.8285 35.8239 32.1715 35.8239 32.4509 35.6633L51.5423 24.6859C51.8254 24.523 52 24.22 52 23.8919C52 23.5638 51.8254 23.2608 51.5423 23.0979Z"
    fill="#2E79CA"/>
</svg>
