<svg width="64" height="64" viewBox="0 0 64 64" fill="none" xmlns="http://www.w3.org/2000/svg">
  <path
    d="M13.7544 20.3874H28.6667V18.667H12.8772C12.3921 18.667 12 19.0515 12 19.5272V44.4734C12 44.9491 12.3921 45.3337 12.8772 45.3337H15.5088V43.6132H13.7544V20.3874Z"
    fill="#D8D7E6"/>
  <path fill-rule="evenodd" clip-rule="evenodd"
        d="M18.4104 36.4443H27.8121C28.2847 36.4443 28.6668 36.8306 28.6668 37.3085V51.1357C28.6668 51.6136 28.2847 51.9999 27.8121 51.9999H18.4104C17.9377 51.9999 17.5557 51.6136 17.5557 51.1357V37.3085C17.5557 36.8306 17.9377 36.4443 18.4104 36.4443ZM21.8291 48.1109C21.8291 48.8264 22.4035 49.4072 23.1112 49.4072C23.8188 49.4072 24.3932 48.8264 24.3932 48.1109C24.3932 47.3953 23.8188 46.8146 23.1112 46.8146C22.4035 46.8146 21.8291 47.3953 21.8291 48.1109Z"
        fill="#2E79CA"/>
  <path fill-rule="evenodd" clip-rule="evenodd"
        d="M31.5322 12H44.6901C45.6577 12 46.4445 12.7702 46.4445 13.7172V29.1717C46.4445 30.1187 45.6577 30.8889 44.6901 30.8889H31.5322C30.5647 30.8889 29.7778 30.1187 29.7778 29.1717V13.7172C29.7778 12.7702 30.5647 12 31.5322 12ZM36.7954 27.0249C36.7954 27.7358 37.3849 28.3127 38.1112 28.3127C38.8375 28.3127 39.427 27.7358 39.427 27.0249C39.427 26.3139 38.8375 25.737 38.1112 25.737C37.3849 25.737 36.7954 26.3139 36.7954 27.0249Z"
        fill="#2E79CA"/>
  <path
    d="M51.1112 18.667H48.4445V20.3954H50.2223V43.7287H29.7778V49.7781H38.6667C39.1574 49.7781 39.5556 49.3909 39.5556 48.9139C39.5556 48.4369 39.1574 48.0497 38.6667 48.0497H35.1112V45.4571H51.1112C51.6027 45.4571 52.0001 45.0708 52.0001 44.5929V19.5312C52.0001 19.0533 51.6027 18.667 51.1112 18.667Z"
    fill="#D8D7E6"/>
</svg>
