<svg width="64" height="64" viewBox="0 0 64 64" fill="none" xmlns="http://www.w3.org/2000/svg">
  <path
    d="M27.5017 34.9995H12.9689C12.434 34.9995 12 34.6032 12 34.1149V12.8846C12 12.3963 12.434 12 12.9689 12H27.5017C28.0365 12 28.4706 12.3963 28.4706 12.8846V34.1149C28.4706 34.6032 28.0365 34.9995 27.5017 34.9995Z"
    fill="#2E79CA"/>
  <path
    d="M27.5017 51.9997H12.9689C12.434 51.9997 12 51.5837 12 51.0712V39.9286C12 39.416 12.434 39 12.9689 39H27.5017C28.0365 39 28.4706 39.416 28.4706 39.9286V51.0712C28.4706 51.5837 28.0365 51.9997 27.5017 51.9997Z"
    fill="#D8D7E6"/>
  <path
    d="M51.031 24.9997H36.4982C35.9633 24.9997 35.5293 24.5837 35.5293 24.0712V12.9286C35.5293 12.416 35.9633 12 36.4982 12H51.031C51.5658 12 51.9999 12.416 51.9999 12.9286V24.0712C51.9999 24.5837 51.5658 24.9997 51.031 24.9997Z"
    fill="#D8D7E6"/>
  <path
    d="M51.031 52.0005H36.4982C35.9633 52.0005 35.5293 51.6042 35.5293 51.1159V29.8856C35.5293 29.3973 35.9633 29.001 36.4982 29.001H51.031C51.5658 29.001 51.9999 29.3973 51.9999 29.8856V51.1159C51.9999 51.6042 51.5658 52.0005 51.031 52.0005Z"
    fill="#2E79CA"/>
</svg>
