<svg xmlns="http://www.w3.org/2000/svg" viewBox="0 0 170.98 96.79">
  <defs>
    <style>.cls-1 {
      fill: #399ad5;
    }</style>
  </defs>
  <g id="Layer_2" data-name="Layer 2">
    <g id="Слой_1" data-name="Слой 1">
      <path class="cls-1"
            d="M47.48,30.78a14.17,14.17,0,0,1-1.3,6.33,11.33,11.33,0,0,1-3.53,4.23,15,15,0,0,1-5.23,2.37,25.9,25.9,0,0,1-6.44.76V53H19.5V17.09H31a26.39,26.39,0,0,1,6.44.75,15,15,0,0,1,5.23,2.37,11.33,11.33,0,0,1,3.53,4.23A14.25,14.25,0,0,1,47.48,30.78Zm-16.5,4h.49a4.34,4.34,0,0,0,3.26-1.06,4.1,4.1,0,0,0,1-2.93,4.12,4.12,0,0,0-1-2.94,4.34,4.34,0,0,0-3.26-1.05H31Z"/>
      <path class="cls-1"
            d="M35.45,78a7.05,7.05,0,0,0-.52-2.51,9.21,9.21,0,0,0-1.37-2.24,12.28,12.28,0,0,0-1.76-1.77c-.63-.51-1.22-1-1.77-1.4s-1-.81-1.36-1.15a1.48,1.48,0,0,1-.54-1,1.1,1.1,0,0,1,.6-1.07,2.4,2.4,0,0,1,1.17-.24,16.44,16.44,0,0,1,2,.12,12.43,12.43,0,0,1,1.74.31,11.15,11.15,0,0,1,1.77.42V59.72c-.62-.17-1.29-.33-2-.46S32,59,31.15,58.94a25.4,25.4,0,0,0-2.71-.14l-.36,0a12.14,12.14,0,0,0-3.83.62,8,8,0,0,0-2.9,1.73,6.77,6.77,0,0,0-1.67,2.57,8.85,8.85,0,0,0-.52,2.79A6.84,6.84,0,0,0,19.68,69,9.43,9.43,0,0,0,21,71.29a12.79,12.79,0,0,0,1.77,1.76l1.77,1.41a15.19,15.19,0,0,1,1.36,1.15,1.44,1.44,0,0,1,.54,1,1.13,1.13,0,0,1-.61,1.08,2.48,2.48,0,0,1-1.16.23,16.32,16.32,0,0,1-2-.12,12.51,12.51,0,0,1-1.74-.3,10.9,10.9,0,0,1-1.77-.43v7.69a18.62,18.62,0,0,0,2,.46c.64.13,1.38.23,2.21.32a25.26,25.26,0,0,0,2.71.14H27a11.25,11.25,0,0,0,3.32-.48A8.19,8.19,0,0,0,33,83.81a6.4,6.4,0,0,0,1.8-2.31,7.3,7.3,0,0,0,.66-3.19C35.47,78.19,35.45,78.08,35.45,78Z"/>
      <polygon class="cls-1"
               points="37.19 59.42 52.29 59.42 52.29 66.14 45.37 66.14 45.37 68.98 52.17 68.98 52.17 75.36 45.37 75.36 45.37 78.32 52.56 78.32 52.56 85.04 37.19 85.04 37.19 59.42"/>
      <path class="cls-1"
            d="M54.86,59.42h8.83a15.35,15.35,0,0,1,4.55.65A10.67,10.67,0,0,1,71.87,62a8.86,8.86,0,0,1,2.41,3.13,10.16,10.16,0,0,1,.86,4.28,8.78,8.78,0,0,1-.54,3.27,10,10,0,0,1-1.19,2.23,8.64,8.64,0,0,1-1.73,1.69L76.48,85h-9.6L63,78.54V85H54.86ZM63,72h.42a4.45,4.45,0,0,0,2.48-.66,2.85,2.85,0,0,0,0-4.37,4.45,4.45,0,0,0-2.48-.66H63Z"/>
      <polygon class="cls-1"
               points="83.13 59.42 87.47 70.56 91.85 59.42 100.8 59.42 90.81 85.04 84.16 85.04 74.18 59.42 83.13 59.42"/>
      <rect class="cls-1" x="101.37" y="59.42" width="8.68" height="25.62"/>
      <path class="cls-1"
            d="M112.16,72.25a13.74,13.74,0,0,1,1.08-5.55,12.89,12.89,0,0,1,2.92-4.25,12.69,12.69,0,0,1,4.3-2.7,14.43,14.43,0,0,1,5.22-1,15.89,15.89,0,0,1,3.9.43,18.13,18.13,0,0,1,2.94,1A13.44,13.44,0,0,1,135,61.53l-4,7.11a12.62,12.62,0,0,0-1.35-.89,13.79,13.79,0,0,0-1.55-.59,6.88,6.88,0,0,0-2.06-.29,5.55,5.55,0,0,0-3.94,1.57,5.27,5.27,0,0,0-1.59,3.81,5.09,5.09,0,0,0,.44,2.09,5.48,5.48,0,0,0,3,2.86,5.94,5.94,0,0,0,2.26.42,7.34,7.34,0,0,0,2.19-.3,7.91,7.91,0,0,0,1.61-.7,5.74,5.74,0,0,0,1.35-1l4,7.1a11.66,11.66,0,0,1-2.46,1.5,21,21,0,0,1-3,1,16.56,16.56,0,0,1-9.49-.52A13,13,0,0,1,116.08,82a12.36,12.36,0,0,1-2.88-4.24A14.07,14.07,0,0,1,112.16,72.25Z"/>
      <polygon class="cls-1"
               points="136.32 59.42 151.41 59.42 151.41 66.14 144.5 66.14 144.5 68.98 151.3 68.98 151.3 75.36 144.5 75.36 144.5 78.32 151.68 78.32 151.68 85.04 136.32 85.04 136.32 59.42"/>
      <path class="cls-1"
            d="M49.36,35.09a18.33,18.33,0,0,1,1.48-7.33,19,19,0,0,1,4-6,18.76,18.76,0,0,1,6-4,18.77,18.77,0,0,1,14.66,0,18.87,18.87,0,0,1,6,4,19.09,19.09,0,0,1,4,6,18.89,18.89,0,0,1,0,14.66,19.2,19.2,0,0,1-4,6,18.87,18.87,0,0,1-6,4,18.89,18.89,0,0,1-14.66,0,18.76,18.76,0,0,1-6-4,19.06,19.06,0,0,1-4-6A18.33,18.33,0,0,1,49.36,35.09Zm11.32,0A7.46,7.46,0,0,0,61.27,38a7.77,7.77,0,0,0,1.62,2.39A7.37,7.37,0,0,0,65.29,42a7.6,7.6,0,0,0,5.87,0,7.37,7.37,0,0,0,2.4-1.62A7.77,7.77,0,0,0,75.18,38a7.62,7.62,0,0,0,0-5.88,7.94,7.94,0,0,0-1.62-2.4,7.5,7.5,0,0,0-2.4-1.61,7.48,7.48,0,0,0-5.87,0,7.5,7.5,0,0,0-2.4,1.61,7.94,7.94,0,0,0-1.62,2.4A7.46,7.46,0,0,0,60.68,35.09Z"/>
      <polygon class="cls-1"
               points="129.94 17.09 141.91 17.09 141.91 43.6 151.82 43.6 151.82 53.04 129.94 53.04 129.94 17.09"/>
      <path class="cls-1"
            d="M89.25,35.09a18.33,18.33,0,0,1,1.48-7.33,18.82,18.82,0,0,1,10-10,18.77,18.77,0,0,1,14.66,0,18.76,18.76,0,0,1,6,4,19,19,0,0,1,4,6,18.89,18.89,0,0,1,0,14.66,19.06,19.06,0,0,1-4,6,18.76,18.76,0,0,1-6,4,18.89,18.89,0,0,1-14.66,0,18.82,18.82,0,0,1-10-10A18.33,18.33,0,0,1,89.25,35.09Zm11.32,0a7.29,7.29,0,0,0,.59,2.94,7.63,7.63,0,0,0,4,4,7.2,7.2,0,0,0,2.93.59,7.29,7.29,0,0,0,2.94-.59,7.37,7.37,0,0,0,2.4-1.62A7.77,7.77,0,0,0,115.07,38a7.62,7.62,0,0,0,0-5.88,7.94,7.94,0,0,0-1.62-2.4,7.5,7.5,0,0,0-2.4-1.61,7.29,7.29,0,0,0-2.94-.6,7.21,7.21,0,0,0-2.93.6,7.5,7.5,0,0,0-2.4,1.61,7.59,7.59,0,0,0-1.62,2.4A7.29,7.29,0,0,0,100.57,35.09Z"/>
      <path class="cls-1" d="M49.15,40.6c-.09-.29-.16-.59-.23-.88H45.71a10.27,10.27,0,0,1-.75.88Z"/>
      <path class="cls-1"
            d="M68.85,41.6a6.21,6.21,0,0,0,.88-.14V40.6h2a7.36,7.36,0,0,0,1.12-.88H69.73v-11a6.21,6.21,0,0,0-.88-.15V39.72H63.6a6.49,6.49,0,0,0,1.12.88h4.13Z"/>
      <path class="cls-1"
            d="M33.53,58.28l.8.16V52.71H50.78v5.71h.88V52.71H59.1c-.52-.27-1-.56-1.52-.88H51.66V46c-.31-.47-.61-1-.88-1.45v7.26H34.33V45.27l-.88.1v6.46H32v.88h1.47v5.56Z"/>
      <path class="cls-1" d="M69.73,54.88c-.29,0-.58,0-.88,0v4.31c.3.1.6.21.88.33Z"/>
      <path class="cls-1"
            d="M85.85,63.64V52.71H99a16.25,16.25,0,0,1-1.52-.88H85.85V44.22c-.28.52-.57,1-.88,1.52v6.09h-6.1c-.49.32-1,.61-1.52.88H85v8.68Z"/>
      <polygon class="cls-1" points="132.35 75.41 132.85 76.28 135.32 76.28 135.32 75.41 132.35 75.41"/>
      <path class="cls-1" d="M34.33,68.15c-.29-.07-.57-.13-.87-.18h0v3.62c.3.31.6.63.88,1Z"/>
      <path class="cls-1"
            d="M129.5,75.75a5.55,5.55,0,0,0,.54-.34h-7.13a4.78,4.78,0,0,0,1.39.86l0,0h4A7.4,7.4,0,0,0,129.5,75.75Z"/>
      <rect class="cls-1" x="137.42" y="54.04" width="0.88" height="4.38"/>
      <path class="cls-1" d="M79.34,75.41H74.27l-.07.1c-.21.27-.44.53-.67.78h6.15Z"/>
      <polygon class="cls-1" points="95.64 75.41 95.29 76.28 100.37 76.28 100.37 75.41 95.64 75.41"/>
      <path class="cls-1" d="M111.05,64v.88h2c.17-.3.35-.6.54-.88Z"/>
      <path class="cls-1"
            d="M120.87,51.83V50.31c-.28.23-.58.45-.88.67v.85h-1.23c-.49.32-1,.61-1.52.88H120v6.15l.11,0,.77-.25V52.71h8.07v-.88Z"/>
      <path class="cls-1" d="M103.48,39.72h0a7.36,7.36,0,0,0,1.12.88h7a6.49,6.49,0,0,0,1.12-.88h-9.26Z"/>
      <path class="cls-1"
            d="M34.33,32.58V29a2.41,2.41,0,0,0-.33-.44,1.73,1.73,0,0,0-.55-.38V33.4A1.71,1.71,0,0,0,34,33,2.48,2.48,0,0,0,34.33,32.58Z"/>
      <path class="cls-1"
            d="M171,28v-.87H155.25V13.73H166.7v-.88H155.25V0h-.88V12.85H138.3V0h-.88V12.85H120.87V9.48H120v3.37H103.26V0h-.88V12.85H85.85V0H85V12.85H69.73V6.06h-.88v6.79H51.66V9.48h-.88v3.37H34.33V4.35h-.88v8.5H16.61V6.06h-.87v6.79H3.6v.88H15.74V27.08h-7V28h7V39.72H3.6v.88H15.74V51.83h-7v.88h7V64H0v.88H15.74V75.41H6.29v.88h9.45V88.18H10.91v.88h4.83V93.5h.87V89.06H33.45v2.2h.88v-2.2H50.78V93.5h.88V89.06H68.85v7.73h.88V89.06H85v2.2h.88v-2.2h16.53v7.73h.88V89.06H120v2.2h.88v-2.2h16.55v2.2h.88v-2.2h16.07V93.5h.88V89.06h8v-.88h-8V76.29h13.93v-.88H155.25V64.83H171V64H155.25V52.71H166.7v-.88H155.25V40.6h8v-.88h-8V28Zm-16.61-.87H142.91V28h11.46V39.72H142.91v.88h11.46V51.83h-1.55v.88h1.55V64h-2v.88h2V75.41H152.3v.88h2.07V88.18H138.3V86h-.88v2.14H120.87V85.9c-.26-.09-.52-.16-.77-.26l-.11,0v2.59H103.26V86h-.88v2.14H85.85V86H85v2.14H69.73V86h-.88v2.14H51.66V86h-.88v2.14H34.33V84a8.57,8.57,0,0,1-.7.64l-.18.13v3.46H16.61V76.29H25.2a13.44,13.44,0,0,0-1-.88H16.61V64.83h1.74a8.7,8.7,0,0,1,.22-.88h-2V52.71H18.5v-.88H16.61V40.6H18.5v-.88H16.61V28H18.5v-.87H16.61V13.73H33.45V16.2l.88.07V13.73H50.78V25.6c.27-.5.57-1,.88-1.45V13.73H68.85v1.52l.88.05V13.73H85V24.44c.31.49.6,1,.88,1.52V13.73h16.53v2.34c.29-.09.59-.16.88-.23V13.73H120V19.2c.3.22.6.43.88.67V13.73h16.55v2.36h.88V13.73h16.07Z"/>
      <polygon class="cls-1" points="85.97 63.95 86.31 64.83 88.65 64.83 88.99 63.95 85.97 63.95"/>
      <path class="cls-1" d="M103.26,54.34c-.29-.08-.59-.14-.88-.23v4.31h.88Z"/>
      <path class="cls-1" d="M102.38,38.19a6.61,6.61,0,0,0,.88,1.26V30.73a6.61,6.61,0,0,0-.88,1.26Z"/>
      <path class="cls-1" d="M126.28,27.08c0,.09.09.18.14.28s.14.4.21.59h2.31v-.87Z"/>
      <path class="cls-1"
            d="M48.25,28h1.46c.07-.19.13-.39.22-.59a2.44,2.44,0,0,1,.14-.28h-2C48.17,27.36,48.21,27.66,48.25,28Z"/>
      <path class="cls-1"
            d="M86.75,28h2.84c.08-.19.14-.39.22-.59s.1-.19.14-.28H86.39c0,.09.1.18.14.28S86.67,27.76,86.75,28Z"/>
    </g>
  </g>
</svg>
