<svg width="59" height="58" viewBox="0 0 59 58" fill="none" xmlns="http://www.w3.org/2000/svg">
  <g clip-path="url(#clip0)">
    <path
      d="M0.865462 28.6356C0.865463 12.8461 13.7104 0.00109669 29.5 0.00109738C30.8172 0.00109744 31.8862 1.07012 31.8862 2.38731C31.8862 3.7045 30.8172 4.77352 29.5 4.77352C16.3424 4.77352 5.63789 15.4781 5.63788 28.6356C5.63788 41.7932 16.3424 52.4977 29.5 52.4977C42.6576 52.4977 53.3621 41.7932 53.3621 28.6356C53.3621 27.3184 54.4311 26.2494 55.7483 26.2494C57.0655 26.2494 58.1345 27.3184 58.1345 28.6356C58.1345 44.4252 45.2895 57.2702 29.5 57.2702C13.7104 57.2702 0.865461 44.4252 0.865462 28.6356ZM27.1138 2.38731C27.1138 1.76689 27.3763 1.14648 27.8058 0.693098C28.2592 0.26358 28.8796 0.00109735 29.5 0.00109738C30.1204 0.00109741 30.7408 0.263581 31.1942 0.693099C32.0771 1.59986 32.0771 3.17476 31.1942 4.08152C30.7408 4.51104 30.1204 4.77352 29.5 4.77352C28.8796 4.77352 28.2592 4.51104 27.8058 4.08152C27.3763 3.62814 27.1138 3.00772 27.1138 2.38731ZM37.3506 3.4611C37.8517 2.24414 39.2357 1.67145 40.4527 2.17255C41.6697 2.67365 42.2662 4.08152 41.7651 5.29849C41.264 6.51545 39.8561 7.08814 38.6392 6.58704C37.7086 6.20525 37.1597 5.32235 37.1597 4.36786C37.1597 4.08152 37.2313 3.77131 37.3506 3.4611ZM46.3705 8.40056C47.3011 7.46994 48.8044 7.46994 49.7351 8.40056C50.6657 9.33118 50.6657 10.8345 49.7351 11.7651C48.8044 12.6957 47.3011 12.6957 46.3705 11.7651C45.9171 11.2879 45.6785 10.6913 45.6785 10.0709C45.6785 9.47435 45.9171 8.85394 46.3705 8.40056ZM52.8371 16.3705C54.0541 15.8694 55.462 16.4421 55.9631 17.6591C56.4642 18.876 55.8915 20.2839 54.6745 20.785C53.4575 21.2861 52.0497 20.7134 51.5486 19.4964C51.4293 19.1862 51.3577 18.8999 51.3577 18.5897C51.3577 17.6591 51.9304 16.7523 52.8371 16.3705ZM53.3621 28.6356C53.3621 28.0152 53.6246 27.3948 54.0541 26.9414C54.5075 26.5119 55.1279 26.2494 55.7483 26.2494C56.3687 26.2494 56.9891 26.5119 57.4425 26.9414C58.3254 27.8482 58.3254 29.4469 57.4425 30.3298C56.9891 30.7594 56.3687 31.0218 55.7483 31.0218C55.1279 31.0218 54.5075 30.7594 54.0541 30.3298C53.6246 29.8765 53.3621 29.256 53.3621 28.6356Z"
      fill="#BFC8D1"/>
    <path d="M29.8535 13.4349V28.6359L41.1659 24.3938" stroke="#BFC8D1" stroke-width="2.8281" stroke-linecap="round" stroke-linejoin="round"/>
  </g>
  <defs>
    <clipPath id="clip0">
      <rect width="57.2691" height="57.2691" fill="white" transform="translate(58.1345 0.00109863) rotate(90)"/>
    </clipPath>
  </defs>
</svg>
