<svg width="58" height="58" viewBox="0 0 58 58" fill="none" xmlns="http://www.w3.org/2000/svg">
  <g clip-path="url(#clip0)">
    <path
      d="M28.7631 57.2702C12.9735 57.2702 0.12854 44.4252 0.12854 28.6356C0.12854 27.3184 1.19756 26.2494 2.51475 26.2494C3.83194 26.2494 4.90096 27.3184 4.90096 28.6356C4.90096 41.7932 15.6055 52.4977 28.7631 52.4977C41.9206 52.4977 52.6252 41.7932 52.6252 28.6356C52.6252 15.4781 41.9206 4.77352 28.7631 4.77352C27.4459 4.77352 26.3769 3.7045 26.3769 2.38731C26.3769 1.07012 27.4459 0.00109863 28.7631 0.00109863C44.5526 0.00109863 57.3976 12.8461 57.3976 28.6356C57.3976 44.4252 44.5526 57.2702 28.7631 57.2702ZM2.51475 31.0218C1.89434 31.0218 1.27392 30.7594 0.820541 30.3298C0.391023 29.8765 0.12854 29.256 0.12854 28.6356C0.12854 28.0152 0.391023 27.3948 0.820541 26.9414C1.7273 26.0585 3.3022 26.0585 4.20896 26.9414C4.63848 27.3948 4.90096 28.0152 4.90096 28.6356C4.90096 29.256 4.63848 29.8765 4.20896 30.3298C3.75558 30.7594 3.13517 31.0218 2.51475 31.0218ZM3.58855 20.785C2.37158 20.2839 1.79889 18.8999 2.29999 17.6829C2.8011 16.466 4.20896 15.8694 5.42593 16.3705C6.6429 16.8716 7.21559 18.2795 6.71448 19.4964C6.33269 20.4271 5.44979 20.9759 4.49531 20.9759C4.20896 20.9759 3.89875 20.9043 3.58855 20.785ZM8.528 11.7651C7.59738 10.8345 7.59738 9.33118 8.528 8.40056C9.45862 7.46994 10.9619 7.46994 11.8926 8.40056C12.8232 9.33118 12.8232 10.8345 11.8926 11.7651C11.4153 12.2185 10.8188 12.4571 10.1983 12.4571C9.6018 12.4571 8.98138 12.2185 8.528 11.7651ZM16.4979 5.29849C15.9968 4.08152 16.5695 2.67365 17.7865 2.17255C19.0035 1.67145 20.4113 2.24414 20.9124 3.4611C21.4135 4.67807 20.8408 6.08594 19.6239 6.58704C19.3137 6.70635 19.0273 6.77794 18.7171 6.77794C17.7865 6.77794 16.8797 6.20525 16.4979 5.29849ZM28.7631 4.77352C28.1427 4.77352 27.5222 4.51104 27.0689 4.08152C26.6393 3.62814 26.3769 3.00772 26.3769 2.38731C26.3769 1.76689 26.6393 1.14648 27.0689 0.6931C27.9756 -0.189798 29.5744 -0.189798 30.4573 0.6931C30.8868 1.14648 31.1493 1.76689 31.1493 2.38731C31.1493 3.00772 30.8868 3.62814 30.4573 4.08152C30.0039 4.51104 29.3835 4.77352 28.7631 4.77352Z"
      fill="#BFC8D1"/>
    <path d="M28.7631 13.4349V28.6359L19.2183 22.6262" stroke="#BFC8D1" stroke-width="2.8281" stroke-linecap="round" stroke-linejoin="round"/>
  </g>
  <defs>
    <clipPath id="clip0">
      <rect width="57.2691" height="57.2691" fill="white" transform="translate(0.12854 0.00109863)"/>
    </clipPath>
  </defs>
</svg>
