<svg width="64" height="76" viewBox="0 0 64 76" fill="none" xmlns="http://www.w3.org/2000/svg">
  <path
    d="M58.9 42.75H37.05V40.85C37.05 39.2784 35.7716 38 34.2 38H24.7C23.1284 38 21.85 39.2784 21.85 40.85V45.6H17.1V42.702C18.4451 42.4742 19.475 41.3089 19.475 39.9V38.95C19.475 37.5411 18.4451 36.3758 17.1 36.148V33.25H25.65C26.1751 33.25 26.6 32.8251 26.6 32.3V3.8C26.6 1.70425 24.8958 0 22.8 0H3.8C1.70425 0 0 1.70425 0 3.8V32.3C0 32.8251 0.424902 33.25 0.95 33.25H9.5V36.148C8.1549 36.3758 7.125 37.5411 7.125 38.95V39.9C7.125 41.3089 8.1549 42.4742 9.5 42.702V45.6C7.40425 45.6 5.7 47.3042 5.7 49.4V62.7C5.7 64.7958 7.40425 66.5 9.5 66.5H21.85V71.25C21.85 72.8216 23.1284 74.1 24.7 74.1H34.2C35.7716 74.1 37.05 72.8216 37.05 71.25V69.35H38.95V72.675C38.95 74.5082 40.4418 76 42.275 76C44.1082 76 45.6 74.5082 45.6 72.675V69.35H53.2V72.675C53.2 74.5082 54.6918 76 56.525 76C58.3582 76 59.85 74.5082 59.85 72.675V69.254C62.0153 68.8126 63.65 66.8937 63.65 64.6V47.5C63.65 44.881 61.519 42.75 58.9 42.75ZM1.9 3.8C1.9 2.75259 2.75259 1.9 3.8 1.9H22.8C23.8474 1.9 24.7 2.75259 24.7 3.8V27.55H1.9V3.8ZM1.9 31.35V29.45H24.7V31.35H16.15H10.45H1.9ZM15.2 33.25V36.1H11.4V33.25H15.2ZM9.025 39.9V38.95C9.025 38.4258 9.45083 38 9.975 38H10.45H16.15H16.625C17.1492 38 17.575 38.4258 17.575 38.95V39.9C17.575 40.4242 17.1492 40.85 16.625 40.85H16.15H10.45H9.975C9.45083 40.85 9.025 40.4242 9.025 39.9ZM15.2 42.75V45.6H11.4V42.75H15.2ZM21.85 64.6H9.5C8.45259 64.6 7.6 63.7474 7.6 62.7V49.4C7.6 48.3526 8.45259 47.5 9.5 47.5H10.45H16.15H21.85V64.6ZM35.15 43.7V68.4V71.25C35.15 71.7742 34.7242 72.2 34.2 72.2H24.7C24.1758 72.2 23.75 71.7742 23.75 71.25V65.55V46.55V40.85C23.75 40.3258 24.1758 39.9 24.7 39.9H34.2C34.7242 39.9 35.15 40.3258 35.15 40.85V43.7ZM43.7 72.675C43.7 73.4608 43.0608 74.1 42.275 74.1C41.4892 74.1 40.85 73.4608 40.85 72.675V69.35H43.7V72.675ZM57.95 72.675C57.95 73.4608 57.3108 74.1 56.525 74.1C55.7392 74.1 55.1 73.4608 55.1 72.675V69.35H57.95V72.675ZM58.9 67.45H54.15H44.65H39.9H37.05V64.6H61.75C61.75 66.1716 60.4716 67.45 58.9 67.45ZM61.75 62.7H37.05V60.8H61.75V62.7ZM61.75 58.9H37.05V57H61.75V58.9ZM61.75 55.1H37.05V53.2H61.75V55.1ZM61.75 51.3H37.05V49.4H61.75V51.3ZM37.05 47.5V44.65H58.9C60.4716 44.65 61.75 45.9284 61.75 47.5H37.05Z"
    fill="#2E79CA"/>
  <path
    d="M12.488 9.00762C11.9871 9.83145 7.59981 17.142 7.59981 19.9502C7.59981 23.0934 10.1566 25.6502 13.2998 25.6502C16.443 25.6502 18.9998 23.0934 18.9998 19.9502C18.9998 17.142 14.6126 9.83145 14.1116 9.00762C13.7683 8.43984 12.8313 8.43984 12.488 9.00762ZM13.2998 23.7502C11.2041 23.7502 9.49981 22.046 9.49981 19.9502C9.49981 18.4779 11.5826 14.3653 13.2998 11.3715C15.018 14.3653 17.0998 18.477 17.0998 19.9502C17.0998 22.046 15.3956 23.7502 13.2998 23.7502Z"
    fill="#2E79CA"/>
</svg>
