<svg width="54" height="76" viewBox="0 0 54 76" fill="none" xmlns="http://www.w3.org/2000/svg">
  <path
    d="M1.73476 50.9484C2.20176 51.4032 2.74111 51.7772 3.33077 52.0552C3.53428 56.0116 4.38596 59.9077 5.85184 63.5882C6.47176 65.0585 6.79463 66.6369 6.80184 68.2325V72.4363C6.80184 73.3811 7.17717 74.2873 7.84527 74.9554C8.51337 75.6235 9.41951 75.9988 10.3644 75.9988H24.6144C25.5592 75.9988 26.4654 75.6235 27.1335 74.9554C27.8016 74.2873 28.1769 73.3811 28.1769 72.4363C28.1794 70.4022 28.8728 68.4292 30.1434 66.8408L37.899 57.1721C38.032 57.0356 38.1472 56.8847 38.2719 56.7411C38.3966 56.5974 38.5094 56.4846 38.6151 56.3468C38.7207 56.2091 38.8371 56.0262 38.9464 55.8647C39.0556 55.7032 39.153 55.5773 39.2444 55.4265C39.3359 55.2757 39.4285 55.0809 39.5187 54.9064C39.5983 54.7532 39.6874 54.6035 39.7563 54.4456C39.8394 54.2615 39.9023 54.0704 39.9748 53.8815C40.0329 53.7248 40.1018 53.5728 40.1529 53.4065C40.217 53.2059 40.2609 52.9992 40.3108 52.795C40.3488 52.6418 40.3975 52.491 40.4296 52.3366C40.4711 52.1217 40.4913 51.9032 40.5186 51.687C40.5376 51.5362 40.5673 51.3878 40.5792 51.237C40.5982 50.9888 40.5934 50.7394 40.5934 50.49C40.5934 50.3713 40.6041 50.2454 40.5994 50.1231C40.5822 49.7478 40.5426 49.3738 40.4806 49.0033L40.388 48.4273L39.1494 40.7406C39.0169 39.9231 38.7774 39.1266 38.4369 38.3716C38.4369 38.3573 38.4262 38.3407 38.4203 38.3264C38.3989 38.2789 38.3681 38.2362 38.3467 38.1887C37.2843 35.9457 35.3863 34.2076 33.0587 33.346L29.4297 32.0077L33.5468 27.9702L37.7031 23.8056C37.8409 23.6682 38.0108 23.5674 38.1974 23.5122C38.384 23.4571 38.5815 23.4494 38.7718 23.4898C41.6833 24.108 44.7208 23.6097 47.2822 22.0935C49.8435 20.5774 51.7417 18.1542 52.6003 15.3043C53.0636 13.7664 53.2102 12.1505 53.0314 10.5543C52.9828 10.112 52.8092 9.69271 52.531 9.34549C52.2528 8.99827 51.8814 8.7375 51.4603 8.59373C51.0347 8.44297 50.575 8.41663 50.135 8.5178C49.695 8.61896 49.293 8.84343 48.976 9.16492L45.6665 12.5398C45.4404 12.756 45.1397 12.8766 44.8269 12.8766C44.5141 12.8766 44.2134 12.756 43.9873 12.5398L40.6374 9.18154C40.5264 9.07058 40.4386 8.93873 40.3789 8.79361C40.3192 8.6485 40.2889 8.49299 40.2897 8.33609C40.2904 8.17918 40.3223 8.02398 40.3834 7.87946C40.4445 7.73494 40.5337 7.60396 40.6457 7.4941L43.9553 4.11921C44.2746 3.80262 44.4972 3.40161 44.5968 2.96312C44.6965 2.52462 44.6692 2.06681 44.5181 1.64327C44.3741 1.22249 44.1132 0.851417 43.766 0.57342C43.4188 0.295424 42.9997 0.121989 42.5576 0.0733891C39.7161 -0.243933 36.8556 0.474574 34.5013 2.09694C32.147 3.71931 30.4572 6.13661 29.742 8.90485C29.2794 10.6797 29.2387 12.5383 29.6233 14.3317C29.6651 14.5217 29.6585 14.7191 29.6041 14.9058C29.5497 15.0926 29.4494 15.2627 29.3122 15.4005L22.4579 22.2049C21.915 21.4735 21.1722 20.9147 20.3191 20.5956C19.466 20.2766 18.5388 20.2109 17.6492 20.4065C16.7596 20.6021 15.9455 21.0507 15.3049 21.6982C14.6643 22.3457 14.2245 23.1646 14.0385 24.0562C13.1943 23.8158 12.3 23.814 11.4549 24.051C10.6097 24.288 9.84679 24.7545 9.25071 25.3988C8.65462 26.0431 8.24872 26.84 8.07805 27.7009C7.90738 28.5619 7.97861 29.4534 8.28384 30.2764C8.18766 30.2859 8.09266 30.2989 7.99766 30.3132C7.25607 30.432 6.55324 30.725 5.94684 31.1682C5.34045 31.6113 4.84777 32.1919 4.50925 32.8623C4.17073 33.5328 3.99601 34.2739 3.99944 35.025C4.00287 35.776 4.18434 36.5156 4.52896 37.1829C3.87614 37.3836 3.27439 37.7229 2.76487 38.1777C2.25536 38.6325 1.8501 39.192 1.57682 39.8179C1.14472 40.8194 1.07501 41.9401 1.3797 42.9874C0.43026 44.1165 -0.0600988 45.5612 0.00589082 47.035C0.0718805 48.5088 0.689398 49.9039 1.73595 50.9437L1.73476 50.9484ZM2.72039 45.2068C2.78451 45.2662 2.85814 45.3113 2.92464 45.3671C3.04339 45.4669 3.16214 45.5702 3.29514 45.6581C3.52843 45.8171 3.77565 45.9546 4.03377 46.069L8.73866 48.1174C8.95036 48.2089 9.16821 48.2855 9.3906 48.3466L8.42753 49.2966C8.27718 49.4414 8.11425 49.5725 7.94065 49.6885C7.88603 49.7253 7.8314 49.7597 7.77559 49.793C7.64909 49.8691 7.5178 49.9369 7.38253 49.996C7.31009 50.0269 7.23884 50.0613 7.16522 50.0875C7.01784 50.1409 6.8671 50.1846 6.71396 50.2181C6.60115 50.2418 6.48715 50.2585 6.37196 50.2727C6.3114 50.2798 6.25321 50.2846 6.19028 50.2882C5.73185 50.3199 5.27158 50.2638 4.83415 50.1231H4.8104C4.33097 49.9652 3.89073 49.7069 3.51905 49.3654C3.14738 49.0239 2.85281 48.6071 2.65501 48.1427C2.45721 47.6783 2.36073 47.1771 2.372 46.6725C2.38328 46.1678 2.50205 45.6714 2.72039 45.2163V45.2068ZM34.631 37.0487C35.7863 38.1269 36.5507 39.5584 36.8041 41.1183L38.1436 49.3845C38.1888 49.6635 38.217 49.9451 38.2279 50.2276C38.2965 51.9163 37.7647 53.5748 36.7269 54.9087C36.5541 55.1317 36.3677 55.3439 36.1688 55.5441C36.1391 55.5737 36.1118 55.6046 36.0845 55.6379L28.2957 65.354C26.6855 67.3638 25.8062 69.8611 25.8019 72.4363C25.8019 72.7512 25.6768 73.0533 25.4541 73.276C25.2314 73.4987 24.9293 73.6238 24.6144 73.6238H10.3644C10.0494 73.6238 9.74736 73.4987 9.52466 73.276C9.30196 73.0533 9.17685 72.7512 9.17685 72.4363V68.2325C9.16914 66.3244 8.78328 64.4367 8.04159 62.6786C6.76055 59.4813 5.98338 56.1047 5.73784 52.6691C5.75327 52.6691 5.76871 52.6691 5.78296 52.6691C5.83402 52.6691 5.8839 52.6834 5.93496 52.6834C6.18115 52.6752 6.42661 52.6522 6.67003 52.6145C6.77096 52.6026 6.87309 52.6026 6.97284 52.586C7.25498 52.5313 7.53279 52.4563 7.80409 52.3615C7.90266 52.3295 8.00597 52.3117 8.10334 52.2749C8.40226 52.1528 8.69095 52.0071 8.96666 51.839C9.02722 51.8022 9.09372 51.7797 9.1531 51.7417C9.49477 51.5249 9.81313 51.2734 10.1031 50.9912L16.7614 44.4599C17.5224 44.2507 18.2173 43.8505 18.7802 43.2973C18.8016 43.276 18.8229 43.257 18.8431 43.2356C19.0216 43.0579 19.1863 42.867 19.3359 42.6644C19.7207 42.1324 19.9893 41.5256 20.1244 40.8831C20.4928 40.8916 20.8608 40.8557 21.2205 40.7763C22.0837 41.6135 23.1208 42.2501 24.2581 42.6406L27.0856 43.7165C27.3944 43.834 27.6651 44.0337 27.8684 44.2941C28.0717 44.5546 28.1997 44.8657 28.2387 45.1938C28.2823 45.605 28.1864 46.0189 27.9663 46.3689C27.7461 46.719 27.4146 46.9847 27.025 47.1235C20.6683 49.5127 17.0654 53.5823 16.3161 59.217C16.2918 59.3733 16.2989 59.5329 16.337 59.6864C16.3751 59.8399 16.4436 59.9842 16.5383 60.1109C16.633 60.2376 16.752 60.3441 16.8884 60.4241C17.0248 60.5042 17.1759 60.5562 17.3327 60.577C17.4894 60.5979 17.6488 60.5873 17.8014 60.5457C17.954 60.5042 18.0968 60.4326 18.2214 60.3351C18.3459 60.2376 18.4497 60.1162 18.5267 59.978C18.6037 59.8399 18.6524 59.6877 18.6698 59.5305C19.3039 54.7639 22.3106 51.4329 27.861 49.3465C28.665 49.0564 29.361 48.5271 29.8553 47.8297C30.3496 47.1324 30.6186 46.3005 30.6261 45.4457C30.6336 44.591 30.3792 43.7545 29.8972 43.0486C29.4152 42.3427 28.7287 41.8012 27.9299 41.4971L25.0668 40.4081C24.0347 40.0504 23.1224 39.4127 22.4318 38.5663C22.2838 38.3856 22.147 38.1961 22.0221 37.9987C21.952 37.8906 21.8819 37.7837 21.819 37.6709C21.6972 37.4468 21.5897 37.2152 21.4972 36.9774C21.4354 36.8231 21.3713 36.6699 21.3226 36.5119C21.2739 36.354 21.2407 36.2174 21.2039 36.0678C21.1647 35.8909 21.1398 35.7116 21.1172 35.5334C21.0994 35.3791 21.0744 35.2259 21.0661 35.0703C21.0661 35.0252 21.0661 34.9777 21.0661 34.9314C21.0622 34.7118 21.0701 34.4922 21.0899 34.2735C21.097 34.1975 21.1029 34.1215 21.1136 34.036C21.1208 33.9766 21.1279 33.9172 21.1374 33.8555C21.1892 33.5217 21.2686 33.1928 21.3749 32.8722C21.4757 32.5788 21.6873 32.3365 21.9645 32.1971C22.2417 32.0578 22.5624 32.0324 22.8581 32.1265L32.2394 35.5833C33.1259 35.9082 33.9389 36.4064 34.631 37.0487V37.0487ZM30.9949 17.0796C31.4127 16.6617 31.7186 16.1455 31.8847 15.5783C32.0507 15.0112 32.0714 14.4114 31.9449 13.8342C31.4542 11.517 31.8476 9.10007 33.0477 7.05804C34.2478 5.016 36.1679 3.49637 38.431 2.79752C39.67 2.413 40.9762 2.29403 42.2643 2.4484L38.9582 5.82328C38.2904 6.49135 37.9152 7.39733 37.9152 8.34198C37.9152 9.28663 38.2904 10.1926 38.9582 10.8607L42.3165 14.2201C42.9958 14.8708 43.9004 15.2333 44.841 15.2317C45.7816 15.2302 46.6851 14.8647 47.3622 14.2118L50.6789 10.8179C50.8205 12.0952 50.7018 13.3879 50.3298 14.6179C49.642 16.8948 48.1244 18.8304 46.0774 20.0417C44.0305 21.253 41.6034 21.6516 39.2765 21.1587C38.6978 21.0339 38.0971 21.0563 37.5293 21.2237C36.9615 21.3911 36.4447 21.6983 36.0263 22.117L27.595 30.4711C27.5867 30.4474 27.5701 30.426 27.5618 30.4022C27.4524 30.094 27.3107 29.7983 27.139 29.5199V29.5128L23.7903 24.2248L30.9949 17.0796ZM17.4074 23.0361C17.9396 22.6994 18.5836 22.5879 19.198 22.7259C19.8124 22.864 20.3468 23.2404 20.6838 23.7724L21.268 24.6939L24.8305 30.3155L23.6585 29.8833C23.2162 29.7299 22.7479 29.6658 22.2807 29.6947C21.8135 29.7236 21.3566 29.8451 20.9367 30.0519C20.8198 30.1154 20.7064 30.1851 20.5971 30.2609L16.3838 25.5715C16.2703 25.0949 16.3078 24.5948 16.4912 24.1405C16.6746 23.6863 16.9948 23.3003 17.4074 23.0361V23.0361ZM11.0602 26.943C11.2844 26.7217 11.5501 26.5468 11.8421 26.4286C12.1342 26.3104 12.4467 26.2511 12.7617 26.2542C13.0767 26.2573 13.388 26.3227 13.6777 26.4466C13.9673 26.5705 14.2296 26.7505 14.4494 26.9763L19.1091 32.1645C19.0486 32.3485 18.9904 32.5385 18.9429 32.7404C18.4682 34.5748 18.641 36.5168 19.4321 38.2386L12.959 32.2013L11.059 30.3013C10.8384 30.0807 10.6634 29.8189 10.544 29.5307C10.4245 29.2425 10.3631 28.9335 10.3631 28.6216C10.3631 28.3096 10.4245 28.0007 10.544 27.7125C10.6634 27.4243 10.8384 27.1624 11.059 26.9418L11.0602 26.943ZM6.8244 33.6049C7.00723 33.3522 7.23805 33.1379 7.50368 32.9744C7.76932 32.8109 8.06456 32.7013 8.37256 32.6519C8.68055 32.6025 8.99525 32.6143 9.2987 32.6865C9.60215 32.7587 9.8884 32.89 10.1411 33.0729L11.3773 33.9659L17.8456 39.9961C17.8456 40.0127 17.8456 40.0293 17.8456 40.0459C17.8171 40.4848 17.6661 40.9069 17.4098 41.2643C17.4021 41.2721 17.3949 41.2804 17.3884 41.2893C17.3092 41.3959 17.221 41.4957 17.1248 41.5873C17.1165 41.5956 17.1058 41.6016 17.0975 41.6099C16.7749 41.9016 16.379 42.1 15.9522 42.1837C15.5254 42.2674 15.0838 42.2332 14.675 42.0849L8.26247 37.5724L7.36828 36.9252C7.11412 36.7432 6.89838 36.5129 6.73343 36.2474C6.56848 35.9819 6.45756 35.6864 6.40703 35.378C6.3565 35.0695 6.36736 34.7541 6.43898 34.4498C6.5106 34.1456 6.64158 33.8585 6.8244 33.6049V33.6049ZM3.75233 40.7656C4.00496 40.1889 4.47621 39.7362 5.0625 39.5068C5.6488 39.2775 6.30217 39.2903 6.87903 39.5424L6.98353 39.5876L12.984 43.8056C12.9883 44.1172 12.9302 44.4265 12.813 44.7152C12.6886 45.0012 12.509 45.2599 12.2846 45.4765C12.0602 45.6932 11.7953 45.8634 11.505 45.9777C11.2148 46.0919 10.9049 46.1479 10.5931 46.1424C10.2812 46.1368 9.97348 46.0699 9.68747 45.9455L4.98258 43.897C4.96833 43.8911 4.95527 43.8804 4.94102 43.8745C4.80399 43.8126 4.67317 43.7379 4.55033 43.6512C4.53608 43.6405 4.52421 43.6275 4.51114 43.6168C4.20688 43.384 3.9626 43.0819 3.79864 42.7356C3.79864 42.7285 3.78558 42.7238 3.78202 42.7166C3.76183 42.6727 3.73452 42.6335 3.71671 42.5884C3.60158 42.2974 3.54544 41.9863 3.55155 41.6734C3.55767 41.3605 3.62592 41.0519 3.75233 40.7656Z"
    fill="#2E79CA"/>
  <path
    d="M14.5837 13.9828C14.5132 14.1235 14.5015 14.2866 14.5511 14.436C14.6008 14.5854 14.7078 14.709 14.8486 14.7796L17.2236 15.9671C17.2933 16.0027 17.3695 16.0242 17.4476 16.0303C17.5257 16.0364 17.6043 16.0269 17.6787 16.0025C17.7532 15.9781 17.8221 15.9391 17.8814 15.888C17.9408 15.8368 17.9894 15.7744 18.0245 15.7043C18.0596 15.6343 18.0805 15.558 18.086 15.4798C18.0915 15.4016 18.0814 15.3231 18.0564 15.2489C18.0314 15.1746 17.9919 15.106 17.9403 15.0471C17.8887 14.9881 17.8259 14.94 17.7556 14.9054L15.3806 13.7179C15.2398 13.6474 15.0767 13.6357 14.9273 13.6853C14.7779 13.735 14.6543 13.842 14.5837 13.9828Z"
    fill="#2E79CA"/>
  <path
    d="M18.6773 12.4678C18.7948 12.468 18.9098 12.4333 19.0077 12.3681C19.1055 12.3028 19.1818 12.21 19.2268 12.1014C19.2718 11.9928 19.2836 11.8732 19.2606 11.7579C19.2376 11.6426 19.1809 11.5367 19.0976 11.4537L16.7226 9.07867C16.6111 8.96718 16.4599 8.90454 16.3022 8.90454C16.1446 8.90454 15.9934 8.96718 15.8819 9.07867C15.7704 9.19016 15.7077 9.34137 15.7077 9.49904C15.7077 9.65671 15.7704 9.80793 15.8819 9.91942L18.2569 12.2944C18.3121 12.3495 18.3777 12.3932 18.4498 12.423C18.5219 12.4527 18.5992 12.4679 18.6773 12.4678Z"
    fill="#2E79CA"/>
  <path
    d="M22.8333 11.8738V10.6863C22.8333 10.5288 22.7708 10.3778 22.6594 10.2664C22.5481 10.1551 22.3971 10.0925 22.2396 10.0925C22.0821 10.0925 21.9311 10.1551 21.8197 10.2664C21.7084 10.3778 21.6458 10.5288 21.6458 10.6863V11.8738C21.6458 12.0313 21.7084 12.1823 21.8197 12.2936C21.9311 12.405 22.0821 12.4675 22.2396 12.4675C22.3971 12.4675 22.5481 12.405 22.6594 12.2936C22.7708 12.1823 22.8333 12.0313 22.8333 11.8738Z"
    fill="#2E79CA"/>
</svg>
