<svg width="64" height="64" viewBox="0 0 64 64" fill="none" xmlns="http://www.w3.org/2000/svg">
  <g clip-path="url(#clip0)">
    <path
      d="M39.1115 34.466H24.8893C24.2339 34.466 23.7041 33.7768 23.7041 32.9275C23.7041 32.0767 24.2339 31.3889 24.8893 31.3889H39.1115C39.7669 31.3889 40.2966 32.0767 40.2966 32.9275C40.2966 33.7752 39.7669 34.466 39.1115 34.466Z"
      fill="#2E79CA"/>
    <path
      d="M39.1115 42.1589H24.8893C24.2339 42.1589 23.7041 41.4696 23.7041 40.6204C23.7041 39.7695 24.2339 39.0818 24.8893 39.0818H39.1115C39.7669 39.0818 40.2966 39.7695 40.2966 40.6204C40.2966 41.4681 39.7669 42.1589 39.1115 42.1589Z"
      fill="#2E79CA"/>
    <path
      d="M24.8893 49.9455C24.2339 49.9455 23.7041 49.2562 23.7041 48.4069V16.0032C23.7041 15.1523 24.2339 14.4646 24.8893 14.4646C25.5447 14.4646 26.0745 15.1523 26.0745 16.0032V48.4084C26.0745 49.2562 25.5447 49.9455 24.8893 49.9455Z"
      fill="#2E79CA"/>
    <path
      d="M39.1115 49.9455C38.456 49.9455 37.9263 49.2562 37.9263 48.4069V16.0032C37.9263 15.1523 38.456 14.4646 39.1115 14.4646C39.7669 14.4646 40.2966 15.1523 40.2966 16.0032V48.4084C40.2966 49.2562 39.7669 49.9455 39.1115 49.9455Z"
      fill="#2E79CA"/>
    <path
      d="M13.5107 50.1347C13.3377 50.1347 13.1635 50.087 12.9975 49.9824C9.40763 47.7422 5.28912 47.7422 1.69921 49.9824C1.10543 50.3516 0.399064 50.027 0.116991 49.2623C-0.166267 48.4961 0.0826208 47.576 0.671656 47.2083C4.91461 44.5604 9.78333 44.5604 14.0263 47.2083C14.6153 47.576 14.8642 48.4961 14.5809 49.2623C14.3771 49.8147 13.9528 50.1347 13.5107 50.1347Z"
      fill="#2E79CA"/>
    <path
      d="M38.1621 50.1347C37.9891 50.1347 37.8148 50.087 37.6489 49.9824C34.059 47.7422 29.9405 47.7422 26.3506 49.9824C25.7556 50.3516 25.0504 50.027 24.7684 49.2623C24.4851 48.4961 24.734 47.576 25.323 47.2083C29.566 44.5604 34.4347 44.5604 38.6776 47.2083C39.2667 47.576 39.5156 48.4961 39.2323 49.2623C39.0285 49.8147 38.6042 50.1347 38.1621 50.1347Z"
      fill="#2E79CA"/>
    <path
      d="M62.814 50.1347C62.6409 50.1347 62.4667 50.087 62.3008 49.9824C58.7109 47.7422 54.5923 47.7422 51.0024 49.9824C50.4098 50.3516 49.7023 50.027 49.4202 49.2623C49.137 48.4961 49.3858 47.576 49.9749 47.2083C54.2178 44.5604 59.0866 44.5604 63.3295 47.2083C63.9185 47.576 64.1674 48.4961 63.8842 49.2623C63.6791 49.8147 63.256 50.1347 62.814 50.1347Z"
      fill="#2E79CA"/>
    <path
      d="M19.6761 51.9703C17.3982 51.9703 15.1203 51.3071 12.9988 49.984C12.4098 49.6163 12.1609 48.6962 12.4441 47.9315C12.7274 47.1653 13.4361 46.8438 14.0264 47.2099C17.6175 49.4516 21.7348 49.4501 25.3235 47.2099C25.9149 46.8422 26.6225 47.1653 26.9057 47.9315C27.189 48.6962 26.9401 49.6163 26.3511 49.984C24.2296 51.3071 21.9517 51.9703 19.6761 51.9703Z"
      fill="#2E79CA"/>
    <path
      d="M44.3253 51.9703C42.0486 51.9703 39.7707 51.3071 37.6492 49.984C37.0602 49.6163 36.8113 48.6962 37.0945 47.9315C37.3778 47.1653 38.0865 46.8438 38.6767 47.2099C42.2655 49.4501 46.3828 49.4516 49.9739 47.2099C50.5665 46.8422 51.274 47.1653 51.5561 47.9315C51.8394 48.6962 51.5905 49.6163 51.0015 49.984C48.8812 51.3071 46.6032 51.9703 44.3253 51.9703Z"
      fill="#2E79CA"/>
    <path
      d="M13.5107 56.289C13.3377 56.289 13.1635 56.2413 12.9975 56.1366C9.40763 53.8965 5.28912 53.8965 1.69921 56.1366C1.10543 56.5028 0.399064 56.1797 0.116991 55.4166C-0.166267 54.6504 0.0826208 53.7303 0.671656 53.3626C4.91461 50.7147 9.78333 50.7147 14.0263 53.3626C14.6153 53.7303 14.8642 54.6504 14.5809 55.4166C14.3771 55.9689 13.9528 56.289 13.5107 56.289Z"
      fill="#2E79CA"/>
    <path
      d="M38.1621 56.289C37.9891 56.289 37.8148 56.2413 37.6489 56.1366C34.059 53.8965 29.9405 53.8965 26.3506 56.1366C25.7556 56.5028 25.0504 56.1797 24.7684 55.4166C24.4851 54.6504 24.734 53.7303 25.323 53.3626C29.566 50.7147 34.4347 50.7147 38.6776 53.3626C39.2667 53.7303 39.5156 54.6504 39.2323 55.4166C39.0285 55.9689 38.6042 56.289 38.1621 56.289Z"
      fill="#2E79CA"/>
    <path
      d="M62.814 56.289C62.6409 56.289 62.4667 56.2413 62.3008 56.1366C58.7109 53.8965 54.5923 53.8965 51.0024 56.1366C50.4098 56.5028 49.7023 56.1797 49.4202 55.4166C49.137 54.6504 49.3858 53.7303 49.9749 53.3626C54.2178 50.7147 59.0866 50.7147 63.3295 53.3626C63.9185 53.7303 64.1674 54.6504 63.8842 55.4166C63.6791 55.9689 63.256 56.289 62.814 56.289Z"
      fill="#2E79CA"/>
    <path
      d="M19.6761 58.1245C17.3982 58.1245 15.1203 57.4614 12.9988 56.1382C12.4098 55.7705 12.1609 54.8504 12.4441 54.0858C12.7274 53.3196 13.4361 52.998 14.0264 53.3642C17.6175 55.6059 21.7348 55.6043 25.3235 53.3642C25.9149 52.9949 26.6225 53.3196 26.9057 54.0858C27.189 54.8504 26.9401 55.7705 26.3511 56.1382C24.2296 57.4614 21.9517 58.1245 19.6761 58.1245Z"
      fill="#2E79CA"/>
    <path
      d="M44.3253 58.1245C42.0486 58.1245 39.7707 57.4614 37.6492 56.1382C37.0602 55.7705 36.8113 54.8504 37.0945 54.0858C37.3778 53.3196 38.0865 52.998 38.6767 53.3642C42.2655 55.6043 46.3828 55.6059 49.9739 53.3642C50.5665 52.9949 51.274 53.3196 51.5561 54.0858C51.8394 54.8504 51.5905 55.7705 51.0015 56.1382C48.8812 57.4614 46.6032 58.1245 44.3253 58.1245Z"
      fill="#2E79CA"/>
    <path
      d="M13.5107 62.4433C13.3377 62.4433 13.1635 62.3956 12.9975 62.2909C9.40763 60.0508 5.28912 60.0508 1.69921 62.2909C1.10543 62.6587 0.399064 62.3356 0.116991 61.5709C-0.166267 60.8047 0.0826208 59.8846 0.671656 59.5169C4.91461 56.869 9.78333 56.869 14.0263 59.5169C14.6153 59.8846 14.8642 60.8047 14.5809 61.5709C14.3771 62.1232 13.9528 62.4433 13.5107 62.4433Z"
      fill="#2E79CA"/>
    <path
      d="M38.1621 62.4433C37.9891 62.4433 37.8148 62.3956 37.6489 62.2909C34.059 60.0508 29.9405 60.0508 26.3506 62.2909C25.7556 62.6587 25.0504 62.3356 24.7684 61.5709C24.4851 60.8047 24.734 59.8846 25.323 59.5169C29.566 56.869 34.4347 56.869 38.6776 59.5169C39.2667 59.8846 39.5156 60.8047 39.2323 61.5709C39.0285 62.1232 38.6042 62.4433 38.1621 62.4433Z"
      fill="#2E79CA"/>
    <path
      d="M62.814 62.4433C62.6409 62.4433 62.4667 62.3956 62.3008 62.2909C58.7109 60.0508 54.5923 60.0508 51.0024 62.2909C50.4098 62.6587 49.7023 62.3356 49.4202 61.5709C49.137 60.8047 49.3858 59.8846 49.9749 59.5169C54.2178 56.869 59.0866 56.869 63.3295 59.5169C63.9185 59.8846 64.1674 60.8047 63.8842 61.5709C63.6791 62.1232 63.256 62.4433 62.814 62.4433Z"
      fill="#2E79CA"/>
    <path
      d="M19.6761 64.2789C17.3982 64.2789 15.1203 63.6157 12.9988 62.2926C12.4098 61.9249 12.1609 61.0048 12.4441 60.2401C12.7274 59.4724 13.4361 59.1539 14.0264 59.5185C17.6175 61.7602 21.7348 61.7587 25.3235 59.5185C25.9149 59.1508 26.6225 59.4739 26.9057 60.2401C27.189 61.0048 26.9401 61.9249 26.3511 62.2926C24.2296 63.6157 21.9517 64.2789 19.6761 64.2789Z"
      fill="#2E79CA"/>
    <path
      d="M44.3253 64.2789C42.0486 64.2789 39.7707 63.6157 37.6492 62.2926C37.0602 61.9249 36.8113 61.0048 37.0945 60.2401C37.3778 59.4724 38.0865 59.1539 38.6767 59.5185C42.2655 61.7587 46.3828 61.7602 49.9739 59.5185C50.5665 59.1508 51.274 59.4739 51.5561 60.2401C51.8394 61.0048 51.5905 61.9249 51.0015 62.2926C48.8812 63.6157 46.6032 64.2789 44.3253 64.2789Z"
      fill="#2E79CA"/>
    <path
      d="M32.0004 17.5421C31.345 17.5421 30.8152 16.8528 30.8152 16.0035C30.8152 15.0742 30.5805 14.3388 30.1159 13.8218C29.6928 13.3479 29.0836 13.0771 28.4448 13.0771C27.3509 13.0771 26.0745 13.8433 26.0745 16.0035C26.0745 16.8528 25.5447 17.5421 24.8893 17.5421C24.2339 17.5421 23.7041 16.8528 23.7041 16.0035C23.7041 12.0617 26.0899 10 28.4448 10C30.7998 10 33.1856 12.0632 33.1856 16.0035C33.1856 16.8512 32.6558 17.5421 32.0004 17.5421Z"
      fill="#2E79CA"/>
    <path
      d="M46.2225 17.5421C45.5671 17.5421 45.0374 16.8528 45.0374 16.0035C45.0374 15.0742 44.8027 14.3388 44.3381 13.8218C43.915 13.3479 43.3058 13.0771 42.667 13.0771C41.5731 13.0771 40.2966 13.8433 40.2966 16.0035C40.2966 16.8528 39.7669 17.5421 39.1115 17.5421C38.456 17.5421 37.9263 16.8528 37.9263 16.0035C37.9263 12.0617 40.312 10 42.667 10C45.022 10 47.4077 12.0632 47.4077 16.0035C47.4077 16.8512 46.8779 17.5421 46.2225 17.5421Z"
      fill="#2E79CA"/>
    <path
      d="M62.8151 26.7732H29.63C28.9746 26.7732 28.4448 26.0839 28.4448 25.2346C28.4448 24.3838 28.9746 23.696 29.63 23.696H62.8151C63.4705 23.696 64.0003 24.3838 64.0003 25.2346C64.0003 26.0824 63.4705 26.7732 62.8151 26.7732Z"
      fill="#2E79CA"/>
    <path
      d="M24.8893 26.7732H1.18567C0.530264 26.7732 0.000488281 26.0839 0.000488281 25.2346C0.000488281 24.3838 0.530264 23.696 1.18567 23.696H24.8893C25.5447 23.696 26.0745 24.3838 26.0745 25.2346C26.0745 26.0824 25.5447 26.7732 24.8893 26.7732Z"
      fill="#2E79CA"/>
    <path
      d="M32.0006 26.7731C31.3452 26.7731 30.8154 26.0838 30.8154 25.2346V16.0032C30.8154 15.1523 31.3452 14.4646 32.0006 14.4646C32.656 14.4646 33.1858 15.1523 33.1858 16.0032V25.2346C33.1858 26.0823 32.656 26.7731 32.0006 26.7731Z"
      fill="#2E79CA"/>
    <path
      d="M46.2228 26.7731C45.5674 26.7731 45.0376 26.0838 45.0376 25.2346V16.0032C45.0376 15.1523 45.5674 14.4646 46.2228 14.4646C46.8782 14.4646 47.408 15.1523 47.408 16.0032V25.2346C47.408 26.0823 46.8782 26.7731 46.2228 26.7731Z"
      fill="#2E79CA"/>
  </g>
  <defs>
    <clipPath id="clip0">
      <rect width="64" height="64" fill="white"/>
    </clipPath>
  </defs>
</svg>
