<svg width="64" height="64" viewBox="0 0 64 64" fill="none" xmlns="http://www.w3.org/2000/svg">
  <path
    d="M22.4585 39.3733C22.9647 39.3733 23.3743 38.9624 23.3743 38.4561C23.3743 37.9499 22.9647 37.5402 22.4585 37.5402C21.9522 37.5402 21.5394 37.9499 21.5394 38.4561C21.5394 38.9624 21.9522 39.3733 22.4585 39.3733ZM40.7903 32.0396H42.6246C43.1308 32.0396 43.5404 32.4505 43.5404 32.9555C43.5404 33.4618 43.1308 33.8727 42.6246 33.8727H40.7903C40.2853 33.8727 39.8744 34.2836 39.8744 34.7899C39.8744 35.2962 40.2853 35.7058 40.7903 35.7058H42.6246C43.1308 35.7058 43.5404 36.1187 43.5404 36.623C43.5404 37.1293 43.1308 37.5402 42.6246 37.5402H40.7903C40.2853 37.5402 39.8744 37.9511 39.8744 38.4561C39.8744 38.9624 40.2853 39.3733 40.7903 39.3733C41.2965 39.3733 41.7093 39.7842 41.7093 40.2905C41.7093 40.7955 41.2965 41.2064 40.7903 41.2064H33.1114C32.2238 41.2064 31.3457 41.0643 30.5021 40.7827L27.0397 39.6294V28.2863C28.4791 28.013 29.8864 27.1016 31.1569 25.6109C32.3972 24.1548 33.402 22.2244 33.8475 20.4476L34.1739 19.1425H34.3735C35.3848 19.1425 36.2078 19.9663 36.2078 20.9776V21.8935C36.2078 23.1249 35.8219 25.4861 35.3297 26.539H33.4583C32.9521 26.539 32.5393 26.9499 32.5393 27.4549C32.5393 27.9612 32.9521 28.3721 33.4583 28.3721H42.6246C43.1308 28.3721 43.5404 28.783 43.5404 29.2893C43.5404 29.7943 43.1308 30.2052 42.6246 30.2052H40.7903C40.2853 30.2052 39.8744 30.6161 39.8744 31.1224C39.8744 31.6287 40.2853 32.0396 40.7903 32.0396ZM25.2086 40.2905C25.2086 40.7955 24.7958 41.2064 24.2895 41.2064H19.7077V26.539H24.2895C24.7958 26.539 25.2086 26.9499 25.2086 27.4549V40.2905ZM44.6713 31.1224C45.1091 30.6347 45.3747 29.9927 45.3747 29.2893C45.3747 27.7717 44.1401 26.539 42.6246 26.539H37.2869C37.8149 24.9344 38.0402 22.8056 38.0402 21.8935V20.9776C38.0402 18.955 36.3966 17.3101 34.3742 17.3101H33.4583C33.0366 17.3101 32.6711 17.5962 32.5674 18.0039L32.0676 20.0028C31.3693 22.8004 29.1472 25.8881 26.8489 26.4487C26.4457 25.4298 25.4518 24.7046 24.2895 24.7046H18.7893C18.2843 24.7046 17.8734 25.1155 17.8734 25.6218V42.1236C17.8734 42.6299 18.2843 43.0408 18.7893 43.0408H24.2895C25.3833 43.0408 26.3299 42.4001 26.7741 41.4733L29.9223 42.5237C30.9521 42.8661 32.0253 43.0408 33.1114 43.0408H40.7903C42.3078 43.0408 43.5404 41.8062 43.5404 40.2905C43.5404 39.9327 43.4732 39.5903 43.3484 39.2767C44.5158 38.9592 45.3753 37.8903 45.3753 36.623C45.3753 35.9196 45.1097 35.2776 44.672 34.7899C45.1097 34.3022 45.3753 33.6602 45.3753 32.9555C45.3747 32.2521 45.1091 31.6101 44.6713 31.1224ZM44.5561 50.7131C44.2028 50.1211 43.4361 49.9259 42.8434 50.2773C39.4712 52.2819 35.7272 53.2586 32.01 53.2586C26.5174 53.2574 21.0767 51.1253 16.9749 47.0239C10.825 40.8736 9.04066 31.7221 12.4295 23.7106C12.6983 23.0744 12.4014 22.3415 11.7639 22.0727C11.1296 21.8039 10.3949 22.1009 10.1261 22.7371C8.3072 27.0408 7.79776 31.7516 8.65409 36.3619C9.53218 41.0842 11.7978 45.3834 15.2072 48.7911C19.7916 53.3758 25.8704 55.7593 32.0093 55.7593C36.1656 55.7593 40.3506 54.6668 44.1177 52.4272C44.7123 52.0745 44.9075 51.3071 44.5561 50.7131ZM48.7936 47.0284C48.3091 46.5374 47.5187 46.533 47.0278 47.0188L47.0093 47.0373C46.5184 47.5231 46.5158 48.3142 46.9997 48.8045C47.2435 49.0516 47.5654 49.1751 47.8874 49.1751C48.2061 49.1751 48.5248 49.0548 48.7687 48.8141L48.7859 48.7955C49.2762 48.3097 49.2807 47.5193 48.7936 47.0284ZM55.3435 27.636C54.4654 22.9137 52.1998 18.6164 48.7904 15.2069C41.1026 7.51854 29.2144 6.02466 19.8799 11.572C19.2859 11.9253 19.0907 12.6908 19.4421 13.2848C19.7954 13.8787 20.5621 14.074 21.1548 13.7207C29.5082 8.75768 40.1432 10.0954 47.0227 16.9753C53.1726 23.1262 54.9569 32.2771 51.5681 40.2873C51.2993 40.9235 51.5962 41.6564 52.2337 41.9252C52.3918 41.9924 52.5556 42.0251 52.7182 42.0251C53.2059 42.0251 53.6679 41.7377 53.8715 41.2608C55.6923 36.9571 56.1998 32.2457 55.3435 27.636ZM16.9985 15.1928C16.5128 14.7038 15.7204 14.6993 15.2296 15.1851L15.2123 15.2024C14.7214 15.6882 14.7169 16.4806 15.2046 16.9715C15.4484 17.2185 15.7704 17.3421 16.0923 17.3421C16.4097 17.3421 16.7265 17.2217 16.9704 16.9798L16.9889 16.9625C17.4798 16.4754 17.483 15.6831 16.9985 15.1928ZM59.2469 33.5303C58.4469 34.829 58.2562 36.4073 58.7253 37.857L59.8037 41.2154C60.1941 42.4264 59.7007 43.7282 58.6069 44.3779L55.6155 46.1534C54.2996 46.9349 53.3966 48.2489 53.1386 49.7582L52.5498 53.2119C52.3342 54.4747 51.2903 55.4009 50.0122 55.4655L46.5856 55.6358C45.0464 55.7126 43.6275 56.4595 42.695 57.6878L40.6073 60.4349C39.8399 61.4443 38.4491 61.788 37.299 61.2503L34.2039 59.8051C32.8023 59.1503 31.1959 59.1503 29.793 59.8051L26.6979 61.2503C25.5497 61.788 24.159 61.4443 23.3916 60.4349L21.302 57.6878C20.3708 56.4595 18.9519 55.7126 17.4114 55.6358L13.986 55.4655C12.7079 55.4009 11.6641 54.4747 11.4484 53.2119L10.8596 49.7582C10.6016 48.2489 9.69859 46.9343 8.38273 46.1534L5.39196 44.3785C4.29818 43.7282 3.80409 42.4283 4.1945 41.216L5.27292 37.8577C5.74012 36.4073 5.5494 34.8296 4.75131 33.5309L2.90552 30.5336C2.23991 29.4506 2.40695 28.0706 3.3132 27.1784L5.80732 24.7206C6.8947 23.6504 7.45727 22.161 7.34783 20.6377L7.09758 17.1277C7.0067 15.8527 7.79776 14.7057 9.02082 14.337L12.3239 13.3417C13.794 12.8982 14.9896 11.8351 15.6008 10.4244L16.9851 7.23372C17.4197 6.23395 18.4194 5.60094 19.4818 5.60094C19.6507 5.60094 19.8223 5.61822 19.9944 5.65279L23.3481 6.31076C24.8636 6.60775 26.4233 6.22179 27.6266 5.25147L30.2954 3.09642C31.2817 2.29955 32.714 2.29955 33.7015 3.09642L36.3704 5.25019C37.5736 6.22243 39.1333 6.60839 40.6488 6.30948L44.0006 5.65151C45.2428 5.40765 46.5081 6.0733 47.0118 7.23436L48.3949 10.425C49.0061 11.8344 50.201 12.8988 51.6717 13.3424L54.9768 14.3377C56.2005 14.7063 56.9909 15.8533 56.9006 17.127L56.6504 20.6383C56.5409 22.1617 57.1035 23.6498 58.1909 24.7212L60.6844 27.179C61.5906 28.0713 61.7577 29.4512 61.0921 30.5342L59.2469 33.5303ZM63.2207 31.8425C64.5008 29.7623 64.1788 27.1125 62.4393 25.3984L59.9439 22.9406C59.3781 22.3825 59.0863 21.6074 59.1426 20.8156L59.3928 17.3043C59.5663 14.8574 58.0475 12.6524 55.6987 11.9445L52.3937 10.9492C51.6282 10.7182 51.0061 10.1645 50.6887 9.43038L49.3063 6.23843C48.3392 4.00849 45.9065 2.72839 43.5199 3.19754L40.1682 3.85552C39.3791 4.01041 38.5682 3.80879 37.9416 3.30379L35.2747 1.14873C33.3764 -0.382912 30.6231 -0.382912 28.7248 1.14873L26.0579 3.30379C25.4313 3.80879 24.6204 4.01041 23.8313 3.85552L20.4776 3.19754C18.093 2.72903 15.6603 4.00913 14.6932 6.23843L13.3089 9.4291C12.9914 10.1632 12.37 10.7169 11.6039 10.9479L8.3008 11.9432C5.95261 12.6511 4.43386 14.8561 4.6073 17.303L4.85755 20.8144C4.91387 21.6067 4.62139 22.3818 4.05562 22.9393L1.55894 25.3971C-0.178693 27.1112 -0.500618 29.7617 0.779403 31.8412L2.62455 34.8398C3.03992 35.5151 3.13848 36.3369 2.89656 37.0915L1.81686 40.4486C1.06869 42.7784 2.01398 45.2772 4.11834 46.5259L7.10782 48.3008C7.79392 48.7085 8.2624 49.3934 8.39681 50.1774L8.98562 53.6311C9.3997 56.0582 11.4061 57.8382 13.8657 57.9617L17.291 58.1307C18.091 58.171 18.8283 58.5602 19.3147 59.1996L21.4037 61.9467C22.4105 63.2716 23.9759 64 25.5696 64C26.3101 64 27.057 63.8419 27.7571 63.5155L30.8541 62.0702C31.5825 61.7297 32.4196 61.7297 33.1479 62.0702L36.2449 63.5155C38.4511 64.5466 41.125 63.8874 42.5983 61.9467L44.686 59.1996C45.1737 58.5602 45.911 58.1717 46.711 58.1326L50.1376 57.9624C52.5953 57.8389 54.6017 56.0589 55.0177 53.6318L55.6053 50.18C55.7397 49.394 56.2081 48.7098 56.8949 48.3033L59.8837 46.5285C61.9887 45.2785 62.934 42.7797 62.1852 40.4499L61.1055 37.0928C60.8636 36.3382 60.9615 35.5164 61.3775 34.8411L63.2207 31.8425Z"
    fill="#2E79CA"/>
</svg>
