<svg width="64" height="64" viewBox="0 0 64 64" fill="none" xmlns="http://www.w3.org/2000/svg">
  <path
    d="M34.87 0C18.8077 0 5.74089 12.4565 5.74089 27.7676C5.74089 28.6361 5.79936 29.4898 5.88543 30.3366C2.29636 31.4752 0 33.4892 0 35.8856V57.4478C0 61.1833 5.56225 64 12.9369 64C18.2369 64 22.5892 62.5402 24.6241 60.3342C25.117 60.3613 25.614 60.3853 26.1263 60.3853C32.516 60.3853 37.5375 58.2691 38.7661 55.2751C52.9924 53.4531 64 41.817 64 27.7668C63.9992 12.4565 50.9324 0 34.87 0ZM23.4354 57.4486C23.4354 59.4495 19.1228 61.6787 12.9361 61.6787C6.74778 61.6787 2.43521 59.4495 2.43521 57.4486V55.9702C4.74456 57.5902 8.50822 58.6096 12.9361 58.6096C17.3623 58.6096 21.126 57.5902 23.4354 55.9702V57.4486ZM23.4354 52.0582C23.4354 54.0591 19.1228 56.2876 12.9361 56.2876C6.74778 56.2876 2.43521 54.0591 2.43521 52.0582V50.5791C4.74456 52.1999 8.50822 53.2193 12.9361 53.2193C17.3623 53.2193 21.126 52.1999 23.4354 50.5791V52.0582ZM23.4354 46.6679C23.4354 48.668 19.1228 50.8972 12.9361 50.8972C6.74778 50.8972 2.43521 48.668 2.43521 46.6679V45.1887C4.74456 46.8088 8.50822 47.8289 12.9361 47.8289C17.3623 47.8289 21.126 46.8088 23.4354 45.1887V46.6679ZM23.4354 41.2768C23.4354 43.2738 18.9458 45.5068 12.9361 45.5068C6.74778 45.5068 2.43521 43.2769 2.43521 41.2768V39.7984C4.74456 41.4176 8.50822 42.4378 12.9361 42.4378C17.3623 42.4378 21.126 41.4176 23.4354 39.7984V41.2768ZM12.9361 40.1157C6.74778 40.1157 2.43521 37.8865 2.43521 35.8856C2.43521 33.8855 6.74778 31.6556 12.9361 31.6556C19.1228 31.6556 23.4354 33.8855 23.4354 35.8856C23.4354 37.8834 18.9458 40.1157 12.9361 40.1157ZM36.6256 53.8339C36.6256 55.834 32.313 58.064 26.1247 58.064C26.0183 58.064 25.9185 58.0562 25.8137 58.0547C25.847 57.855 25.8706 57.6537 25.8706 57.4486V54.9856C25.955 54.988 26.037 54.9949 26.1247 54.9949C30.5526 54.9949 34.3163 53.9747 36.6256 52.3555V53.8339ZM36.6256 48.4427C36.6256 50.4436 32.313 52.6728 26.1247 52.6728C26.0378 52.6728 25.955 52.6651 25.8706 52.662V49.5976C25.955 49.5991 26.0386 49.6038 26.1247 49.6038C30.5526 49.6038 34.3163 48.5844 36.6256 46.9643V48.4427ZM26.1255 47.2817C26.0403 47.2817 25.9574 47.2771 25.8714 47.2755V38.8324C25.9583 38.8308 26.0378 38.8215 26.1255 38.8215C32.3138 38.8215 36.6264 41.0515 36.6264 43.0524C36.6264 45.0533 32.3138 47.2817 26.1255 47.2817ZM39.0616 52.8934V43.0524C39.0616 39.3169 33.4994 36.4994 26.1247 36.4994C26.0395 36.4994 25.9566 36.5072 25.8706 36.5072V35.8864C25.8706 32.1509 20.3083 29.3342 12.9353 29.3342C11.2699 29.3342 9.70593 29.4844 8.26948 29.7499C8.21427 29.0951 8.1761 28.4364 8.1761 27.7684C8.1761 13.7375 20.15 2.32287 34.8692 2.32287C49.5885 2.32287 61.5624 13.7375 61.5624 27.7684C61.5632 40.4385 51.7955 50.9707 39.0616 52.8934ZM36.0881 7.44386H33.652V28.9279H50.6896V26.6058H36.0881V7.44386Z"
    fill="#2E79CA"/>
</svg>
