<svg width="64" height="64" viewBox="0 0 64 64" fill="none" xmlns="http://www.w3.org/2000/svg">
  <path
    d="M49.8547 22.3241C49.895 22.3265 49.936 22.3373 49.9763 22.3373C50.4903 22.3373 50.992 22.1631 51.4023 21.8341C51.9458 21.3982 52.2578 20.7479 52.2578 20.0511C52.2578 19.0578 51.6307 18.2085 50.7094 17.8957V17.2903C50.7094 12.1675 46.542 8 41.4191 8C37.59 8 34.1603 10.3814 32.7768 13.8885L32.5871 13.8467C31.9081 13.695 31.2044 13.8591 30.6617 14.295C30.1182 14.7308 29.8062 15.3812 29.8062 16.0779C29.8062 17.0712 30.4333 17.9205 31.3546 18.2333V21.1613C31.3546 25.1135 33.8398 28.4883 37.326 29.8276C36.6509 30.1458 36.0083 30.5368 35.4207 31.0067L34.1796 32H28.7734L28.3794 30.1613C28.7727 29.881 29.032 29.4227 29.032 28.9032H32.4284L32.0491 27.7652C31.5667 26.3182 30.3172 25.2955 28.8416 25.0787C28.5807 24.5925 28.0728 24.2581 27.4836 24.2581H24.3869C23.8163 24.2581 23.3223 24.5716 23.0537 25.0323H21.2901C20.4362 25.0323 19.7417 25.7267 19.7417 26.5806V28.129C19.7417 28.983 20.4362 29.6774 21.2901 29.6774H23.0537C23.2147 29.953 23.4547 30.1752 23.7466 30.3092L24.4256 33.0235C23.9254 33.5739 23.6127 34.297 23.6127 35.0968C23.6127 36.4377 24.4743 37.5711 25.6697 38.0008L26.4857 41.2648C26.6088 41.7556 26.9014 42.1636 27.2893 42.4431C26.9131 43.16 26.7094 43.952 26.7094 44.7742V51.5716L25.8385 51.8619C24.9706 52.1507 24.3869 52.9605 24.3869 53.8764C24.3869 55.0477 25.3391 56 26.5105 56H35.9998V55.969C36.2382 55.9458 36.4751 55.911 36.7082 55.8575L45.7167 53.7781L46.5195 54.9819C46.9445 55.6191 47.656 56 48.4225 56C49.6836 56 50.7094 54.9742 50.7094 53.713V49.0323C50.7094 47.7517 49.6674 46.7097 48.3869 46.7097H46.0441C46.5358 46.0609 46.8385 45.2619 46.8385 44.3871V32H46.8269C46.7843 30.824 46.1076 29.8168 45.1283 29.2934C47.6676 27.8875 49.4769 25.3265 49.8547 22.3241ZM41.4191 9.54839C45.688 9.54839 49.1611 13.0214 49.1611 17.2903V17.5295L34.3128 14.2299C35.5205 11.432 38.3107 9.54839 41.4191 9.54839ZM32.903 21.1613V18.5995L39.0965 19.976V22.7097H40.6449C41.0715 22.7097 41.4191 23.0573 41.4191 23.4839C41.4191 23.9105 41.0715 24.2581 40.6449 24.2581H39.0965V28.7468C35.567 28.0276 32.903 24.8999 32.903 21.1613ZM36.8808 31.8552C37.48 31.4472 38.1303 31.1228 38.8124 30.889L36.8808 31.8552ZM25.8036 32.151L25.3786 30.4516H26.8573L27.1894 32H26.7094C26.392 32 26.0916 32.0619 25.8036 32.151ZM29.032 27.3548V26.7192C29.4176 26.8485 29.7691 27.0599 30.0454 27.3548H29.032ZM24.3869 25.8065H27.4836L27.4844 28.9032H24.3869V25.8065ZM21.2901 26.5806H22.8385V28.129H21.2901V26.5806ZM26.7094 33.5484H36.2955L37.8439 36.6452H26.7094C25.8555 36.6452 25.1611 35.9507 25.1611 35.0968C25.1611 34.2428 25.8555 33.5484 26.7094 33.5484ZM30.6555 47.4514C30.0996 48.3409 29.8062 49.3652 29.8062 50.4126C29.8062 50.7339 29.8395 51.0475 29.8922 51.3548H28.2578V44.7742C28.2578 44.0635 28.4723 43.383 28.8733 42.8015C29.5724 42.6746 30.1515 42.2008 30.4194 41.5613C31.4754 41.1316 32.7242 41.2563 33.6772 41.8888V42.6173L30.6555 47.4514ZM30.4712 39.9254L30.1004 38.1935H33.6772V40.143C32.6669 39.7326 31.5272 39.6606 30.4712 39.9254ZM28.5164 38.1935L29.0204 40.544C29.0282 40.5804 29.032 40.6175 29.032 40.6547V40.7608C29.032 41.0526 28.7943 41.2903 28.5017 41.2903C28.2578 41.2903 28.0465 41.1254 27.9876 40.8885L27.3141 38.1935H28.5164ZM35.2256 38.1935H39.2971L45.1863 34.921C45.2227 34.9009 45.2545 34.8754 45.2901 34.8537V42.0645H35.2256V38.1935ZM26.5105 54.4516C26.1931 54.4516 25.9352 54.1938 25.9352 53.8764C25.9352 53.6286 26.0932 53.4088 26.3285 53.3306L27.6098 52.9032H30.4C30.6919 53.4846 31.0813 54.0072 31.5505 54.4516H26.5105ZM49.1611 49.0323V53.713C49.1611 54.1203 48.8297 54.4516 48.4225 54.4516C48.1747 54.4516 47.9448 54.3285 47.8078 54.1226L46.8385 52.6686V48.2581H48.3869C48.8134 48.2581 49.1611 48.6057 49.1611 49.0323ZM39.8707 48.2581H42.9675H45.2901V52.287L36.3598 54.3479C36.0632 54.4168 35.7574 54.4516 35.3936 54.4516C33.1662 54.4516 31.3546 52.64 31.3546 50.4126C31.3546 49.6547 31.5667 48.9146 31.9685 48.2712L34.8803 43.6129H45.2901V44.3871C45.2901 45.6676 44.248 46.7097 42.9675 46.7097H39.8707H36.774V48.2581H39.8707ZM44.4346 33.5677L39.4271 36.3494L37.8121 33.1203L42.7987 30.6266C43.0294 30.5128 43.2865 30.4516 43.5427 30.4516H43.6271C44.5445 30.4516 45.2901 31.1972 45.2901 32.1146C45.2901 32.7177 44.9626 33.2751 44.4346 33.5677ZM40.6449 28.9032V25.8065C41.9254 25.8065 42.9675 24.7644 42.9675 23.4839C42.9675 22.2034 41.9254 21.1613 40.6449 21.1613V20.3197L45.119 21.3138L45.455 19.8026L31.9322 16.7979C31.5923 16.7221 31.3546 16.4263 31.3546 16.0779C31.3546 15.8526 31.4552 15.6428 31.6302 15.5027C31.8052 15.3626 32.0328 15.3092 32.2519 15.3579L50.1319 19.3311C50.4718 19.407 50.7094 19.7027 50.7094 20.0511C50.7094 20.2764 50.6088 20.4862 50.4338 20.6263C50.2581 20.7665 50.0305 20.8183 49.8129 20.7711L47.0924 20.1665L46.7556 21.6777L48.335 22.0292C47.9022 25.8908 44.6204 28.9032 40.6449 28.9032Z"
    fill="#EBF4FA"/>
  <path
    d="M21.8338 30.2681L20.5161 32.1827L18.9879 29.9623L16.2937 29.7634L17.4666 27.3548L16.2937 24.9463L18.9879 24.7474L20.5161 22.527L21.8338 24.4415L23.1089 23.5636L21.2903 20.9205V8H12V56H21.2903V33.7892L23.1097 31.1461L21.8338 30.2681ZM13.5484 54.4516V9.54839H19.7419V20.9205L18.1332 23.2578L13.9006 23.5698L15.744 27.3548L13.9006 31.1399L18.1332 31.4519L19.7419 33.7892V54.4516H13.5484Z"
    fill="#EBF4FA"/>
  <path d="M36 20.3871H34.4517V21.9355H36V20.3871Z" fill="#EBF4FA"/>
  <path d="M16.6451 11.0968H15.0967V17.2903H16.6451V11.0968Z" fill="#EBF4FA"/>
  <path d="M16.6451 18.8387H15.0967V20.3871H16.6451V18.8387Z" fill="#EBF4FA"/>
  <path d="M18.1934 34.3226H16.645V40.5162H18.1934V34.3226Z" fill="#EBF4FA"/>
  <path d="M16.6451 48.2581H15.0967V52.9032H16.6451V48.2581Z" fill="#EBF4FA"/>
</svg>
