<svg width="152" height="143" viewBox="0 0 152 143" fill="none" xmlns="http://www.w3.org/2000/svg">
  <path id="Combined Shape" opacity="0.3" fill-rule="evenodd" clip-rule="evenodd"
        d="M144 138.026C144 140.097 145.679 141.776 147.75 141.776C149.821 141.776 151.5 140.097 151.5 138.026C151.5 135.955 149.821 134.276 147.75 134.276C145.679 134.276 144 135.955 144 138.026ZM120 138.026C120 140.097 121.679 141.776 123.75 141.776C125.821 141.776 127.5 140.097 127.5 138.026C127.5 135.955 125.821 134.276 123.75 134.276C121.679 134.276 120 135.955 120 138.026ZM95.9995 138.026C95.9995 140.097 97.6784 141.776 99.7495 141.776C101.821 141.776 103.499 140.097 103.499 138.026C103.499 135.955 101.821 134.276 99.7495 134.276C97.6784 134.276 95.9995 135.955 95.9995 138.026ZM71.9995 138.026C71.9995 140.097 73.6784 141.776 75.7495 141.776C77.8205 141.776 79.4995 140.097 79.4995 138.026C79.4995 135.955 77.8205 134.276 75.7495 134.276C73.6784 134.276 71.9995 135.955 71.9995 138.026ZM47.9993 138.026C47.9993 140.097 49.6782 141.776 51.7493 141.776C53.8203 141.776 55.4993 140.097 55.4993 138.026C55.4993 135.955 53.8203 134.276 51.7493 134.276C49.6782 134.276 47.9993 135.955 47.9993 138.026ZM23.9985 138.026C23.9985 140.097 25.6775 141.776 27.7485 141.776C29.8196 141.776 31.4985 140.097 31.4985 138.026C31.4985 135.955 29.8196 134.276 27.7485 134.276C25.6775 134.276 23.9985 135.955 23.9985 138.026ZM3.75 7.50073C1.67893 7.50073 0 5.8218 0 3.75073C0 1.67966 1.67893 0.000732422 3.75 0.000732422C5.82107 0.000732422 7.5 1.67966 7.5 3.75073C7.5 5.8218 5.82107 7.50073 3.75 7.50073ZM0 30.6057C0 32.6768 1.67893 34.3557 3.75 34.3557C5.82107 34.3557 7.5 32.6768 7.5 30.6057C7.5 28.5347 5.82107 26.8557 3.75 26.8557C1.67893 26.8557 0 28.5347 0 30.6057ZM3.75 61.2108C1.67893 61.2108 0 59.5318 0 57.4608C0 55.3897 1.67893 53.7108 3.75 53.7108C5.82107 53.7108 7.5 55.3897 7.5 57.4608C7.5 59.5318 5.82107 61.2108 3.75 61.2108ZM0 84.3161C0 86.3872 1.67893 88.0661 3.75 88.0661C5.82107 88.0661 7.5 86.3872 7.5 84.3161C7.5 82.2451 5.82107 80.5661 3.75 80.5661C1.67893 80.5661 0 82.2451 0 84.3161ZM3.75 114.92C1.67893 114.92 0 113.241 0 111.17C0 109.099 1.67893 107.42 3.75 107.42C5.82107 107.42 7.5 109.099 7.5 111.17C7.5 113.241 5.82107 114.92 3.75 114.92ZM3.75 141.776C1.67893 141.776 0 140.097 0 138.026C0 135.955 1.67893 134.276 3.75 134.276C5.82107 134.276 7.5 135.955 7.5 138.026C7.5 140.097 5.82107 141.776 3.75 141.776ZM27.7485 114.92C25.6775 114.92 23.9985 113.241 23.9985 111.17C23.9985 109.099 25.6775 107.42 27.7485 107.42C29.8196 107.42 31.4985 109.099 31.4985 111.17C31.4985 113.241 29.8196 114.92 27.7485 114.92ZM23.9985 84.3161C23.9985 86.3872 25.6775 88.0661 27.7485 88.0661C29.8196 88.0661 31.4985 86.3872 31.4985 84.3161C31.4985 82.2451 29.8196 80.5661 27.7485 80.5661C25.6775 80.5661 23.9985 82.2451 23.9985 84.3161ZM27.7485 61.2108C25.6775 61.2108 23.9985 59.5318 23.9985 57.4608C23.9985 55.3897 25.6775 53.7108 27.7485 53.7108C29.8196 53.7108 31.4985 55.3897 31.4985 57.4608C31.4985 59.5318 29.8196 61.2108 27.7485 61.2108ZM23.9985 30.6057C23.9985 32.6768 25.6775 34.3557 27.7485 34.3557C29.8196 34.3557 31.4985 32.6768 31.4985 30.6057C31.4985 28.5347 29.8196 26.8557 27.7485 26.8557C25.6775 26.8557 23.9985 28.5347 23.9985 30.6057ZM27.7485 7.50073C25.6775 7.50073 23.9985 5.8218 23.9985 3.75073C23.9985 1.67966 25.6775 0.000732422 27.7485 0.000732422C29.8196 0.000732422 31.4985 1.67966 31.4985 3.75073C31.4985 5.8218 29.8196 7.50073 27.7485 7.50073ZM51.7493 114.92C49.6782 114.92 47.9993 113.241 47.9993 111.17C47.9993 109.099 49.6782 107.42 51.7493 107.42C53.8203 107.42 55.4993 109.099 55.4993 111.17C55.4993 113.241 53.8203 114.92 51.7493 114.92ZM47.9993 84.3161C47.9993 86.3872 49.6782 88.0661 51.7493 88.0661C53.8203 88.0661 55.4993 86.3872 55.4993 84.3161C55.4993 82.2451 53.8203 80.5661 51.7493 80.5661C49.6782 80.5661 47.9993 82.2451 47.9993 84.3161ZM51.7493 61.2108C49.6782 61.2108 47.9993 59.5318 47.9993 57.4608C47.9993 55.3897 49.6782 53.7108 51.7493 53.7108C53.8203 53.7108 55.4993 55.3897 55.4993 57.4608C55.4993 59.5318 53.8203 61.2108 51.7493 61.2108ZM47.9993 30.6057C47.9993 32.6768 49.6782 34.3557 51.7493 34.3557C53.8203 34.3557 55.4993 32.6768 55.4993 30.6057C55.4993 28.5347 53.8203 26.8557 51.7493 26.8557C49.6782 26.8557 47.9993 28.5347 47.9993 30.6057ZM51.7493 7.50073C49.6782 7.50073 47.9993 5.8218 47.9993 3.75073C47.9993 1.67966 49.6782 0.000732422 51.7493 0.000732422C53.8203 0.000732422 55.4993 1.67966 55.4993 3.75073C55.4993 5.8218 53.8203 7.50073 51.7493 7.50073ZM75.7495 114.92C73.6784 114.92 71.9995 113.241 71.9995 111.17C71.9995 109.099 73.6784 107.42 75.7495 107.42C77.8205 107.42 79.4995 109.099 79.4995 111.17C79.4995 113.241 77.8205 114.92 75.7495 114.92ZM71.9995 84.3161C71.9995 86.3872 73.6784 88.0661 75.7495 88.0661C77.8205 88.0661 79.4995 86.3872 79.4995 84.3161C79.4995 82.2451 77.8205 80.5661 75.7495 80.5661C73.6784 80.5661 71.9995 82.2451 71.9995 84.3161ZM75.7495 61.2108C73.6784 61.2108 71.9995 59.5318 71.9995 57.4608C71.9995 55.3897 73.6784 53.7108 75.7495 53.7108C77.8205 53.7108 79.4995 55.3897 79.4995 57.4608C79.4995 59.5318 77.8205 61.2108 75.7495 61.2108ZM71.9995 30.6057C71.9995 32.6768 73.6784 34.3557 75.7495 34.3557C77.8205 34.3557 79.4995 32.6768 79.4995 30.6057C79.4995 28.5347 77.8205 26.8557 75.7495 26.8557C73.6784 26.8557 71.9995 28.5347 71.9995 30.6057ZM75.7495 7.50073C73.6784 7.50073 71.9995 5.8218 71.9995 3.75073C71.9995 1.67966 73.6784 0.000732422 75.7495 0.000732422C77.8205 0.000732422 79.4995 1.67966 79.4995 3.75073C79.4995 5.8218 77.8205 7.50073 75.7495 7.50073ZM99.7495 114.92C97.6784 114.92 95.9995 113.241 95.9995 111.17C95.9995 109.099 97.6784 107.42 99.7495 107.42C101.821 107.42 103.499 109.099 103.499 111.17C103.499 113.241 101.821 114.92 99.7495 114.92ZM95.9995 84.3161C95.9995 86.3872 97.6784 88.0661 99.7495 88.0661C101.821 88.0661 103.499 86.3872 103.499 84.3161C103.499 82.2451 101.821 80.5661 99.7495 80.5661C97.6784 80.5661 95.9995 82.2451 95.9995 84.3161ZM99.7495 61.2108C97.6784 61.2108 95.9995 59.5318 95.9995 57.4608C95.9995 55.3897 97.6784 53.7108 99.7495 53.7108C101.821 53.7108 103.499 55.3897 103.499 57.4608C103.499 59.5318 101.821 61.2108 99.7495 61.2108ZM95.9995 30.6057C95.9995 32.6768 97.6784 34.3557 99.7495 34.3557C101.821 34.3557 103.499 32.6768 103.499 30.6057C103.499 28.5347 101.821 26.8557 99.7495 26.8557C97.6784 26.8557 95.9995 28.5347 95.9995 30.6057ZM99.7495 7.50073C97.6784 7.50073 95.9995 5.8218 95.9995 3.75073C95.9995 1.67966 97.6784 0.000732422 99.7495 0.000732422C101.821 0.000732422 103.499 1.67966 103.499 3.75073C103.499 5.8218 101.821 7.50073 99.7495 7.50073ZM123.75 114.92C121.679 114.92 120 113.241 120 111.17C120 109.099 121.679 107.42 123.75 107.42C125.821 107.42 127.5 109.099 127.5 111.17C127.5 113.241 125.821 114.92 123.75 114.92ZM120 84.3161C120 86.3872 121.679 88.0661 123.75 88.0661C125.821 88.0661 127.5 86.3872 127.5 84.3161C127.5 82.2451 125.821 80.5661 123.75 80.5661C121.679 80.5661 120 82.2451 120 84.3161ZM123.75 61.2108C121.679 61.2108 120 59.5318 120 57.4608C120 55.3897 121.679 53.7108 123.75 53.7108C125.821 53.7108 127.5 55.3897 127.5 57.4608C127.5 59.5318 125.821 61.2108 123.75 61.2108ZM120 30.6057C120 32.6768 121.679 34.3557 123.75 34.3557C125.821 34.3557 127.5 32.6768 127.5 30.6057C127.5 28.5347 125.821 26.8557 123.75 26.8557C121.679 26.8557 120 28.5347 120 30.6057ZM123.75 7.50073C121.679 7.50073 120 5.8218 120 3.75073C120 1.67966 121.679 0.000732422 123.75 0.000732422C125.821 0.000732422 127.5 1.67966 127.5 3.75073C127.5 5.8218 125.821 7.50073 123.75 7.50073ZM147.75 114.92C145.679 114.92 144 113.241 144 111.17C144 109.099 145.679 107.42 147.75 107.42C149.821 107.42 151.5 109.099 151.5 111.17C151.5 113.241 149.821 114.92 147.75 114.92ZM144 84.3161C144 86.3872 145.679 88.0661 147.75 88.0661C149.821 88.0661 151.5 86.3872 151.5 84.3161C151.5 82.2451 149.821 80.5661 147.75 80.5661C145.679 80.5661 144 82.2451 144 84.3161ZM147.75 61.2108C145.679 61.2108 144 59.5318 144 57.4608C144 55.3897 145.679 53.7108 147.75 53.7108C149.821 53.7108 151.5 55.3897 151.5 57.4608C151.5 59.5318 149.821 61.2108 147.75 61.2108ZM144 30.6057C144 32.6768 145.679 34.3557 147.75 34.3557C149.821 34.3557 151.5 32.6768 151.5 30.6057C151.5 28.5347 149.821 26.8557 147.75 26.8557C145.679 26.8557 144 28.5347 144 30.6057ZM147.75 7.5C145.679 7.5 144 5.82107 144 3.75C144 1.67893 145.679 0 147.75 0C149.821 0 151.5 1.67893 151.5 3.75C151.5 5.82107 149.821 7.5 147.75 7.5Z"
        fill="#57586E"/>
</svg>
