<svg width="26" height="30" viewBox="0 0 26 30" fill="none" xmlns="http://www.w3.org/2000/svg">
  <g clip-path="url(#clip0)">
    <path
      d="M4 29C3.20435 29 2.44129 28.6839 1.87868 28.1213C1.31607 27.5587 1 26.7956 1 26C1 25.2044 1.31607 24.4413 1.87868 23.8787C2.44129 23.3161 3.20435 23 4 23"
      stroke="#175CFF" stroke-width="2" stroke-linecap="round" stroke-linejoin="round"/>
    <path d="M4 23H25" stroke="#175CFF" stroke-width="2" stroke-linecap="round" stroke-linejoin="round"/>
    <path d="M4 29H25" stroke="#175CFF" stroke-width="2" stroke-linecap="round" stroke-linejoin="round"/>
    <path
      d="M25 23V4C25.0526 3.26238 24.8122 2.53379 24.3311 1.97219C23.85 1.4106 23.167 1.06129 22.43 1H3.57003C2.83309 1.06129 2.15001 1.4106 1.66891 1.97219C1.18782 2.53379 0.947483 3.26238 1.00003 4V26"
      stroke="#175CFF" stroke-width="2" stroke-linecap="round" stroke-linejoin="round"/>
    <path d="M23 23V29" stroke="#175CFF" stroke-width="2" stroke-linecap="round" stroke-linejoin="round"/>
    <path
      d="M13 12C14.6569 12 16 10.6569 16 9C16 7.34315 14.6569 6 13 6C11.3431 6 10 7.34315 10 9C10 10.6569 11.3431 12 13 12Z"
      stroke="#175CFF" stroke-width="2" stroke-linecap="round" stroke-linejoin="round"/>
    <path
      d="M8 18C8 16.6739 8.52678 15.4021 9.46447 14.4645C10.4021 13.5268 11.6739 13 13 13C14.3261 13 15.5979 13.5268 16.5355 14.4645C17.4732 15.4021 18 16.6739 18 18"
      stroke="#175CFF" stroke-width="2" stroke-linecap="round" stroke-linejoin="round"/>
  </g>
  <defs>
    <clipPath id="clip0">
      <rect width="26" height="30" fill="white"/>
    </clipPath>
  </defs>
</svg>
