<svg width="88" height="88" viewBox="0 0 88 88" fill="none" xmlns="http://www.w3.org/2000/svg">
  <rect width="88" height="88" fill="white"/>
  <path
    d="M23.4609 54.9046C23.8541 55.2876 24.3083 55.6026 24.8049 55.8366C24.9763 59.1684 25.6935 62.4494 26.9279 65.5488C27.45 66.787 27.7219 68.1162 27.728 69.4599V72.9999C27.728 73.7956 28.044 74.5587 28.6067 75.1213C29.1693 75.6839 29.9323 76 30.728 76H42.7282C43.5239 76 44.287 75.6839 44.8496 75.1213C45.4122 74.5587 45.7283 73.7956 45.7283 72.9999C45.7304 71.287 46.3143 69.6255 47.3843 68.2879L53.9154 60.1457C54.0274 60.0307 54.1244 59.9037 54.2295 59.7827C54.3345 59.6617 54.4295 59.5667 54.5185 59.4507C54.6075 59.3347 54.7055 59.1807 54.7975 59.0447C54.8895 58.9087 54.9715 58.8027 55.0485 58.6757C55.1255 58.5487 55.2035 58.3847 55.2795 58.2377C55.3465 58.1087 55.4215 57.9827 55.4795 57.8497C55.5495 57.6947 55.6025 57.5337 55.6635 57.3747C55.7125 57.2426 55.7705 57.1146 55.8135 56.9746C55.8675 56.8056 55.9045 56.6316 55.9465 56.4596C55.9785 56.3306 56.0195 56.2036 56.0465 56.0736C56.0815 55.8926 56.0985 55.7086 56.1215 55.5266C56.1375 55.3996 56.1625 55.2746 56.1725 55.1476C56.1885 54.9386 56.1845 54.7286 56.1845 54.5186C56.1845 54.4186 56.1935 54.3126 56.1895 54.2096C56.1751 53.8935 56.1417 53.5786 56.0895 53.2666L56.0115 52.7816L54.9685 46.3084C54.8569 45.62 54.6552 44.9492 54.3685 44.3134C54.3685 44.3014 54.3595 44.2874 54.3545 44.2754C54.3365 44.2354 54.3105 44.1994 54.2925 44.1594C53.3978 42.2706 51.7994 40.8068 49.8394 40.0813L46.7833 38.9543L50.2504 35.5542L53.7504 32.0472C53.8665 31.9315 54.0096 31.8465 54.1667 31.8001C54.3239 31.7536 54.4902 31.7471 54.6505 31.7812C57.1023 32.3018 59.6603 31.8821 61.8172 30.6054C63.9742 29.3286 65.5726 27.288 66.2957 24.888C66.6858 23.5929 66.8093 22.2322 66.6587 20.888C66.6178 20.5155 66.4716 20.1624 66.2373 19.87C66.003 19.5776 65.6903 19.358 65.3357 19.2369C64.9773 19.11 64.5902 19.0878 64.2196 19.173C63.8491 19.2582 63.5106 19.4472 63.2436 19.7179L60.4566 22.56C60.2662 22.742 60.013 22.8436 59.7496 22.8436C59.4862 22.8436 59.2329 22.742 59.0425 22.56L56.2215 19.7319C56.1281 19.6385 56.0541 19.5275 56.0038 19.4053C55.9536 19.2831 55.928 19.1521 55.9287 19.02C55.9293 18.8878 55.9562 18.7571 56.0076 18.6354C56.0591 18.5137 56.1341 18.4034 56.2285 18.3109L59.0155 15.4689C59.2845 15.2023 59.4719 14.8646 59.5558 14.4953C59.6398 14.126 59.6168 13.7405 59.4896 13.3838C59.3682 13.0295 59.1485 12.717 58.8562 12.4829C58.5638 12.2488 58.2108 12.1027 57.8385 12.0618C55.4457 11.7946 53.0367 12.3996 51.0542 13.7659C49.0716 15.1321 47.6485 17.1678 47.0463 19.4989C46.6567 20.9936 46.6225 22.5587 46.9463 24.069C46.9815 24.229 46.9759 24.3952 46.9302 24.5525C46.8844 24.7097 46.7998 24.853 46.6843 24.969L40.9122 30.6992C40.455 30.0833 39.8295 29.6127 39.1111 29.344C38.3926 29.0753 37.6119 29.02 36.8627 29.1847C36.1136 29.3494 35.428 29.7272 34.8886 30.2724C34.3491 30.8177 33.9787 31.5073 33.8221 32.2582C33.1112 32.0557 32.3581 32.0542 31.6464 32.2538C30.9347 32.4533 30.2922 32.8462 29.7902 33.3888C29.2882 33.9314 28.9464 34.6024 28.8027 35.3275C28.659 36.0525 28.7189 36.8032 28.976 37.4963C28.895 37.5043 28.815 37.5153 28.735 37.5273C28.1105 37.6274 27.5186 37.8741 27.0079 38.2473C26.4973 38.6205 26.0824 39.1094 25.7973 39.674C25.5122 40.2386 25.3651 40.8627 25.368 41.4952C25.3709 42.1277 25.5237 42.7504 25.8139 43.3124C25.2642 43.4814 24.7574 43.7672 24.3284 44.1502C23.8993 44.5332 23.558 45.0043 23.3279 45.5314C22.964 46.3748 22.9053 47.3185 23.1619 48.2005C22.3623 49.1513 21.9494 50.368 22.005 51.6091C22.0605 52.8501 22.5806 54.025 23.4619 54.9006L23.4609 54.9046ZM24.2909 50.0695C24.3449 50.1195 24.4069 50.1575 24.4629 50.2045C24.5629 50.2885 24.6629 50.3755 24.7749 50.4495C24.9714 50.5834 25.1795 50.6992 25.3969 50.7955L29.359 52.5206C29.5373 52.5976 29.7207 52.6621 29.908 52.7136L29.097 53.5136C28.9704 53.6355 28.8332 53.746 28.687 53.8436C28.641 53.8746 28.595 53.9036 28.548 53.9316C28.4414 53.9957 28.3309 54.0528 28.217 54.1026C28.156 54.1286 28.096 54.1576 28.034 54.1796C27.9099 54.2246 27.7829 54.2613 27.654 54.2896C27.559 54.3096 27.463 54.3236 27.3659 54.3356C27.3149 54.3416 27.2659 54.3456 27.2129 54.3486C26.8269 54.3753 26.4393 54.3281 26.0709 54.2096H26.0509C25.6472 54.0766 25.2765 53.8591 24.9635 53.5715C24.6505 53.2839 24.4024 52.9329 24.2358 52.5418C24.0693 52.1508 23.988 51.7287 23.9975 51.3037C24.007 50.8788 24.107 50.4607 24.2909 50.0775V50.0695ZM51.1634 43.1994C52.1363 44.1074 52.78 45.3129 52.9934 46.6264L54.1215 53.5876C54.1595 53.8226 54.1832 54.0597 54.1925 54.2976C54.2502 55.7197 53.8024 57.1163 52.9284 58.2397C52.7829 58.4275 52.6259 58.6061 52.4584 58.7747C52.4334 58.7997 52.4104 58.8257 52.3874 58.8537L45.8283 67.0358C44.4724 68.7283 43.7319 70.8313 43.7283 72.9999C43.7283 73.2652 43.6229 73.5195 43.4354 73.7071C43.2478 73.8946 42.9935 74 42.7282 74H30.728C30.4628 74 30.2084 73.8946 30.0209 73.7071C29.8334 73.5195 29.728 73.2652 29.728 72.9999V69.4599C29.7215 67.853 29.3966 66.2633 28.772 64.7828C27.6932 62.0903 27.0387 59.2468 26.8319 56.3536C26.8449 56.3536 26.8579 56.3536 26.8699 56.3536C26.9129 56.3536 26.9549 56.3656 26.9979 56.3656C27.2053 56.3588 27.412 56.3394 27.617 56.3076C27.702 56.2976 27.788 56.2976 27.872 56.2836C28.1096 56.2376 28.3435 56.1745 28.572 56.0946C28.655 56.0676 28.742 56.0526 28.824 56.0216C29.0757 55.9188 29.3188 55.7961 29.551 55.6546C29.602 55.6236 29.658 55.6046 29.708 55.5726C29.9957 55.3901 30.2638 55.1783 30.508 54.9406L36.1151 49.4405C36.7559 49.2643 37.3411 48.9273 37.8151 48.4615C37.8331 48.4435 37.8511 48.4275 37.8681 48.4095C38.0184 48.2599 38.1572 48.0991 38.2832 47.9285C38.6071 47.4805 38.8334 46.9695 38.9472 46.4284C39.2573 46.4355 39.5672 46.4053 39.8702 46.3384C40.5971 47.0435 41.4705 47.5796 42.4282 47.9085L44.8093 48.8145C45.0693 48.9134 45.2973 49.0816 45.4685 49.3009C45.6397 49.5202 45.7475 49.7822 45.7803 50.0585C45.8171 50.4048 45.7363 50.7534 45.5509 51.0481C45.3655 51.3429 45.0863 51.5667 44.7583 51.6835C39.4052 53.6956 36.3711 57.1226 35.7401 61.8677C35.7196 61.9993 35.7256 62.1337 35.7577 62.263C35.7898 62.3923 35.8474 62.5138 35.9272 62.6205C36.0069 62.7272 36.1072 62.8169 36.2221 62.8843C36.3369 62.9517 36.4641 62.9955 36.5962 63.0131C36.7282 63.0306 36.8624 63.0217 36.9909 62.9867C37.1194 62.9517 37.2397 62.8914 37.3446 62.8093C37.4494 62.7272 37.5369 62.625 37.6017 62.5086C37.6666 62.3923 37.7075 62.2641 37.7221 62.1317C38.2562 58.1177 40.7882 55.3126 45.4623 53.5556C46.1394 53.3113 46.7254 52.8655 47.1417 52.2783C47.5579 51.6911 47.7845 50.9905 47.7908 50.2707C47.7971 49.5509 47.5829 48.8465 47.177 48.252C46.7711 47.6576 46.193 47.2016 45.5203 46.9455L43.1092 46.0284C42.2401 45.7272 41.4718 45.1902 40.8902 44.4774C40.7656 44.3252 40.6504 44.1656 40.5452 43.9994C40.4862 43.9084 40.4272 43.8184 40.3742 43.7234C40.2716 43.5346 40.1811 43.3396 40.1032 43.1394C40.0512 43.0094 39.9972 42.8804 39.9562 42.7474C39.9152 42.6144 39.8872 42.4994 39.8562 42.3734C39.8232 42.2244 39.8022 42.0734 39.7832 41.9234C39.7682 41.7934 39.7472 41.6644 39.7402 41.5334C39.7402 41.4954 39.7402 41.4554 39.7402 41.4164C39.7369 41.2315 39.7435 41.0465 39.7602 40.8623C39.7662 40.7983 39.7712 40.7343 39.7802 40.6623C39.7862 40.6123 39.7922 40.5623 39.8002 40.5103C39.8438 40.2293 39.9107 39.9523 40.0002 39.6823C40.0851 39.4352 40.2633 39.2312 40.4967 39.1138C40.7302 38.9964 41.0002 38.9751 41.2492 39.0543L49.1494 41.9654C49.8959 42.239 50.5806 42.6585 51.1634 43.1994V43.1994ZM48.1013 26.3831C48.4532 26.0312 48.7109 25.5964 48.8507 25.1188C48.9905 24.6412 49.0079 24.1361 48.9014 23.65C48.4882 21.6987 48.8194 19.6633 49.83 17.9437C50.8407 16.2241 52.4576 14.9444 54.3635 14.3558C55.4068 14.032 56.5068 13.9318 57.5915 14.0618L54.8075 16.9039C54.245 17.4665 53.9291 18.2294 53.9291 19.0249C53.9291 19.8204 54.245 20.5834 54.8075 21.146L57.6355 23.975C58.2075 24.5229 58.9694 24.8282 59.7615 24.8269C60.5535 24.8256 61.3144 24.5178 61.8846 23.968L64.6776 21.11C64.7969 22.1856 64.6969 23.2742 64.3836 24.31C63.8044 26.2274 62.5264 27.8575 60.8026 28.8775C59.0789 29.8975 57.035 30.2332 55.0755 29.8181C54.5882 29.7131 54.0823 29.7319 53.6041 29.8729C53.1259 30.0139 52.6908 30.2725 52.3384 30.6251L45.2383 37.6603C45.2313 37.6403 45.2173 37.6223 45.2103 37.6023C45.1182 37.3427 44.9988 37.0937 44.8543 36.8593V36.8533L42.0342 32.4002L48.1013 26.3831ZM36.6591 31.3992C37.1072 31.1156 37.6496 31.0217 38.167 31.1379C38.6844 31.2542 39.1344 31.5712 39.4182 32.0192L39.9102 32.7952L42.9102 37.5293L41.9232 37.1653C41.5508 37.0361 41.1564 36.9821 40.763 37.0065C40.3695 37.0308 39.9848 37.1331 39.6312 37.3073C39.5327 37.3607 39.4372 37.4195 39.3452 37.4833L35.7971 33.5342C35.7015 33.1329 35.7331 32.7117 35.8876 32.3292C36.042 31.9466 36.3117 31.6216 36.6591 31.3992V31.3992ZM31.314 34.6892C31.5028 34.5028 31.7266 34.3556 31.9725 34.256C32.2184 34.1565 32.4816 34.1065 32.7469 34.1091C33.0122 34.1117 33.2743 34.1668 33.5182 34.2712C33.7622 34.3755 33.983 34.5271 34.1681 34.7172L38.0921 39.0863C38.0411 39.2413 37.9921 39.4013 37.9521 39.5713C37.5524 41.1161 37.698 42.7515 38.3642 44.2014L32.9131 39.1173L31.313 37.5173C31.1272 37.3315 30.9798 37.111 30.8793 36.8683C30.7787 36.6256 30.7269 36.3655 30.7269 36.1028C30.7269 35.84 30.7787 35.5799 30.8793 35.3372C30.9798 35.0945 31.1272 34.874 31.313 34.6882L31.314 34.6892ZM27.747 40.2993C27.9009 40.0865 28.0953 39.9061 28.319 39.7684C28.5427 39.6307 28.7913 39.5384 29.0507 39.4968C29.31 39.4552 29.5751 39.4651 29.8306 39.5259C30.0862 39.5867 30.3272 39.6973 30.54 39.8513L31.581 40.6033L37.0281 45.6814C37.0281 45.6954 37.0281 45.7094 37.0281 45.7234C37.0041 46.093 36.877 46.4485 36.6611 46.7495C36.6546 46.756 36.6486 46.763 36.6431 46.7705C36.5764 46.8603 36.5021 46.9443 36.4211 47.0215C36.4141 47.0285 36.4051 47.0335 36.3981 47.0405C36.1265 47.2862 35.7931 47.4532 35.4336 47.5237C35.0742 47.5942 34.7024 47.5654 34.3581 47.4405L28.958 43.6404L28.205 43.0954C27.9909 42.9422 27.8093 42.7482 27.6703 42.5246C27.5314 42.301 27.438 42.0522 27.3955 41.7924C27.3529 41.5327 27.3621 41.2671 27.4224 41.0109C27.4827 40.7546 27.593 40.5128 27.747 40.2993V40.2993ZM25.1599 46.3294C25.3726 45.8438 25.7695 45.4626 26.2632 45.2694C26.757 45.0763 27.3072 45.0871 27.793 45.2994L27.881 45.3374L32.9341 48.8895C32.9377 49.1519 32.8887 49.4124 32.7901 49.6555C32.6853 49.8964 32.5341 50.1142 32.3451 50.2966C32.1561 50.4791 31.933 50.6225 31.6886 50.7187C31.4442 50.8149 31.1832 50.862 30.9206 50.8573C30.658 50.8527 30.3988 50.7963 30.158 50.6915L26.1959 48.9665C26.1839 48.9615 26.1729 48.9525 26.1609 48.9475C26.0455 48.8954 25.9354 48.8325 25.8319 48.7595C25.8199 48.7505 25.8099 48.7395 25.7989 48.7305C25.5427 48.5345 25.337 48.2801 25.1989 47.9885C25.1989 47.9825 25.1879 47.9785 25.1849 47.9725C25.1679 47.9355 25.1449 47.9025 25.1299 47.8645C25.033 47.6194 24.9857 47.3575 24.9908 47.0939C24.996 46.8304 25.0535 46.5706 25.1599 46.3294Z"
    fill="#2E79CA"/>
  <path
    d="M34.283 23.775C34.2236 23.8936 34.2137 24.0309 34.2555 24.1567C34.2973 24.2825 34.3874 24.3866 34.506 24.446L36.506 25.446C36.5648 25.4761 36.6289 25.4942 36.6947 25.4993C36.7605 25.5044 36.8266 25.4964 36.8893 25.4759C36.952 25.4553 37.01 25.4225 37.06 25.3794C37.11 25.3363 37.1509 25.2838 37.1805 25.2248C37.2101 25.1658 37.2276 25.1015 37.2323 25.0357C37.2369 24.9699 37.2284 24.9038 37.2073 24.8412C37.1863 24.7787 37.1531 24.7209 37.1096 24.6713C37.0661 24.6217 37.0132 24.5811 36.954 24.552L34.954 23.552C34.8354 23.4926 34.6981 23.4827 34.5723 23.5245C34.4464 23.5664 34.3424 23.6565 34.283 23.775Z"
    fill="#2E79CA"/>
  <path
    d="M37.7297 22.4987C37.8287 22.4989 37.9255 22.4697 38.0079 22.4148C38.0903 22.3598 38.1546 22.2817 38.1925 22.1902C38.2304 22.0987 38.2403 21.998 38.2209 21.9009C38.2016 21.8038 38.1538 21.7146 38.0837 21.6447L36.0837 19.6447C35.9898 19.5508 35.8624 19.498 35.7296 19.498C35.5969 19.498 35.4695 19.5508 35.3756 19.6447C35.2817 19.7386 35.229 19.8659 35.229 19.9987C35.229 20.1315 35.2817 20.2588 35.3756 20.3527L37.3757 22.3527C37.4222 22.3991 37.4774 22.4359 37.5381 22.461C37.5989 22.486 37.664 22.4989 37.7297 22.4987Z"
    fill="#2E79CA"/>
  <path
    d="M41.23 21.9991V20.999C41.23 20.8664 41.1773 20.7392 41.0836 20.6455C40.9898 20.5517 40.8626 20.499 40.73 20.499C40.5974 20.499 40.4702 20.5517 40.3764 20.6455C40.2827 20.7392 40.23 20.8664 40.23 20.999V21.9991C40.23 22.1317 40.2827 22.2588 40.3764 22.3526C40.4702 22.4464 40.5974 22.4991 40.73 22.4991C40.8626 22.4991 40.9898 22.4464 41.0836 22.3526C41.1773 22.2588 41.23 22.1317 41.23 21.9991Z"
    fill="#2E79CA"/>
</svg>
