<svg width="88" height="88" viewBox="0 0 88 88" fill="none" xmlns="http://www.w3.org/2000/svg">
  <rect width="88" height="88" fill="white"/>
  <path
    d="M65.6 48H47.2V46.4C47.2 45.0766 46.1234 44 44.8 44H36.8C35.4766 44 34.4 45.0766 34.4 46.4V50.4H30.4V47.9596C31.5327 47.7678 32.4 46.7865 32.4 45.6V44.8C32.4 43.6135 31.5327 42.6322 30.4 42.4404V40H37.6C38.0422 40 38.4 39.6422 38.4 39.2V15.2C38.4 13.4352 36.9648 12 35.2 12H19.2C17.4352 12 16 13.4352 16 15.2V39.2C16 39.6422 16.3578 40 16.8 40H24V42.4404C22.8673 42.6322 22 43.6135 22 44.8V45.6C22 46.7865 22.8673 47.7678 24 47.9596V50.4C22.2352 50.4 20.8 51.8352 20.8 53.6V64.8C20.8 66.5648 22.2352 68 24 68H34.4V72C34.4 73.3234 35.4766 74.4 36.8 74.4H44.8C46.1234 74.4 47.2 73.3234 47.2 72V70.4H48.8V73.2C48.8 74.7438 50.0562 76 51.6 76C53.1437 76 54.4 74.7438 54.4 73.2V70.4H60.8V73.2C60.8 74.7438 62.0562 76 63.6 76C65.1437 76 66.4 74.7438 66.4 73.2V70.3191C68.2234 69.9474 69.6 68.3315 69.6 66.4V52C69.6 49.7945 67.8055 48 65.6 48ZM17.6 15.2C17.6 14.318 18.318 13.6 19.2 13.6H35.2C36.082 13.6 36.8 14.318 36.8 15.2V35.2H17.6V15.2ZM17.6 38.4V36.8H36.8V38.4H29.6H24.8H17.6ZM28.8 40V42.4H25.6V40H28.8ZM23.6 45.6V44.8C23.6 44.3586 23.9586 44 24.4 44H24.8H29.6H30C30.4414 44 30.8 44.3586 30.8 44.8V45.6C30.8 46.0414 30.4414 46.4 30 46.4H29.6H24.8H24.4C23.9586 46.4 23.6 46.0414 23.6 45.6ZM28.8 48V50.4H25.6V48H28.8ZM34.4 66.4H24C23.118 66.4 22.4 65.682 22.4 64.8V53.6C22.4 52.718 23.118 52 24 52H24.8H29.6H34.4V66.4ZM45.6 48.8V69.6V72C45.6 72.4414 45.2414 72.8 44.8 72.8H36.8C36.3586 72.8 36 72.4414 36 72V67.2V51.2V46.4C36 45.9586 36.3586 45.6 36.8 45.6H44.8C45.2414 45.6 45.6 45.9586 45.6 46.4V48.8ZM52.8 73.2C52.8 73.8617 52.2617 74.4 51.6 74.4C50.9383 74.4 50.4 73.8617 50.4 73.2V70.4H52.8V73.2ZM64.8 73.2C64.8 73.8617 64.2617 74.4 63.6 74.4C62.9383 74.4 62.4 73.8617 62.4 73.2V70.4H64.8V73.2ZM65.6 68.8H61.6H53.6H49.6H47.2V66.4H68C68 67.7234 66.9234 68.8 65.6 68.8ZM68 64.8H47.2V63.2H68V64.8ZM68 61.6H47.2V60H68V61.6ZM68 58.4H47.2V56.8H68V58.4ZM68 55.2H47.2V53.6H68V55.2ZM47.2 52V49.6H65.6C66.9234 49.6 68 50.6766 68 52H47.2Z"
    fill="#2E79CA"/>
  <path
    d="M26.5148 19.5866C26.093 20.2804 22.3984 26.4366 22.3984 28.8015C22.3984 31.4483 24.5516 33.6015 27.1984 33.6015C29.8453 33.6015 31.9984 31.4483 31.9984 28.8015C31.9984 26.4366 28.3039 20.2804 27.882 19.5866C27.593 19.1085 26.8039 19.1085 26.5148 19.5866ZM27.1984 32.0015C25.4336 32.0015 23.9984 30.5663 23.9984 28.8015C23.9984 27.5616 25.7523 24.0983 27.1984 21.5772C28.6453 24.0983 30.3984 27.5608 30.3984 28.8015C30.3984 30.5663 28.9633 32.0015 27.1984 32.0015Z"
    fill="#2E79CA"/>
</svg>
