<svg width="64" height="65" viewBox="0 0 64 65" fill="none" xmlns="http://www.w3.org/2000/svg">
  <path
    d="M49.3187 40.5238C46.8962 38.1013 42.9596 38.1013 40.537 40.5238L36.3733 44.6875C33.2488 47.8121 27.3301 45.1555 23.0907 40.9161C18.8512 36.6767 16.2016 30.758 19.3192 27.6334L23.4829 23.4697C25.9055 21.0472 25.9055 17.1105 23.4829 14.688L16.291 7.4961C13.8685 5.07357 9.93187 5.07357 7.50934 7.4961L4.70828 10.2972C4.2747 10.7307 3.86177 11.2263 3.44884 11.7906C0.0903213 15.1629 -0.838776 20.1112 0.764778 26.0918C4.72893 40.8748 23.1251 59.2778 37.9149 63.242C39.8213 63.7512 41.6175 64.0059 43.2968 64.0059C46.8824 64.0059 49.9106 62.8428 52.2093 60.5579C52.7805 60.145 53.2691 59.732 53.7027 59.2985L56.5038 56.4974C58.9263 54.0749 58.9263 50.1382 56.5038 47.7157L49.3187 40.5238ZM55.0516 55.0315L52.2505 57.8325C51.8651 58.218 51.4247 58.5827 50.9016 58.9543C50.8191 59.0094 50.7434 59.0851 50.6883 59.1608C47.8253 61.955 43.7097 62.6501 38.4517 61.2461C24.5084 57.5091 6.49765 39.4984 2.76062 25.555C1.34976 20.297 2.05175 16.1883 4.83904 13.3253C4.92163 13.2634 4.99045 13.1877 5.05239 13.1051C5.42403 12.5821 5.78879 12.1416 6.17419 11.7562L8.97525 8.95513C10.5926 7.33781 13.2216 7.33781 14.832 8.95513L22.0239 16.147C22.8016 16.9247 23.2283 17.9639 23.2283 19.0789C23.2283 20.1938 22.8016 21.233 22.0239 22.0107L17.8602 26.1744C15.8781 28.1565 15.3688 30.9369 16.3805 34.2197C17.227 36.9382 19.0852 39.8356 21.6316 42.382C26.4423 47.1927 33.5654 50.4204 37.8323 46.1534L41.9961 41.9897C42.7738 41.212 43.813 40.7853 44.9279 40.7853C46.0428 40.7853 47.082 41.212 47.8597 41.9897L55.0516 49.1816C56.6689 50.7921 56.6689 53.4211 55.0516 55.0315Z"
    fill="white"/>
  <path
    d="M36.4765 8.90677C41.5005 8.87924 46.1666 10.7787 49.6972 14.3093C53.2278 17.8399 55.141 22.5335 55.0997 27.53C55.0928 28.1012 55.5539 28.5692 56.1252 28.5692H56.132C56.6964 28.5692 57.1575 28.115 57.1644 27.5438C57.2194 21.9898 55.0859 16.7662 51.1631 12.8434C47.2402 8.92054 42.0511 6.79393 36.4627 6.84211C35.8915 6.84899 35.4373 7.31698 35.4373 7.88132C35.4441 8.45943 35.919 8.94118 36.4765 8.90677Z"
    fill="white"/>
  <path
    d="M56.3044 7.70245C51.2735 2.67156 44.5702 -0.067556 37.454 0.00126606C36.8828 0.00814827 36.4286 0.476138 36.4286 1.04048C36.4355 1.60482 36.8966 2.06593 37.4609 2.06593H37.4678C44.061 2.01087 50.1999 4.52287 54.8385 9.16148C59.4771 13.8001 61.996 19.9665 61.934 26.5322C61.9272 27.1034 62.3883 27.5714 62.9595 27.5714H62.9664C63.5307 27.5714 63.9918 27.1172 63.9987 26.5459C64.0744 19.4297 61.3353 12.7333 56.3044 7.70245Z"
    fill="white"/>
  <path
    d="M34.7904 15.7547C38.5137 15.1628 42.3126 16.3878 44.9623 19.0375C47.6119 21.6871 48.837 25.493 48.2451 29.2094C48.1556 29.7737 48.541 30.3036 49.1054 30.3931C49.1604 30.4 49.2155 30.4069 49.2705 30.4069C49.7661 30.4069 50.2065 30.0421 50.2891 29.5397C50.9842 25.1695 49.539 20.6961 46.4282 17.5784C43.3106 14.4608 38.844 13.0224 34.4669 13.7175C33.9026 13.807 33.5172 14.3369 33.6067 14.9013C33.703 15.4587 34.2329 15.8441 34.7904 15.7547Z"
    fill="white"/>
</svg>
