<svg width="88" height="88" viewBox="0 0 88 88" fill="none" xmlns="http://www.w3.org/2000/svg">
  <rect width="88" height="88" fill="white"/>
  <path
    d="M12.8852 76H75.1148C75.6459 76 76 75.6454 76 75.1136V12.8864C76 12.3546 75.6459 12 75.1148 12H12.8852C12.3541 12 12 12.3546 12 12.8864V75.2022C12 75.6454 12.3541 76 12.8852 76ZM13.7704 13.7729H74.2296V74.3158H13.7704V13.7729Z"
    fill="#2E79CA"/>
  <path
    d="M69.4494 17.5825H18.4619C17.9307 17.5825 17.5767 17.9371 17.5767 18.4689V69.5271C17.5767 70.059 17.9307 70.4135 18.4619 70.4135H69.4494C69.9805 70.4135 70.3346 70.059 70.3346 69.5271V18.4689C70.3346 18.0257 69.892 17.5825 69.4494 17.5825ZM59.7122 68.6407H52.8076C52.8076 66.5133 53.0732 65.3609 53.2502 64.2085C53.3388 63.588 53.5158 62.9676 53.6043 62.2584C53.7813 62.2584 53.9584 62.1698 54.1354 62.1698C55.3747 61.9038 56.5255 61.7266 59.004 61.7266C59.6237 61.7266 60.1548 61.7266 60.5974 61.7266C60.5089 62.5243 60.4204 63.2335 60.2433 63.854C59.9778 65.095 59.8007 66.336 59.7122 68.6407ZM27.4909 62.7016C27.9335 62.7016 28.3761 62.7016 28.8187 62.7016C31.3858 62.7016 32.7136 62.4357 34.0414 62.1698C34.2184 62.1698 34.3069 62.0811 34.484 62.0811C34.3955 62.7016 34.3069 63.3221 34.2184 63.854C33.9529 65.095 33.7758 66.336 33.6873 68.6407H26.7827C26.7827 66.5133 27.0483 65.3609 27.2253 64.2085C27.3139 63.7653 27.4024 63.2335 27.4909 62.7016ZM27.7565 19.3554H34.661C34.661 21.3942 34.3955 22.4579 34.2184 23.6102C34.1299 24.2307 33.9529 24.8512 33.8643 25.5604H33.7758C32.5365 25.8263 31.3858 26.0036 28.9072 26.0036C28.1105 26.0036 27.4909 26.0036 26.9598 25.9149C27.0483 25.1171 27.1368 24.4966 27.3139 23.8761C27.4909 22.8124 27.7565 21.5714 27.7565 19.3554ZM59.9778 25.1171C59.7122 25.1171 59.3581 25.1171 59.004 25.1171C56.437 25.1171 55.1092 25.3831 53.7814 25.649C53.5158 25.7376 53.2502 25.7376 52.9847 25.8263C53.0732 25.1171 53.1617 24.5853 53.3388 23.9648C53.6043 22.8124 53.7814 21.5714 53.8699 19.3554H60.7744C60.7744 21.3942 60.5089 22.4579 60.3318 23.6102C60.1548 24.1421 60.0663 24.5853 59.9778 25.1171ZM51.5684 54.1919C51.8339 55.4329 52.011 56.5853 52.011 59.0673C52.011 59.7764 52.011 60.3083 51.9224 60.8401C51.1258 60.9288 50.2406 61.0174 48.9128 61.0174C47.1424 61.0174 45.9916 60.9288 45.0179 60.7515C45.0179 60.3083 45.0179 59.7764 45.0179 59.1559C45.0179 56.5853 44.7523 55.2556 44.4867 53.926C44.4867 53.8374 44.4867 53.8374 44.4867 53.7487C45.549 53.926 46.7883 54.1033 48.9128 54.1033C49.975 54.1033 50.7717 54.1033 51.4798 54.0146C51.5684 54.0146 51.5684 54.1033 51.5684 54.1919ZM35.9003 53.8374C35.9003 53.6601 35.8118 53.3941 35.8118 53.2169C36.6085 53.1282 37.5822 53.0396 38.91 53.0396C40.6804 53.0396 41.7426 53.1282 42.7163 53.3055C42.8049 53.5714 42.8049 53.926 42.8934 54.1919C43.1589 55.4329 43.336 56.5853 43.336 59.0673C43.336 59.5105 43.336 59.9537 43.336 60.3083C42.2737 60.131 41.0345 59.9537 38.91 59.9537C37.9363 59.9537 37.1396 59.9537 36.4314 60.0423C36.4314 59.6878 36.4314 59.4218 36.4314 59.0673C36.4314 56.408 36.1659 55.0784 35.9003 53.8374ZM26.9598 52.1531C26.8713 51.3554 26.7827 50.3803 26.7827 48.962C26.7827 47.2778 26.8713 46.2141 27.0483 45.239C27.5794 45.239 28.1991 45.3277 28.9072 45.3277C31.4743 45.3277 32.8021 45.0617 34.0414 44.7958C33.8643 45.8595 33.6873 47.0119 33.6873 48.962C33.6873 50.1144 33.7758 51.0008 33.7758 51.7099H33.6873C32.448 51.9759 31.2973 52.1531 28.8187 52.1531C28.1105 52.2418 27.4909 52.2418 26.9598 52.1531ZM35.9003 33.7155C35.6347 32.4745 35.4577 31.3221 35.4577 28.8401C35.4577 28.2196 35.4577 27.5991 35.5462 27.1559C36.4314 27.0673 37.4937 26.89 38.9985 26.89C40.5919 26.89 41.5656 26.9786 42.4508 27.1559C42.4508 27.6878 42.3623 28.2196 42.3623 28.8401C42.3623 31.4108 42.6278 32.7404 42.8934 34.07V34.1587C41.9197 33.9814 40.7689 33.8928 38.91 33.8928C37.6707 33.8928 36.7855 33.9814 35.9888 34.07C35.9888 33.8928 35.9888 33.8041 35.9003 33.7155ZM51.5684 34.07C51.5684 34.2473 51.6569 34.5133 51.6569 34.6905C50.9487 34.7792 50.0635 34.8678 48.9128 34.8678C46.8768 34.8678 45.726 34.6905 44.6638 34.5133C44.5753 34.2473 44.5753 33.9814 44.4867 33.7155C44.2212 32.4745 44.0441 31.3221 44.0441 28.8401C44.0441 28.3083 44.0441 27.8651 44.0441 27.4219C45.1949 27.6878 46.5227 27.8651 48.8242 27.8651C49.6209 27.8651 50.3291 27.8651 50.9487 27.7764C50.9487 28.131 50.9487 28.3969 50.9487 28.7515C51.0372 31.4994 51.3028 32.7404 51.5684 34.07ZM60.5089 35.6656C60.5974 36.4634 60.6859 37.5271 60.6859 38.9454C60.6859 40.6296 60.5974 41.6933 60.4204 42.5797C59.9778 42.5797 59.5352 42.5797 58.9155 42.5797C56.3484 42.5797 55.0206 42.8457 53.6928 43.1116C53.6043 43.1116 53.5158 43.1116 53.3388 43.2002C53.5158 42.1365 53.6928 40.8955 53.6928 38.9454C53.6928 37.793 53.6043 36.9953 53.6043 36.1975C53.7813 36.1975 53.9584 36.1088 54.0469 36.1088C55.2862 35.8429 56.437 35.6656 58.9155 35.6656C59.6237 35.577 60.0663 35.6656 60.5089 35.6656ZM62.3678 35.8429C62.8989 35.9315 63.43 36.0202 63.8726 36.1088C65.0234 36.3748 66.2627 36.552 68.5642 36.6407V43.5548C66.4397 43.5548 65.3775 43.2889 64.2267 43.1116C63.6071 43.023 62.9874 42.8457 62.2793 42.757C62.4563 41.782 62.5448 40.6296 62.5448 38.9454C62.5448 37.6158 62.4563 36.6407 62.3678 35.8429ZM52.011 38.9454C52.011 41.1615 51.8339 42.3138 51.5684 43.4662C50.8602 43.5548 49.975 43.5548 48.9128 43.5548C46.9653 43.5548 45.8145 43.3775 44.7523 43.2002C44.9293 42.1365 45.1064 40.8955 45.1064 38.9454C45.1064 37.8817 45.1064 37.0839 45.0179 36.3748C45.9916 36.552 47.1423 36.6407 49.0013 36.6407C50.2405 36.6407 51.2143 36.552 52.011 36.4634C52.011 37.1725 52.011 37.8817 52.011 38.9454ZM38.91 35.577C40.9459 35.577 42.0967 35.7543 43.1589 35.9315C43.2475 36.7293 43.336 37.6158 43.336 38.8568C43.336 40.7182 43.1589 41.782 42.9819 42.757C42.0082 42.5797 40.7689 42.4025 38.8215 42.4025C37.6707 42.4025 36.7855 42.4911 36.0773 42.4911C36.2544 41.516 36.3429 40.3637 36.3429 38.7681C36.3429 37.4385 36.2544 36.4634 36.1659 35.577C36.9625 35.6656 37.8477 35.577 38.91 35.577ZM34.661 38.9454C34.661 40.8069 34.484 41.9592 34.3069 42.9343C34.1299 42.9343 33.8643 43.023 33.6873 43.023C32.448 43.2889 31.2973 43.4662 28.8187 43.4662C28.2876 43.4662 27.7565 43.4662 27.3139 43.4662C27.4909 42.3138 27.7565 41.0728 27.7565 38.8568C27.7565 37.9703 27.7565 37.1725 27.6679 36.552C28.022 36.552 28.4646 36.552 28.9072 36.552C31.4743 36.552 32.8021 36.2861 34.1299 36.0202C34.3069 36.0202 34.3955 35.9315 34.5725 35.9315C34.661 36.7293 34.661 37.7044 34.661 38.9454ZM25.9861 38.9454C25.9861 41.0728 25.809 42.2252 25.5435 43.3775C25.0123 43.2889 24.4812 43.2002 23.9501 43.1116C22.7993 42.8457 21.5601 42.6684 19.2585 42.5797V35.6656C21.383 35.6656 22.4453 35.9315 23.596 36.1088C24.2157 36.1975 24.9238 36.3748 25.809 36.4634C25.9861 37.1725 25.9861 37.8817 25.9861 38.9454ZM19.3471 44.3526C21.4715 44.3526 22.5338 44.6185 23.6845 44.7958C24.2157 44.8845 24.6583 44.9731 25.2779 45.0617C25.1009 46.0368 25.0123 47.1892 25.0123 48.962C25.0123 50.203 25.1009 51.1781 25.1894 51.9759C24.8353 51.8872 24.4812 51.7986 24.1271 51.7986C22.9764 51.5326 21.7371 51.3554 19.4356 51.2667V44.3526H19.3471ZM35.4577 48.962C35.4577 46.7459 35.6347 45.5936 35.9003 44.5299C36.697 44.4412 37.6707 44.3526 38.9985 44.3526C40.7689 44.3526 41.8311 44.4412 42.8049 44.6185C42.6278 45.6822 42.4508 46.9232 42.4508 48.962C42.4508 49.9371 42.4508 50.7349 42.5393 51.444C41.6541 51.3554 40.5919 51.1781 38.9985 51.1781C37.5822 51.1781 36.5199 51.2667 35.6347 51.3554C35.4577 50.7349 35.4577 49.9371 35.4577 48.962ZM49.0013 52.2418C46.6997 52.2418 45.4605 52.0645 44.3097 51.7986C44.2212 51.0894 44.1327 50.203 44.1327 48.962C44.1327 47.1005 44.3097 45.9482 44.4867 44.8845C45.549 45.0617 46.8768 45.239 49.0013 45.239C49.8865 45.239 50.6831 45.239 51.3028 45.1504C51.1257 46.1254 51.0372 47.1892 51.0372 48.8734C51.0372 50.203 51.1258 51.2667 51.2143 52.0645C50.5946 52.2418 49.8865 52.2418 49.0013 52.2418ZM52.8076 48.962C52.8076 47.1005 52.9847 45.9482 53.1617 44.9731C53.5158 44.8845 53.8699 44.8845 54.224 44.7958C55.4632 44.5299 56.614 44.3526 59.0926 44.3526C59.5352 44.3526 59.8892 44.3526 60.2433 44.3526C60.0663 45.505 59.8007 46.7459 59.8007 48.962C59.8007 49.8484 59.8007 50.5576 59.8892 51.2667C59.6237 51.2667 59.3581 51.2667 59.0926 51.2667C56.5255 51.2667 55.1977 51.5326 53.8699 51.7986C53.6043 51.8872 53.3387 51.8872 53.0732 51.9759C52.8961 51.1781 52.8076 50.203 52.8076 48.962ZM61.4826 48.962C61.4826 46.7459 61.6596 45.5936 61.9252 44.4412C62.6334 44.5299 63.253 44.6185 63.8726 44.7958C65.0234 45.0617 66.2627 45.239 68.5642 45.3277V52.2418C66.4397 52.2418 65.3775 51.9759 64.2267 51.7986C63.43 51.6213 62.7219 51.5326 61.6596 51.3554C61.5711 50.7349 61.4826 49.9371 61.4826 48.962ZM68.5642 34.8678C66.4397 34.8678 65.3775 34.6019 64.2267 34.4246C63.6071 34.336 62.8989 34.1587 62.1022 34.07C62.1022 33.9814 62.1022 33.8928 62.0137 33.8041C61.7482 32.5631 61.5711 31.4108 61.5711 28.9288C61.5711 28.2196 61.5711 27.5991 61.6596 27.0673C62.5448 27.1559 63.253 27.3332 63.9612 27.4219C65.1119 27.6878 66.3512 27.8651 68.6527 27.9537V34.8678H68.5642ZM60.2433 33.8928C59.8892 33.8928 59.4466 33.8928 59.004 33.8928C56.437 33.8928 55.1092 34.1587 53.7814 34.4246C53.6928 34.4246 53.5158 34.5133 53.4273 34.5133C53.3388 34.2473 53.3388 33.9814 53.2502 33.8041C52.9847 32.5631 52.8076 31.4108 52.8076 28.9288C52.8076 28.4856 52.8076 28.131 52.8076 27.6878C53.2502 27.5991 53.6928 27.5105 54.1354 27.4219C55.3747 27.1559 56.5255 26.9786 59.004 26.9786C59.2696 26.9786 59.5352 26.9786 59.8007 26.9786C59.8007 27.5105 59.7122 28.131 59.7122 28.9288C59.7122 31.3221 59.9778 32.6518 60.2433 33.8928ZM51.5684 23.6989C51.3913 24.408 51.3028 25.1171 51.2143 26.0922C50.5946 26.1809 49.8865 26.1809 49.0013 26.1809C46.6997 26.1809 45.549 26.0036 44.3097 25.7376C44.3982 25.1171 44.4867 24.5853 44.5753 24.0534C44.8408 22.9011 45.0179 21.6601 45.1064 19.444H52.011C52.011 21.3942 51.8339 22.5465 51.5684 23.6989ZM42.8934 23.6989C42.8049 24.2307 42.7163 24.7626 42.6278 25.3831C41.7426 25.2058 40.5919 25.1171 38.9985 25.1171C37.5822 25.1171 36.6085 25.2058 35.7233 25.2944C35.8118 24.8512 35.9003 24.408 35.9888 23.9648C36.2544 22.8124 36.4314 21.5714 36.5199 19.3554H43.4245C43.336 21.3942 43.0704 22.5465 42.8934 23.6989ZM28.9072 27.9537C31.2087 27.9537 32.5365 27.7764 33.6873 27.5105C33.6873 27.9537 33.6873 28.3969 33.6873 28.9288C33.6873 31.4994 33.9529 32.8291 34.2184 34.1587C34.2184 34.2473 34.2184 34.336 34.2184 34.336C34.0414 34.336 33.8643 34.4246 33.6873 34.4246C32.448 34.6905 31.2973 34.8678 28.8187 34.8678C28.2876 34.8678 27.845 34.8678 27.4024 34.8678C27.3139 34.5133 27.2253 34.1587 27.2253 33.8041C26.9598 32.5631 26.7827 31.4108 26.7827 28.9288C26.7827 28.5742 26.7827 28.2196 26.7827 27.9537C27.4024 27.8651 28.1105 27.9537 28.9072 27.9537ZM25.5435 34.07C25.5435 34.2473 25.632 34.4246 25.632 34.6905C25.1009 34.6019 24.5697 34.5133 24.0386 34.4246C22.8879 34.1587 21.6486 33.9814 19.3471 33.8928V26.9786C21.4715 26.9786 22.5338 27.2446 23.6845 27.4219C24.1271 27.5105 24.5697 27.5991 25.0123 27.6878C25.0123 28.0424 25.0123 28.4856 25.0123 28.9288C25.0123 31.4994 25.2779 32.7404 25.5435 34.07ZM19.3471 53.0396C21.4715 53.0396 22.5338 53.3055 23.6845 53.4828C24.2157 53.5714 24.7468 53.6601 25.4549 53.7487C25.4549 53.8374 25.5435 54.0146 25.5435 54.1033C25.809 55.3443 25.9861 56.4966 25.9861 58.9786C25.9861 59.6878 25.9861 60.2196 25.8975 60.7515C25.1894 60.6628 24.5697 60.5742 23.9501 60.3969C22.7993 60.131 21.5601 59.9537 19.2585 59.8651V53.0396H19.3471ZM27.3139 54.0146C27.7565 54.0146 28.2876 54.0146 28.9072 54.0146C31.4743 54.0146 32.8021 53.7487 34.0414 53.4828C34.0414 53.7487 34.1299 53.926 34.1299 54.1919C34.3955 55.4329 34.5725 56.5853 34.5725 59.0673C34.5725 59.5105 34.5725 59.9537 34.5725 60.3083C34.2184 60.3969 33.9529 60.3969 33.6873 60.4856C32.448 60.7515 31.2973 60.9288 28.8187 60.9288C28.3761 60.9288 28.022 60.9288 27.6679 60.9288C27.6679 60.3969 27.7565 59.7764 27.7565 59.0673C27.7565 56.4966 27.4909 55.167 27.3139 54.0146ZM35.9003 64.2085C36.0773 63.4994 36.1659 62.7903 36.2544 61.8152C36.9625 61.7266 37.7592 61.7266 38.91 61.7266C40.9459 61.7266 42.0967 61.9038 43.1589 62.0811C43.0704 62.7903 42.9819 63.3221 42.8049 63.854C42.5393 65.095 42.3623 66.336 42.2737 68.6407H35.3692C35.4577 66.5133 35.7233 65.3609 35.9003 64.2085ZM44.5753 64.2085C44.6638 63.6767 44.8408 63.0562 44.9293 62.4357C45.9031 62.613 47.1423 62.7016 49.0013 62.7016C50.152 62.7016 51.0372 62.613 51.8339 62.5243C51.7454 62.9675 51.6569 63.4108 51.5684 63.854C51.3028 65.095 51.1258 66.336 51.0372 68.6407H44.1327C44.1327 66.5133 44.3982 65.3609 44.5753 64.2085ZM59.004 59.9537C56.437 59.9537 55.1092 60.2196 53.7814 60.4856C53.7814 60.0423 53.7814 59.5991 53.7814 59.0673C53.7814 56.4966 53.5158 55.167 53.2502 53.8374C53.2502 53.7487 53.2502 53.7487 53.2502 53.6601C53.5158 53.5714 53.8699 53.5714 54.1354 53.4828C55.3747 53.2169 56.5255 53.0396 59.004 53.0396C59.3581 53.0396 59.7122 53.0396 60.0663 53.0396C60.1548 53.4828 60.2433 53.8374 60.2433 54.1919C60.5089 55.4329 60.6859 56.5853 60.6859 59.0673C60.6859 59.4218 60.6859 59.6878 60.6859 60.0423C60.2433 59.9537 59.6237 59.9537 59.004 59.9537ZM62.0137 53.8374C62.0137 53.6601 61.9252 53.3941 61.9252 53.2169C62.7219 53.3055 63.253 53.3941 63.9612 53.5714C65.1119 53.8374 66.3512 54.0146 68.6527 54.1033V61.0174C66.5282 61.0174 65.466 60.7515 64.3152 60.5742C63.7841 60.4856 63.253 60.3969 62.6334 60.3083C62.6334 59.9537 62.6334 59.5991 62.6334 59.1559C62.5448 56.408 62.2793 55.0784 62.0137 53.8374ZM68.5642 26.1809C66.4397 26.1809 65.3775 25.9149 64.2267 25.7376C63.5186 25.5604 62.7219 25.4717 61.7482 25.3831C61.8367 24.9399 61.9252 24.4966 62.0137 24.1421C62.2793 22.9897 62.4563 21.7487 62.5448 19.5327H68.5642V26.1809V26.1809ZM25.9861 19.3554C25.9861 21.3942 25.7205 22.4579 25.5435 23.6102C25.3664 24.3194 25.2779 24.9399 25.1894 25.8263C24.8353 25.7376 24.4812 25.649 24.1271 25.649C22.9764 25.3831 21.7371 25.2058 19.4356 25.1171V19.3554H25.9861ZM19.3471 61.7266C21.4715 61.7266 22.5338 61.9925 23.6845 62.1698C24.3042 62.2584 24.9238 62.4357 25.7205 62.5243C25.632 62.9675 25.5435 63.4108 25.4549 63.854C25.2779 65.095 25.0123 66.336 25.0123 68.6407H19.3471V61.7266ZM61.4826 68.6407C61.4826 66.5133 61.7482 65.3609 61.9252 64.2085C62.1022 63.4994 62.1908 62.7903 62.2793 61.9038C62.8104 61.9925 63.253 62.0811 63.7841 62.1698C64.9349 62.4357 66.1742 62.613 68.4757 62.7016V68.6407H61.4826Z"
    fill="#2E79CA"/>
</svg>
