<svg width="24" height="25" viewBox="0 0 24 25" fill="none" xmlns="http://www.w3.org/2000/svg">
  <g clip-path="url(#clip0)">
    <path
      d="M3.5 22.516H0.5C0.367392 22.516 0.240215 22.4633 0.146447 22.3695C0.0526784 22.2757 0 22.1486 0 22.016V13.016C2.15559e-05 12.9479 0.0139501 12.8805 0.0409318 12.818C0.0679134 12.7555 0.107379 12.6991 0.15691 12.6524C0.206441 12.6057 0.264993 12.5696 0.328976 12.5463C0.392959 12.523 0.461025 12.513 0.529 12.517C1.559 12.578 4.986 12.841 5.843 13.653C5.89768 13.7048 5.93993 13.7683 5.9666 13.8388C5.99327 13.9093 6.00366 13.9849 5.997 14.06C5.77 16.66 4.048 21.948 3.975 22.172C3.94201 22.2719 3.87836 22.359 3.7931 22.4207C3.70783 22.4825 3.60528 22.5158 3.5 22.516ZM1 21.516H3.135C3.507 20.342 4.706 16.451 4.972 14.261C4.341 13.955 2.606 13.679 1 13.552V21.516Z"
      fill="#17154B"/>
    <path
      d="M13.396 24.4841C12.745 24.4841 12.164 24.3001 11.324 23.9831L3.84203 21.4901C3.77805 21.4707 3.71861 21.4387 3.66722 21.3959C3.61583 21.3532 3.57354 21.3005 3.54285 21.2411C3.51216 21.1817 3.4937 21.1168 3.48855 21.0501C3.4834 20.9835 3.49167 20.9165 3.51287 20.8531C3.53407 20.7897 3.56777 20.7311 3.61198 20.681C3.65619 20.6308 3.71001 20.5901 3.77026 20.5611C3.8305 20.5321 3.89595 20.5155 3.96272 20.5122C4.0295 20.509 4.09625 20.5191 4.15903 20.5421L11.659 23.0421C13.46 23.7221 13.607 23.7781 17.811 22.0541L22.768 19.8001C22.4932 19.468 22.1298 19.2206 21.72 19.0868C21.3102 18.953 20.8709 18.9382 20.453 19.0441L16.621 20.0001C16.5573 20.0163 16.4911 20.0197 16.4261 20.0101C16.361 20.0005 16.2986 19.9781 16.2422 19.9443C16.1859 19.9105 16.1368 19.8658 16.0978 19.8129C16.0588 19.76 16.0307 19.6999 16.015 19.6361C15.9833 19.5075 16.0037 19.3716 16.0719 19.258C16.1401 19.1444 16.2506 19.0625 16.379 19.0301L20.21 18.0721C20.9356 17.887 21.7027 17.9567 22.383 18.2697C23.0633 18.5826 23.6155 19.1197 23.947 19.7911C23.9768 19.8514 23.9942 19.9169 23.9982 19.984C24.0022 20.0511 23.9926 20.1183 23.9701 20.1816C23.9477 20.2449 23.9127 20.3031 23.8673 20.3526C23.822 20.4022 23.7671 20.4422 23.706 20.4701L18.206 22.9701C15.598 24.0411 14.41 24.4841 13.396 24.4841Z"
      fill="#17154B"/>
    <path
      d="M14.427 20.441C14.197 20.441 13.967 20.419 13.741 20.374L9.40203 19.506C9.33552 19.4955 9.27182 19.4717 9.21475 19.4359C9.15768 19.4002 9.10842 19.3533 9.06991 19.2981C9.0314 19.2429 9.00445 19.1804 8.99066 19.1145C8.97687 19.0486 8.97654 18.9806 8.98968 18.9146C9.00282 18.8485 9.02916 18.7858 9.06713 18.7302C9.10509 18.6746 9.1539 18.6272 9.21061 18.591C9.26733 18.5547 9.33079 18.5302 9.39719 18.5191C9.46359 18.5079 9.53156 18.5103 9.59703 18.526L13.936 19.394C14.297 19.466 14.677 19.457 15.033 19.368L15.993 19.128C15.932 18.215 15.486 17.778 14.379 17.502L5.39203 15.505C5.26247 15.4762 5.14965 15.3972 5.07839 15.2852C5.00712 15.1733 4.98325 15.0376 5.01203 14.908C5.0408 14.7785 5.11987 14.6656 5.23183 14.5944C5.34379 14.5231 5.47947 14.4992 5.60903 14.528L14.609 16.528C16.267 16.942 17 17.814 17 19.358V19.516C17 19.6276 16.9627 19.7359 16.894 19.8238C16.8253 19.9116 16.7292 19.974 16.621 20.001L15.275 20.337C14.9977 20.4061 14.7129 20.4411 14.427 20.441Z"
      fill="#17154B"/>
    <path
      d="M14.5 15.5161C14.3674 15.5161 14.2402 15.4634 14.1464 15.3697C14.0527 15.2759 14 15.1487 14 15.0161V1.01611C14 0.883505 14.0527 0.756328 14.1464 0.66256C14.2402 0.568792 14.3674 0.516113 14.5 0.516113C14.6326 0.516113 14.7598 0.568792 14.8536 0.66256C14.9473 0.756328 15 0.883505 15 1.01611V15.0161C15 15.1487 14.9473 15.2759 14.8536 15.3697C14.7598 15.4634 14.6326 15.5161 14.5 15.5161Z"
      fill="#17154B"/>
    <path
      d="M23.5 10.5161H5.5C5.36739 10.5161 5.24021 10.4634 5.14645 10.3697C5.05268 10.2759 5 10.1487 5 10.0161C5 9.88351 5.05268 9.75633 5.14645 9.66256C5.24021 9.56879 5.36739 9.51611 5.5 9.51611H23.5C23.6326 9.51611 23.7598 9.56879 23.8536 9.66256C23.9473 9.75633 24 9.88351 24 10.0161C24 10.1487 23.9473 10.2759 23.8536 10.3697C23.7598 10.4634 23.6326 10.5161 23.5 10.5161Z"
      fill="#17154B"/>
    <path
      d="M22 5.51611H7C6.86739 5.51611 6.74021 5.46344 6.64645 5.36967C6.55268 5.2759 6.5 5.14872 6.5 5.01611C6.5 4.88351 6.55268 4.75633 6.64645 4.66256C6.74021 4.56879 6.86739 4.51611 7 4.51611H22C22.1326 4.51611 22.2598 4.56879 22.3536 4.66256C22.4473 4.75633 22.5 4.88351 22.5 5.01611C22.5 5.14872 22.4473 5.2759 22.3536 5.36967C22.2598 5.46344 22.1326 5.51611 22 5.51611Z"
      fill="#17154B"/>
    <path
      d="M22 15.5161H14.5C14.3674 15.5161 14.2402 15.4634 14.1464 15.3697C14.0527 15.2759 14 15.1487 14 15.0161C14 14.8835 14.0527 14.7563 14.1464 14.6626C14.2402 14.5688 14.3674 14.5161 14.5 14.5161H22C22.1326 14.5161 22.2598 14.5688 22.3536 14.6626C22.4473 14.7563 22.5 14.8835 22.5 15.0161C22.5 15.1487 22.4473 15.2759 22.3536 15.3697C22.2598 15.4634 22.1326 15.5161 22 15.5161Z"
      fill="#17154B"/>
    <path
      d="M20.748 16.9851C20.6483 16.9851 20.5509 16.9553 20.4683 16.8996C20.3857 16.8438 20.3216 16.7646 20.2843 16.6722C20.247 16.5798 20.2382 16.4783 20.259 16.3808C20.2798 16.2833 20.3292 16.1943 20.401 16.1251C21.2255 15.3358 21.8811 14.3872 22.328 13.3369C22.7749 12.2866 23.0039 11.1565 23.001 10.0151C23.001 5.32811 19.188 1.51511 14.501 1.51511C9.814 1.51511 6 5.32911 6 10.0161C6 10.5991 6.062 11.1871 6.182 11.7641C6.19546 11.8284 6.19613 11.8947 6.18396 11.9592C6.1718 12.0238 6.14704 12.0853 6.11111 12.1403C6.07517 12.1952 6.02876 12.2426 5.97452 12.2796C5.92028 12.3167 5.85928 12.3427 5.795 12.3561C5.73072 12.3696 5.66441 12.3702 5.59987 12.3581C5.53533 12.3459 5.47382 12.3212 5.41885 12.2852C5.36388 12.2493 5.31652 12.2029 5.27949 12.1486C5.24245 12.0944 5.21646 12.0334 5.203 11.9691C5.06833 11.3268 5.0003 10.6724 5 10.0161C5 4.77811 9.262 0.516113 14.5 0.516113C19.738 0.516113 24 4.77811 24 10.0161C24.0037 11.2917 23.7481 12.5548 23.2489 13.7287C22.7498 14.9026 22.0173 15.9628 21.096 16.8451C21.0023 16.9347 20.8777 16.9849 20.748 16.9851Z"
      fill="#17154B"/>
    <path
      d="M17.758 17.3341C17.6682 17.3339 17.5802 17.3095 17.5031 17.2636C17.426 17.2176 17.3627 17.1517 17.3199 17.0729C17.277 16.994 17.2562 16.9051 17.2595 16.8154C17.2629 16.7257 17.2903 16.6385 17.339 16.5631C18.395 14.9261 19 12.5401 19 10.0161C19 5.40911 16.939 1.51611 14.5 1.51611C12.061 1.51611 9.99999 5.40811 9.99999 10.0161C9.99999 11.3471 10.167 12.6331 10.496 13.8391C10.5309 13.9671 10.5135 14.1037 10.4476 14.2188C10.4151 14.2758 10.3716 14.3259 10.3196 14.3661C10.2677 14.4063 10.2083 14.4358 10.145 14.4531C10.017 14.488 9.88044 14.4706 9.76529 14.4048C9.65014 14.339 9.56586 14.2301 9.53099 14.1021C9.17341 12.7697 8.99484 11.3956 8.99999 10.0161C8.99999 4.68911 11.416 0.516113 14.5 0.516113C17.584 0.516113 20 4.68911 20 10.0161C20 12.7271 19.336 15.3111 18.178 17.1051C18.1327 17.1753 18.0705 17.2331 17.9972 17.2731C17.9238 17.3131 17.8416 17.3341 17.758 17.3341Z"
      fill="#17154B"/>
  </g>
  <defs>
    <clipPath id="clip0">
      <rect width="24" height="24" fill="white" transform="translate(0 0.5)"/>
    </clipPath>
  </defs>
</svg>
