<svg width="58" height="58" viewBox="0 0 58 58" fill="none" xmlns="http://www.w3.org/2000/svg">
  <g clip-path="url(#clip0)">
    <path
      d="M29.2369 0.000592589C45.0265 0.00059397 57.8715 12.8456 57.8715 28.6351C57.8715 29.9523 56.8024 31.0213 55.4853 31.0213C54.1681 31.0213 53.099 29.9523 53.099 28.6351C53.099 15.4776 42.3945 4.77302 29.2369 4.77302C16.0794 4.77301 5.37483 15.4776 5.37483 28.6351C5.37483 41.7927 16.0794 52.4972 29.2369 52.4972C30.5541 52.4972 31.6231 53.5663 31.6231 54.8834C31.6231 56.2006 30.5541 57.2697 29.2369 57.2697C13.4474 57.2696 0.602403 44.4247 0.602404 28.6351C0.602406 12.8456 13.4474 0.000591209 29.2369 0.000592589ZM55.4853 26.2489C56.1057 26.2489 56.7261 26.5114 57.1795 26.9409C57.609 27.3943 57.8715 28.0147 57.8715 28.6351C57.8715 29.2555 57.609 29.876 57.1795 30.3293C56.2727 31.2122 54.6978 31.2122 53.791 30.3293C53.3615 29.876 53.099 29.2555 53.099 28.6351C53.099 28.0147 53.3615 27.3943 53.791 26.9409C54.2444 26.5114 54.8648 26.2489 55.4853 26.2489ZM54.4115 36.4858C55.6284 36.9869 56.2011 38.3709 55.7 39.5878C55.1989 40.8048 53.791 41.4014 52.5741 40.9002C51.3571 40.3991 50.7844 38.9913 51.2855 37.7743C51.6673 36.8437 52.5502 36.2949 53.5047 36.2949C53.791 36.2949 54.1012 36.3664 54.4115 36.4858ZM49.472 45.5056C50.4026 46.4363 50.4026 47.9396 49.472 48.8702C48.5414 49.8008 47.0381 49.8008 46.1074 48.8702C45.1768 47.9396 45.1768 46.4363 46.1074 45.5056C46.5847 45.0523 47.1812 44.8136 47.8017 44.8136C48.3982 44.8136 49.0186 45.0523 49.472 45.5056ZM41.5021 51.9723C42.0032 53.1892 41.4305 54.5971 40.2135 55.0982C38.9965 55.5993 37.5887 55.0266 37.0876 53.8096C36.5865 52.5927 37.1592 51.1848 38.3761 50.6837C38.6863 50.5644 38.9727 50.4928 39.2829 50.4928C40.2135 50.4928 41.1203 51.0655 41.5021 51.9723ZM29.2369 52.4972C29.8573 52.4972 30.4778 52.7597 30.9311 53.1892C31.3607 53.6426 31.6231 54.263 31.6231 54.8834C31.6231 55.5039 31.3607 56.1243 30.9311 56.5776C30.0244 57.4605 28.4256 57.4605 27.5427 56.5776C27.1132 56.1243 26.8507 55.5039 26.8507 54.8834C26.8507 54.263 27.1132 53.6426 27.5427 53.1892C27.9961 52.7597 28.6165 52.4972 29.2369 52.4972Z"
      fill="#BFC8D1"/>
    <path d="M29.5904 14.1409V29.342L39.1353 35.3517" stroke="#BFC8D1" stroke-width="2.8281" stroke-linecap="round" stroke-linejoin="round"/>
  </g>
  <defs>
    <clipPath id="clip0">
      <rect width="57.2691" height="57.2691" fill="white" transform="translate(57.8715 57.2697) rotate(-180)"/>
    </clipPath>
  </defs>
</svg>
