<svg width="77" height="60" viewBox="0 0 77 60" fill="none" xmlns="http://www.w3.org/2000/svg">
  <path
    d="M75.044 28.5867C75.044 20.8882 67.9917 14.6472 59.2923 14.6472C54.6628 14.6472 50.5035 16.4162 47.624 19.2312C44.8016 21.9905 40.7919 23.1431 36.8772 22.6381C34.9094 22.3843 32.8701 22.2506 30.7798 22.2506C14.3329 22.2506 1 30.4773 1 40.6253C1 50.7735 14.3329 59.0001 30.7798 59.0001C43.4579 59.0001 54.2849 54.1117 58.5812 47.223C60.1895 44.6443 62.4504 42.5026 65.305 41.4598C71.0206 39.372 75.044 34.3996 75.044 28.5867Z"
    stroke="white" stroke-width="2" stroke-miterlimit="10" stroke-linecap="round" stroke-linejoin="round"/>
  <path
    d="M30.7822 51.8341C17.839 51.8341 8.16711 45.9165 8.16711 40.6251C8.16711 35.3338 17.839 29.4161 30.7822 29.4161C32.5246 29.4161 34.2694 29.5269 35.9663 29.745C36.8608 29.8605 37.7728 29.9188 38.6755 29.9188C44.0077 29.9188 48.9655 27.9431 52.6346 24.3545C54.2872 22.7392 56.7142 21.8132 59.294 21.8132C63.9485 21.8132 67.88 24.9155 67.88 28.5869C67.88 31.2017 65.9055 33.6135 62.8487 34.7297C58.6828 36.2516 55.1047 39.2594 52.504 43.4312C49.979 47.4781 42.1055 51.8341 30.7822 51.8341Z"
    stroke="white" stroke-width="2" stroke-miterlimit="10" stroke-linecap="round" stroke-linejoin="round"/>
  <path
    d="M8.16711 5.35904V4.58278C8.16711 3.59154 8.57316 2.69585 9.21806 2.05095C9.86296 1.40605 10.7587 1 11.7499 1C13.7324 1 15.3327 2.60031 15.3327 4.58278V9.93305V15.3311V24.9091"
    stroke="white" stroke-width="2" stroke-miterlimit="10" stroke-linecap="round" stroke-linejoin="round"/>
  <path
    d="M23.6932 5.35904V4.58277C23.6932 3.59154 24.0993 2.69585 24.7442 2.05095C25.3891 1.40605 26.2848 1 27.276 1C29.2585 1 30.8588 2.60031 30.8588 4.58277V22.3175"
    stroke="white" stroke-width="2" stroke-miterlimit="10" stroke-linecap="round" stroke-linejoin="round"/>
  <path d="M15.3302 9.93701H29.6613" stroke="white" stroke-width="2" stroke-miterlimit="10" stroke-linecap="round"
        stroke-linejoin="round"/>
  <path d="M15.3302 15.3271H29.6613" stroke="white" stroke-width="2" stroke-miterlimit="10" stroke-linecap="round"
        stroke-linejoin="round"/>
</svg>
