<svg width="88" height="88" viewBox="0 0 88 88" fill="none" xmlns="http://www.w3.org/2000/svg">
  <rect width="88" height="88" fill="white"/>
  <path
    d="M13.0193 28.1907L11.846 29.3274C11.6003 29.5633 11.2723 29.6938 10.9319 29.691C10.5914 29.6882 10.2656 29.5523 10.0238 29.3125L6.51608 25.8019C6.40947 25.6952 6.27996 25.6142 6.1374 25.5651C5.99483 25.516 5.84296 25.5001 5.69332 25.5185C5.54369 25.537 5.40021 25.5893 5.27381 25.6715C5.1474 25.7538 5.04138 25.8638 4.96381 25.9932C3.45773 28.5049 3.99364 31.0115 4.70813 32.6723C5.36736 34.2455 6.55166 35.5409 8.05891 36.3375C9.71872 37.1856 11.6426 37.3561 13.4254 36.8129C13.5831 36.765 13.7507 36.7604 13.9107 36.7994C14.0708 36.8384 14.2175 36.9197 14.3355 37.0348L17.5666 40.2685C17.6587 40.3607 17.7681 40.4338 17.8885 40.4837C18.0088 40.5336 18.1379 40.5593 18.2682 40.5593C18.3984 40.5593 18.5275 40.5336 18.6478 40.4837C18.7682 40.4338 18.8776 40.3606 18.9697 40.2684C19.0618 40.1762 19.1349 40.0667 19.1848 39.9462C19.2346 39.8257 19.2603 39.6966 19.2603 39.5662C19.2603 39.4358 19.2346 39.3067 19.1847 39.1862C19.1348 39.0657 19.0618 38.9562 18.9696 38.864L15.7397 35.6307C15.3704 35.2639 14.9095 35.0031 14.405 34.8756C13.9006 34.7481 13.3712 34.7586 12.8721 34.906C11.5756 35.3042 10.1753 35.1841 8.96537 34.5708C7.868 33.9851 7.00763 33.0365 6.53102 31.8867C6.12097 30.9339 5.78459 29.6158 6.14639 28.2406L8.62058 30.7171C9.23171 31.3232 10.0553 31.6664 10.9157 31.6735C11.776 31.6805 12.6051 31.3508 13.226 30.7547L14.4109 29.6068C14.4186 29.5993 14.4263 29.5917 14.4339 29.584L15.5809 28.3982C16.1765 27.7767 16.5059 26.947 16.4988 26.086C16.4918 25.2249 16.1489 24.4007 15.5433 23.7891L13.0689 21.3126C14.4426 20.9508 15.7603 21.2873 16.7123 21.6977C17.861 22.1747 18.8089 23.0355 19.3944 24.1336C20.0073 25.3447 20.1272 26.7463 19.7289 28.044C19.5818 28.5434 19.5713 29.0733 19.6987 29.5781C19.8261 30.083 20.0866 30.5444 20.453 30.914L31.771 42.2418H9.9249C9.66176 42.2418 9.4094 42.3464 9.22334 42.5326C9.03728 42.7188 8.93275 42.9714 8.93275 43.2348V46.0287C8.93404 46.8766 9.24498 47.6948 9.80703 48.3292C10.3691 48.9637 11.1435 49.3706 11.9844 49.4734V65.7313C11.9861 67.2301 12.5817 68.667 13.6405 69.7268C14.6994 70.7866 16.135 71.3828 17.6325 71.3846H70.7126C72.2101 71.3829 73.6458 70.7868 74.7047 69.7269C75.7636 68.6671 76.3592 67.2301 76.3609 65.7313V49.4734C77.2018 49.3706 77.9762 48.9636 78.5382 48.3292C79.1002 47.6948 79.4112 46.8766 79.4125 46.0287V43.2344C79.4125 43.104 79.3869 42.9749 79.337 42.8544C79.2871 42.7339 79.2141 42.6245 79.1219 42.5323C79.0298 42.4401 78.9204 42.3669 78.8 42.317C78.6797 42.2671 78.5507 42.2414 78.4204 42.2414H54.0801L64.0344 30.5045L64.0361 30.5021C64.1939 30.3064 64.2758 30.0602 64.2666 29.809C64.2666 29.8007 64.2666 29.7918 64.2666 29.784C64.2615 29.7237 64.251 29.6639 64.2351 29.6055C64.2351 29.6022 64.2351 29.5988 64.2334 29.5955C64.1979 29.4679 64.1371 29.3488 64.0547 29.2453V29.2453C63.675 28.7647 63.4709 28.1686 63.4763 27.5559C63.4925 25.7342 62.9191 24.2811 61.8185 23.3555C61.0085 22.6744 59.9435 22.2992 58.637 22.2325C59.0043 21.9122 59.3979 21.6235 59.8137 21.3695C62.2414 19.8915 65.1268 19.7641 68.3895 20.9922C69.0928 21.2631 69.7504 21.6402 70.3395 22.1105L74.6494 25.4974C74.7273 25.5583 74.7923 25.6341 74.8408 25.7203C74.8892 25.8065 74.9201 25.9015 74.9317 25.9997L75.1206 27.5559C75.1672 27.9417 75.2953 28.3132 75.4964 28.6457C75.6975 28.9782 75.967 29.2641 76.2869 29.4844C76.6068 29.7047 76.9699 29.8543 77.352 29.9234C77.7342 29.9925 78.1266 29.9794 78.5033 29.8851L79.4795 29.6409C79.5903 29.6127 79.7061 29.6104 79.8179 29.634C79.9298 29.6576 80.0348 29.7066 80.1248 29.7772L81.6724 30.9821C81.7657 31.0546 81.8437 31.1449 81.9019 31.2478C81.9601 31.3507 81.9974 31.4641 82.0116 31.5814C82.0258 31.6988 82.0166 31.8178 81.9847 31.9316C81.9527 32.0455 81.8985 32.1518 81.8252 32.2445L77.9439 37.1618C77.7999 37.3464 77.5891 37.4668 77.357 37.4971C77.125 37.5274 76.8904 37.465 76.7039 37.3235L75.4494 36.3817C75.3701 36.3225 75.3032 36.248 75.2528 36.1628C75.2024 36.0775 75.1694 35.983 75.1558 35.8849L75.0222 34.9494C74.9672 34.5639 74.8307 34.1946 74.6219 33.866C74.4131 33.5374 74.1367 33.2572 73.8112 33.0439C73.4856 32.8306 73.1184 32.6893 72.734 32.6292C72.3496 32.5691 71.9568 32.5917 71.5818 32.6955L70.6278 32.9595C70.1627 33.0875 69.6741 33.1039 69.2016 33.0074C68.729 32.9108 68.2859 32.704 67.9082 32.4039L66.7047 31.4442C66.603 31.3613 66.4858 31.2994 66.36 31.262C66.2342 31.2247 66.1023 31.2128 65.9719 31.2268C65.8414 31.2409 65.7151 31.2807 65.6001 31.344C65.4851 31.4072 65.3838 31.4927 65.3021 31.5954C65.2203 31.6981 65.1598 31.816 65.1239 31.9423C65.0879 32.0686 65.0774 32.2008 65.0929 32.3312C65.1083 32.4615 65.1495 32.5876 65.2139 32.7019C65.2784 32.8163 65.3649 32.9168 65.4684 32.9975L66.6104 33.9083L62.5731 38.8539C62.4104 39.0583 62.3347 39.3186 62.3624 39.5784C62.3902 39.8383 62.5191 40.0767 62.7213 40.242C62.9235 40.4074 63.1827 40.4863 63.4426 40.4617C63.7026 40.4371 63.9423 40.3109 64.1099 40.1105L68.4027 34.8516C69.3008 35.1145 70.2542 35.1223 71.1565 34.8742L72.1103 34.6102C72.2135 34.5816 72.3217 34.5753 72.4275 34.5919C72.5333 34.6084 72.6344 34.6473 72.724 34.706C72.8136 34.7647 72.8897 34.8419 72.9472 34.9323C73.0047 35.0228 73.0422 35.1245 73.0573 35.2306L73.1911 36.166C73.241 36.5225 73.361 36.8655 73.5442 37.1753C73.7274 37.485 73.9702 37.7553 74.2584 37.9705L75.513 38.9123C76.1126 39.3676 76.8672 39.5682 77.6136 39.4709C78.3599 39.3736 79.038 38.9861 79.5011 38.3923L83.3804 33.4742C83.6159 33.1758 83.79 32.8337 83.8927 32.4676C83.9955 32.1015 84.0248 31.7187 83.9791 31.3412C83.9333 30.9637 83.8134 30.5991 83.6262 30.2682C83.439 29.9373 83.1882 29.6468 82.8883 29.4133L81.341 28.2079C81.0138 27.9517 80.6324 27.7739 80.226 27.688C79.8195 27.6021 79.3988 27.6105 78.9961 27.7124L78.0203 27.9568C77.9166 27.9828 77.8085 27.9864 77.7033 27.9673C77.5981 27.9483 77.4982 27.9071 77.4101 27.8464C77.322 27.7857 77.2479 27.707 77.1925 27.6155C77.1372 27.5239 77.1019 27.4217 77.0891 27.3154L76.9002 25.7589C76.858 25.402 76.7456 25.0571 76.5695 24.7439C76.3934 24.4307 76.1571 24.1555 75.8742 23.9341L71.5643 20.5469C70.8159 19.9512 69.9806 19.4739 69.0875 19.1317C59.8213 15.6429 55.4863 22.8282 55.4438 22.9012C55.3479 23.0653 55.3011 23.2536 55.309 23.4435C55.3168 23.6335 55.3789 23.8172 55.488 23.9728C55.5971 24.1284 55.7485 24.2495 55.9243 24.3215C56.1 24.3936 56.2928 24.4136 56.4796 24.3792C58.37 24.0309 59.7366 24.1971 60.5414 24.874C61.3402 25.5456 61.4989 26.6925 61.4913 27.5361C61.4856 28.3186 61.6758 29.0901 62.0446 29.7801L51.4768 42.2399H47.4673L39.5592 25.5101L41.0089 24.8142C41.1483 24.7474 41.2701 24.6489 41.3646 24.5266C41.4592 24.4043 41.5239 24.2616 41.5537 24.1099C41.5834 23.9581 41.5773 23.8015 41.5358 23.6526C41.4944 23.5036 41.4187 23.3664 41.3149 23.2518L35.0409 16.3259C34.8973 16.1675 34.7065 16.0597 34.4968 16.0186C34.287 15.9774 34.0696 16.0051 33.8769 16.0975L30.1623 17.8806C29.9696 17.973 29.8118 18.1254 29.7126 18.3148C29.6133 18.5043 29.5778 18.7207 29.6114 18.932L31.0802 28.1648C31.1045 28.3175 31.1641 28.4624 31.2543 28.588C31.3444 28.7135 31.4626 28.8163 31.5994 28.8881C31.7363 28.9599 31.888 28.9987 32.0424 29.0014C32.1969 29.0041 32.3499 28.9707 32.4891 28.9038L33.9295 28.2126L39.5003 39.998C39.5553 40.1169 39.6333 40.2238 39.7299 40.3124C39.8264 40.401 39.9394 40.4696 40.0626 40.5143C40.1857 40.5589 40.3165 40.5787 40.4473 40.5726C40.5781 40.5664 40.7064 40.5343 40.8248 40.4783C40.9432 40.4223 41.0493 40.3433 41.1371 40.246C41.2248 40.1487 41.2925 40.035 41.3361 39.9114C41.3797 39.7878 41.3984 39.6568 41.3912 39.5259C41.384 39.395 41.3509 39.2668 41.294 39.1488L35.2964 26.4608C35.2405 26.3426 35.1617 26.2366 35.0647 26.149C34.9677 26.0613 34.8543 25.9937 34.7311 25.9501C34.6079 25.9064 34.4773 25.8875 34.3468 25.8945C34.2163 25.9016 34.0885 25.9343 33.9707 25.9909L32.8307 26.5381L31.6874 19.3518L34.0679 18.2091L38.9512 23.6004L37.8112 24.1474C37.5747 24.2609 37.3927 24.4634 37.3051 24.7108C37.2174 24.9582 37.2312 25.2302 37.3434 25.4674L45.272 42.2409H34.577L21.8557 29.5087C21.7407 29.3906 21.6595 29.2438 21.6205 29.0836C21.5815 28.9234 21.5862 28.7556 21.6341 28.5979C22.177 26.8135 22.0068 24.888 21.1593 23.2267C20.3634 21.7181 19.0691 20.5326 17.4972 19.8727C15.8379 19.1575 13.3334 18.6213 10.8236 20.1285C10.6943 20.2061 10.5844 20.3123 10.5023 20.4388C10.4201 20.5653 10.3678 20.7089 10.3494 20.8587C10.331 21.0085 10.3469 21.1605 10.3959 21.3032C10.445 21.4459 10.5259 21.5755 10.6325 21.6822L14.1401 25.193C14.3797 25.435 14.5154 25.7611 14.5182 26.1017C14.521 26.4424 14.3906 26.7707 14.155 27.0166L13.0193 28.1907ZM46.8363 44.2274H57.9817V47.5147H30.3635V44.2274H46.8363ZM28.3792 44.2274V49.4555C28.3788 49.78 28.2498 50.0911 28.0206 50.3206C27.7913 50.55 27.4805 50.6791 27.1563 50.6795H24.975C24.6509 50.6791 24.3401 50.55 24.1108 50.3206C23.8816 50.0911 23.7527 49.78 23.7523 49.4555V44.2274H28.3792ZM77.4282 46.0283C77.4277 46.4224 77.2711 46.8002 76.9926 47.0789C76.7142 47.3575 76.3367 47.5143 75.9429 47.5147H70.0506C69.9192 47.513 69.7888 47.5374 69.6669 47.5866C69.545 47.6357 69.4341 47.7086 69.3405 47.8009C69.247 47.8933 69.1727 48.0034 69.1221 48.1247C69.0714 48.2461 69.0453 48.3763 69.0453 48.5078C69.0453 48.6394 69.0714 48.7696 69.1221 48.8909C69.1727 49.0123 69.247 49.1223 69.3405 49.2147C69.4341 49.3071 69.545 49.38 69.6669 49.4291C69.7888 49.4782 69.9192 49.5027 70.0506 49.5009H74.3764V65.7304C74.3753 66.7027 73.9889 67.6348 73.302 68.3222C72.6151 69.0097 71.6838 69.3964 70.7124 69.3976H17.6325C16.6611 69.3965 15.7297 69.0098 15.0428 68.3223C14.3558 67.6349 13.9694 66.7027 13.9684 65.7304V49.5013H18.2955C18.5564 49.4978 18.8054 49.3917 18.9887 49.2058C19.172 49.02 19.2747 48.7693 19.2747 48.5082C19.2747 48.247 19.172 47.9964 18.9887 47.8105C18.8054 47.6247 18.5564 47.5185 18.2955 47.5151H12.4022C12.0084 47.5146 11.6309 47.3579 11.3525 47.0792C11.0741 46.8006 10.9175 46.4228 10.917 46.0287V44.2274H21.7671V49.4555C21.7681 50.3067 22.1065 51.1227 22.7079 51.7245C23.3093 52.3263 24.1246 52.6647 24.975 52.6655H27.1558C27.998 52.6645 28.8061 52.3322 29.4058 51.7403C30.0054 51.1483 30.3485 50.3441 30.3611 49.5013H57.984C57.9965 50.3441 58.3396 51.1482 58.9392 51.7401C59.5388 52.3321 60.3468 52.6645 61.189 52.6655H63.3711C64.2213 52.6645 65.0365 52.326 65.6377 51.7242C66.2389 51.1224 66.5771 50.3066 66.5781 49.4555V44.2274H77.4284L77.4282 46.0283ZM64.5937 44.2274V49.4555C64.5933 49.78 64.4643 50.0911 64.2351 50.3205C64.0059 50.55 63.6951 50.6791 63.3709 50.6795H61.189C60.8648 50.6791 60.554 50.55 60.3248 50.3205C60.0956 50.0911 59.9666 49.78 59.9662 49.4555V44.2274H64.5937Z"
    fill="#2E79CA"/>
</svg>
