<svg width="24" height="25" viewBox="0 0 24 25" fill="none" xmlns="http://www.w3.org/2000/svg">
  <g clip-path="url(#clip0)">
    <path
      d="M8.60199 7.3158L8.60399 7.3178L13.105 10.4528L6.24499 19.7268C6.20593 19.7795 6.17763 19.8394 6.16171 19.9031C6.14579 19.9668 6.14257 20.0329 6.15223 20.0978C6.16188 20.1628 6.18423 20.2251 6.21799 20.2814C6.25175 20.3377 6.29627 20.3867 6.34899 20.4258C6.40172 20.4649 6.46163 20.4932 6.52529 20.5091C6.58895 20.525 6.65513 20.5282 6.72003 20.5186C6.78494 20.5089 6.84731 20.4866 6.90358 20.4528C6.95986 20.419 7.00893 20.3745 7.04799 20.3218L13.926 11.0248L18.451 14.1768H18.452L21.733 16.4628C21.7867 16.5007 21.8474 16.5275 21.9115 16.5417C21.9756 16.5559 22.042 16.5572 22.1066 16.5456C22.1713 16.534 22.233 16.5096 22.2882 16.474C22.3433 16.4383 22.3909 16.392 22.428 16.3378C23.885 14.2478 24.35 11.6568 23.739 9.0428C23.134 6.4508 21.538 4.1438 19.249 2.5468L19.243 2.5408L19.235 2.5378C14.487 -0.767197 8.18999 0.0378027 5.19699 4.3348C5.1218 4.44384 5.09274 4.57818 5.11615 4.70855C5.13956 4.83892 5.21355 4.95475 5.32199 5.0308L8.60199 7.3158ZM21.318 6.0138C21.9995 6.99968 22.4907 8.10434 22.766 9.2708C23.271 11.4318 22.956 13.5708 21.881 15.3478L19.418 13.6318C20.674 11.6868 21.391 9.5458 21.431 7.5498C21.4428 7.03536 21.4049 6.52098 21.318 6.0138ZM18.239 3.1078L15.689 6.7688C15.6133 6.87767 15.5839 7.01217 15.6073 7.14269C15.6308 7.27322 15.7051 7.38908 15.814 7.4648C15.9229 7.54052 16.0574 7.56989 16.1879 7.54645C16.3184 7.52301 16.4343 7.44867 16.51 7.3398L19.06 3.6788C19.981 4.5338 20.466 5.8788 20.432 7.5298C20.395 9.3338 19.749 11.2828 18.604 13.0648L9.59399 6.7878C10.87 5.0958 12.474 3.8148 14.153 3.1558C15.689 2.5508 17.118 2.5398 18.239 3.1078ZM15.248 1.8028C14.7483 1.8964 14.2587 2.03771 13.786 2.2248C11.927 2.9548 10.168 4.3688 8.77799 6.2208L6.31699 4.5058C8.37799 1.9238 11.884 0.961803 15.248 1.8028ZM23.222 17.5818L17.348 21.4978H2.49899C2.43322 21.4978 2.36809 21.5108 2.30735 21.536C2.2466 21.5613 2.19143 21.5982 2.14499 21.6448L0.144995 23.6448C0.0539156 23.7391 0.00351836 23.8654 0.00465757 23.9965C0.00579678 24.1276 0.0583812 24.253 0.151085 24.3457C0.243789 24.4384 0.369196 24.491 0.500294 24.4921C0.631392 24.4933 0.757693 24.4429 0.851995 24.3518L2.70599 22.4978H17.291L19.145 24.3518C19.239 24.4451 19.3661 24.4974 19.4985 24.4974C19.6309 24.4974 19.758 24.4451 19.852 24.3518C19.9457 24.258 19.9984 24.1309 19.9984 23.9983C19.9984 23.8657 19.9457 23.7386 19.852 23.6448L18.283 22.0758L23.776 18.4138C23.8327 18.3784 23.8818 18.3319 23.9203 18.2772C23.9587 18.2225 23.9858 18.1606 23.9999 18.0952C24.0141 18.0298 24.0149 17.9622 24.0024 17.8965C23.99 17.8308 23.9645 17.7682 23.9274 17.7126C23.8903 17.6569 23.8424 17.6092 23.7866 17.5724C23.7308 17.5355 23.6681 17.5102 23.6023 17.4981C23.5366 17.4859 23.469 17.487 23.4037 17.5014C23.3383 17.5158 23.2766 17.5431 23.222 17.5818Z"
      fill="#17154B"/>
  </g>
  <defs>
    <clipPath id="clip0">
      <rect width="24" height="24" fill="white" transform="translate(0 0.5)"/>
    </clipPath>
  </defs>
</svg>
