<svg width="24" height="25" viewBox="0 0 24 25" fill="none" xmlns="http://www.w3.org/2000/svg">
  <g clip-path="url(#clip0)">
    <path
      d="M8.02497 16.9024C6.73197 16.9024 5.11097 16.1944 3.55797 14.9294C1.74497 13.4534 0.46697 11.5404 0.13697 9.81238C-0.0379145 8.90949 -0.0320703 7.98088 0.154165 7.08026C0.3404 6.17963 0.703331 5.32487 1.22197 4.56538C1.73702 3.8038 2.39783 3.15179 3.16625 2.647C3.93468 2.14222 4.79548 1.79465 5.69897 1.62438C6.81676 1.41125 7.96965 1.4738 9.05782 1.80661C10.146 2.13942 11.1366 2.73246 11.944 3.53438C12.0355 3.62828 12.0865 3.75439 12.086 3.88554C12.0854 4.01669 12.0334 4.14237 11.941 4.2355C11.8487 4.32863 11.7235 4.38175 11.5923 4.38341C11.4612 4.38507 11.3346 4.33514 11.24 4.24438C10.5477 3.55706 9.69838 3.04873 8.76552 2.76333C7.83266 2.47793 6.84432 2.42406 5.88597 2.60638C5.11144 2.75189 4.37349 3.04964 3.71485 3.48239C3.05621 3.91513 2.48998 4.47425 2.04897 5.12738C1.6044 5.77847 1.2933 6.51122 1.13367 7.28328C0.974044 8.05534 0.969046 8.85138 1.11897 9.62538C1.40597 11.1294 2.55397 12.8224 4.18897 14.1544C5.71197 15.3954 7.37397 16.0674 8.41897 15.8674C9.38197 15.6824 10.565 14.6124 11.505 13.0724C11.5392 13.0163 11.5841 12.9675 11.6372 12.9288C11.6902 12.8901 11.7504 12.8622 11.8142 12.8467C11.8781 12.8313 11.9443 12.8285 12.0092 12.8387C12.0741 12.8488 12.1364 12.8717 12.1925 12.9059C12.2485 12.9401 12.2973 12.985 12.336 13.0381C12.3748 13.0911 12.4026 13.1513 12.4181 13.2151C12.4336 13.279 12.4363 13.3452 12.4262 13.4101C12.416 13.475 12.3932 13.5373 12.359 13.5934C11.243 15.4204 9.87597 16.6074 8.60697 16.8504C8.42197 16.8854 8.22697 16.9024 8.02497 16.9024Z"
      fill="#17154B"/>
    <path
      d="M7.32001 18.6131C7.2288 18.6136 7.13918 18.5891 7.0609 18.5423C6.98262 18.4955 6.91866 18.4282 6.87598 18.3475C6.83331 18.2669 6.81354 18.1762 6.81883 18.0851C6.82413 17.994 6.85428 17.9062 6.90601 17.8311L8.09801 16.0761C8.17314 15.967 8.28827 15.8919 8.41838 15.8672C8.5485 15.8425 8.68312 15.8701 8.79301 15.9441L10.547 17.1361C10.6278 17.1208 10.711 17.1257 10.7894 17.1503C10.8678 17.1749 10.939 17.2184 10.9966 17.277C11.0541 17.3357 11.0964 17.4076 11.1196 17.4864C11.1427 17.5653 11.1461 17.6486 11.1294 17.7291C11.1127 17.8095 11.0764 17.8846 11.0237 17.9477C10.9711 18.0108 10.9037 18.06 10.8275 18.0908C10.7514 18.1216 10.6688 18.1332 10.587 18.1246C10.5053 18.1159 10.427 18.0872 10.359 18.0411L7.41201 18.6041C7.38173 18.6102 7.3509 18.6132 7.32001 18.6131ZM8.64501 17.0531L8.41201 17.3961L8.98801 17.2871L8.64501 17.0531Z"
      fill="#17154B"/>
    <path
      d="M2.591 9.844C2.47477 9.84379 2.36223 9.80317 2.27265 9.7291C2.18308 9.65503 2.12204 9.55212 2.1 9.438C1.85299 8.13542 2.13278 6.78805 2.87799 5.69151C3.6232 4.59497 4.77296 3.83883 6.075 3.589C6.20522 3.56407 6.34002 3.59189 6.44972 3.66634C6.55943 3.74079 6.63507 3.85578 6.66 3.986C6.68493 4.11622 6.65711 4.25101 6.58266 4.36072C6.50821 4.47043 6.39322 4.54607 6.263 4.571C5.213 4.771 4.305 5.368 3.704 6.252C3.40735 6.68581 3.19972 7.17416 3.09312 7.68878C2.98652 8.20339 2.98308 8.73404 3.083 9.25C3.09686 9.32239 3.09454 9.39695 3.07621 9.46834C3.05788 9.53972 3.024 9.60618 2.97698 9.66294C2.92997 9.7197 2.87099 9.76537 2.80426 9.79667C2.73753 9.82797 2.66471 9.84413 2.591 9.844Z"
      fill="#17154B"/>
    <path
      d="M14.9 15.3761C14.095 15.3761 13.392 15.2261 12.849 14.9231C10.435 13.5751 8.95798 7.53014 10.879 4.08914C12.76 0.719139 17.032 -0.493861 20.403 1.38814C22.0225 2.29444 23.2165 3.80616 23.7228 5.59164C24.2292 7.37712 24.0066 9.29054 23.104 10.9121C22.247 12.4481 20.431 13.8611 18.246 14.6921C17.048 15.1461 15.896 15.3761 14.9 15.3761ZM16.999 1.49714C16.45 1.49714 15.896 1.57314 15.353 1.72714C14.5941 1.94009 13.885 2.30146 13.2667 2.79032C12.6484 3.27918 12.1332 3.88583 11.751 4.57514C10.138 7.46514 11.345 12.9371 13.335 14.0491C14.268 14.5691 16.054 14.4531 17.889 13.7551C19.862 13.0061 21.484 11.7601 22.23 10.4231C23.0035 9.03298 23.194 7.39278 22.7599 5.86231C22.3257 4.33184 21.3022 3.03605 19.914 2.25914C19.0233 1.76055 18.0198 1.49823 16.999 1.49714Z"
      fill="#17154B"/>
    <path
      d="M13.672 17.0262C13.5867 17.0259 13.5028 17.0043 13.428 16.9632L10.808 15.5012C10.7215 15.4531 10.6513 15.3803 10.6061 15.2923C10.561 15.2042 10.5431 15.1047 10.5545 15.0064C10.566 14.9081 10.6063 14.8154 10.6705 14.7401C10.7347 14.6647 10.8198 14.6101 10.915 14.5832L12.956 14.0052C13.0836 13.9697 13.22 13.986 13.3355 14.0507C13.4511 14.1153 13.5364 14.2229 13.573 14.3502L14.152 16.3902C14.173 16.4644 14.1765 16.5426 14.1623 16.6184C14.148 16.6943 14.1164 16.7658 14.0699 16.8274C14.0235 16.889 13.9633 16.939 13.8943 16.9735C13.8253 17.008 13.7492 17.026 13.672 17.0262Z"
      fill="#17154B"/>
    <path
      d="M13.061 5.80712C12.974 5.80695 12.8886 5.78408 12.8131 5.74077C12.7377 5.69746 12.6748 5.63521 12.6308 5.56017C12.5867 5.48513 12.5631 5.3999 12.562 5.31291C12.561 5.22591 12.5827 5.14016 12.625 5.06412C12.9437 4.48968 13.3731 3.98411 13.8884 3.57663C14.4037 3.16915 14.9946 2.86784 15.627 2.69012C16.2585 2.50928 16.9196 2.4554 17.572 2.53161C18.2244 2.60782 18.8552 2.8126 19.428 3.13412C19.5438 3.19896 19.6291 3.30714 19.6651 3.43485C19.7011 3.56257 19.6849 3.69935 19.62 3.81512C19.5879 3.87244 19.5448 3.92288 19.4932 3.96355C19.4416 4.00422 19.3825 4.03433 19.3193 4.05216C19.1916 4.08816 19.0548 4.07196 18.939 4.00712C18.4809 3.7501 17.9763 3.5864 17.4545 3.52546C16.9328 3.46453 16.4041 3.50758 15.899 3.65212C15.3931 3.79415 14.9204 4.03512 14.5083 4.36109C14.0962 4.68705 13.7528 5.09154 13.498 5.55112C13.4546 5.62883 13.3912 5.69354 13.3143 5.73854C13.2375 5.78355 13.1501 5.80722 13.061 5.80712Z"
      fill="#17154B"/>
    <path
      d="M10.4919 24.499C10.3804 24.499 10.2721 24.4617 10.1842 24.393C10.0963 24.3243 10.0339 24.2282 10.0069 24.12L8.50694 18.12C8.48932 18.0558 8.48472 17.9886 8.49341 17.9226C8.5021 17.8565 8.52392 17.7928 8.55756 17.7353C8.59121 17.6778 8.63602 17.6276 8.68934 17.5876C8.74267 17.5477 8.80345 17.5188 8.8681 17.5027C8.93276 17.4865 8.99998 17.4835 9.06583 17.4937C9.13168 17.5039 9.19482 17.5272 9.25154 17.5622C9.30826 17.5972 9.35742 17.6431 9.39613 17.6973C9.43483 17.7516 9.46231 17.813 9.47694 17.878L10.4919 21.938L12.0069 15.878C12.0415 15.7521 12.1239 15.6446 12.2367 15.5787C12.3494 15.5127 12.4834 15.4935 12.6102 15.5251C12.7369 15.5567 12.8462 15.6367 12.9147 15.7479C12.9833 15.859 13.0056 15.9926 12.9769 16.12L10.9769 24.12C10.9501 24.2283 10.8878 24.3245 10.7998 24.3932C10.7119 24.4619 10.6035 24.4992 10.4919 24.499Z"
      fill="#17154B"/>
  </g>
  <defs>
    <clipPath id="clip0">
      <rect width="24" height="24" fill="white" transform="translate(0 0.5)"/>
    </clipPath>
  </defs>
</svg>
