<svg width="60" height="64" viewBox="0 0 60 64" fill="none" xmlns="http://www.w3.org/2000/svg">
  <path
    d="M59.3579 18.3253L56.3413 15.3088C56.1413 15.1088 55.87 14.9965 55.5872 14.9965C55.3044 14.9965 55.0331 15.1088 54.8331 15.3088L52.5696 17.5712C52.3696 17.3712 52.0983 17.2589 51.8155 17.2589C51.5326 17.2589 51.2614 17.3712 51.0613 17.5712L49.0667 19.5659V3.2C49.0667 2.35131 48.7295 1.53737 48.1294 0.937258C47.5293 0.337142 46.7154 0 45.8667 0H3.2C2.35131 0 1.53737 0.337142 0.937258 0.937258C0.337142 1.53737 0 2.35131 0 3.2V60.8C0 61.6487 0.337142 62.4626 0.937258 63.0627C1.53737 63.6629 2.35131 64 3.2 64H45.8667C46.7154 64 47.5293 63.6629 48.1294 63.0627C48.7295 62.4626 49.0667 61.6487 49.0667 60.8V35.1872L49.5531 35.6725L57.0955 28.1312C57.1946 28.0321 57.2733 27.9145 57.327 27.785C57.3807 27.6555 57.4083 27.5167 57.4083 27.3765C57.4083 27.2364 57.3807 27.0976 57.327 26.9681C57.2733 26.8386 57.1946 26.7209 57.0955 26.6219L55.5872 25.1136L57.0955 23.6053C57.2954 23.4053 57.4078 23.134 57.4078 22.8512C57.4078 22.5684 57.2954 22.2971 57.0955 22.0971L59.3579 19.8336C59.5578 19.6336 59.6702 19.3623 59.6702 19.0795C59.6702 18.7966 59.5578 18.5254 59.3579 18.3253ZM51.8155 19.8336L54.8331 22.8512L51.8155 25.8677L48.7989 22.8512L51.8155 19.8336ZM32.2048 45.4784L29.1883 42.4619L47.2896 24.3595L50.3072 27.3771L32.2048 45.4784ZM25.9275 48.2517L27.7408 44.0277L30.6389 46.9333L26.4149 48.7467L25.9275 48.2517ZM40.5333 2.13333V9.1584L39.1541 7.7792C38.9541 7.57923 38.6828 7.4669 38.4 7.4669C38.1172 7.4669 37.8459 7.57923 37.6459 7.7792L36.2667 9.1584V2.13333H40.5333ZM45.8667 61.8667H3.2C2.9171 61.8667 2.64579 61.7543 2.44575 61.5543C2.24571 61.3542 2.13333 61.0829 2.13333 60.8V3.2C2.13333 2.9171 2.24571 2.64579 2.44575 2.44575C2.64579 2.24571 2.9171 2.13333 3.2 2.13333H34.1333V11.7333C34.1334 11.9443 34.196 12.1505 34.3132 12.3258C34.4304 12.5012 34.597 12.6379 34.7918 12.7186C34.9867 12.7993 35.2011 12.8204 35.408 12.7793C35.6149 12.7382 35.805 12.6366 35.9541 12.4875L38.4 10.0416L40.8459 12.4875C40.995 12.6366 41.1851 12.7382 41.392 12.7793C41.5989 12.8204 41.8133 12.7993 42.0082 12.7186C42.203 12.6379 42.3696 12.5012 42.4868 12.3258C42.604 12.1505 42.6666 11.9443 42.6667 11.7333V2.13333H45.8667C46.1496 2.13333 46.4209 2.24571 46.6209 2.44575C46.8209 2.64579 46.9333 2.9171 46.9333 3.2V21.6992L26.1717 42.4619C26.0755 42.5575 25.9987 42.6709 25.9456 42.7957L23.68 48.0747C23.5963 48.2705 23.573 48.4869 23.6133 48.696C23.6536 48.9051 23.7556 49.0973 23.9061 49.248L21.6437 51.5104L23.152 53.0187L25.4144 50.7563C25.5651 50.9068 25.7573 51.0088 25.9664 51.0491C26.1755 51.0894 26.3919 51.0661 26.5877 50.9824L31.8667 48.7189C31.9915 48.6658 32.1049 48.589 32.2005 48.4928L46.9333 33.7675V60.8C46.9333 61.0829 46.8209 61.3542 46.6209 61.5543C46.4209 61.7543 46.1496 61.8667 45.8667 61.8667ZM54.8331 27.3771L49.0667 33.1424V31.6341L54.08 26.6208L54.8331 27.3771ZM55.5872 20.5888L54.08 19.0795L55.5893 17.5712L57.0976 19.0795L55.5872 20.5888Z"
    fill="white"/>
  <path d="M36.2666 21.3333H6.3999V23.4666H36.2666V21.3333Z" fill="white"/>
  <path d="M36.2666 27.7334H6.3999V29.8667H36.2666V27.7334Z" fill="white"/>
  <path d="M25.5999 34.1333H6.3999V36.2666H25.5999V34.1333Z" fill="white"/>
  <path d="M17.0666 14.9333H6.3999V17.0667H17.0666V14.9333Z" fill="white"/>
</svg>
