<svg width="64" height="64" viewBox="0 0 64 64" fill="none" xmlns="http://www.w3.org/2000/svg">
  <path
    d="M46.1871 7H10.265C8.46465 7 7 8.45627 7 10.2461V54.7542C7 56.5437 8.46465 58 10.265 58H46.1871C47.9872 58 49.4519 56.5437 49.4519 54.7542V38.7102L57.2201 27.7762C58.5796 25.8486 58.1157 23.1802 56.1871 21.8288C54.2306 20.4502 51.5532 20.946 50.2013 22.847L49.4519 23.9022V10.2461C49.4519 8.45627 47.9872 7 46.1871 7ZM44.1138 31.4189L36.7841 41.74C36.601 41.9972 36.7496 41.661 35.2454 49.7398C35.1913 50.036 35.3114 50.3376 35.5549 50.5166C35.7809 50.6816 36.1239 50.7208 36.3926 50.5821C43.7813 46.7393 43.596 46.953 43.8012 46.6638L44.1138 46.2238V52.6925H12.3383V12.3079H44.1138V31.4189H44.1138ZM37.0981 48.4394L38.032 43.3354L41.8286 46.0005L37.0981 48.4394ZM42.8487 45.2666L38.4286 42.1633L48.693 27.71L50.5469 29.0113L46.6867 34.3364C46.4943 34.6017 46.5548 34.9719 46.8216 35.1632C46.9271 35.2388 47.0489 35.2751 47.1696 35.2751C47.3546 35.2751 47.5369 35.1898 47.6533 35.029L51.5203 29.6945L53.1159 30.8146L42.8487 45.2666ZM49.3801 26.7418L51.4988 23.7583C52.3494 22.563 54.0334 22.2481 55.2702 23.1189C56.5064 23.9851 56.7915 25.6323 55.9207 26.8668L53.8036 29.8468L49.3801 26.7418ZM47.8631 54.7542C47.8631 55.6729 47.1114 56.4203 46.1871 56.4203H10.265C9.3407 56.4203 8.58878 55.6729 8.58878 54.7542V10.2461C8.58878 9.32711 9.34069 8.57969 10.265 8.57969H46.1871C47.1114 8.57969 47.8631 9.32711 47.8631 10.2461V26.1394L45.3054 29.741V11.7155C45.3054 11.3885 45.0385 11.1232 44.7096 11.1232H11.7425C11.4134 11.1232 11.1467 11.3885 11.1467 11.7155V53.2849C11.1467 53.6119 11.4134 53.8772 11.7425 53.8772H44.7096C45.0385 53.8772 45.3054 53.6119 45.3054 53.2849V44.547L47.8631 40.9478V54.7542Z"
    fill="#EBF4FA"/>
  <path
    d="M17.4937 48.7702H29.4571C29.7862 48.7702 30.0529 48.5049 30.0529 48.1778C30.0529 47.8508 29.7862 47.5854 29.4571 47.5854H17.4937C17.1646 47.5854 16.8979 47.8508 16.8979 48.1778C16.8979 48.5049 17.1646 48.7702 17.4937 48.7702Z"
    fill="#EBF4FA"/>
  <path
    d="M17.4937 43.5699H31.072C31.4012 43.5699 31.6678 43.3046 31.6678 42.9775C31.6678 42.6505 31.4012 42.3851 31.072 42.3851H17.4937C17.1646 42.3851 16.8979 42.6505 16.8979 42.9775C16.8979 43.3046 17.1646 43.5699 17.4937 43.5699Z"
    fill="#EBF4FA"/>
  <path
    d="M17.4937 38.4556H35.6386C35.9677 38.4556 36.2344 38.1903 36.2344 37.8633C36.2344 37.5362 35.9677 37.2709 35.6386 37.2709H17.4937C17.1646 37.2709 16.8979 37.5362 16.8979 37.8633C16.8979 38.1903 17.1646 38.4556 17.4937 38.4556Z"
    fill="#EBF4FA"/>
  <path
    d="M17.4937 33.1701H38.0501C38.3792 33.1701 38.6459 32.9048 38.6459 32.5777C38.6459 32.2507 38.3792 31.9854 38.0501 31.9854H17.4937C17.1646 31.9854 16.8979 32.2507 16.8979 32.5777C16.8979 32.9048 17.1646 33.1701 17.4937 33.1701Z"
    fill="#EBF4FA"/>
  <path
    d="M30.6563 27.9702H38.0502C38.3793 27.9702 38.646 27.7048 38.646 27.3778C38.646 27.0507 38.3793 26.7854 38.0502 26.7854H30.6563C30.3272 26.7854 30.0605 27.0507 30.0605 27.3778C30.0605 27.7048 30.3272 27.9702 30.6563 27.9702Z"
    fill="#EBF4FA"/>
  <path
    d="M30.6563 22.7702H38.0502C38.3793 22.7702 38.646 22.5049 38.646 22.1778C38.646 21.8508 38.3793 21.5854 38.0502 21.5854H30.6563C30.3272 21.5854 30.0605 21.8508 30.0605 22.1778C30.0605 22.5049 30.3272 22.7702 30.6563 22.7702Z"
    fill="#EBF4FA"/>
  <path
    d="M30.6563 17.5703H38.0502C38.3793 17.5703 38.646 17.3049 38.646 16.9779C38.646 16.6508 38.3793 16.3855 38.0502 16.3855H30.6563C30.3272 16.3855 30.0605 16.6508 30.0605 16.9779C30.0605 17.3049 30.3272 17.5703 30.6563 17.5703Z"
    fill="#EBF4FA"/>
  <path
    d="M17.4937 27.9701H27.0045C27.3336 27.9701 27.6003 27.7048 27.6003 27.3777V16.9779C27.6003 16.6508 27.3336 16.3855 27.0045 16.3855H17.4937C17.1646 16.3855 16.8979 16.6508 16.8979 16.9779V27.3777C16.8979 27.7048 17.1646 27.9701 17.4937 27.9701ZM18.0895 17.5703H26.4087V26.7853H18.0895V17.5703Z"
    fill="#EBF4FA"/>
  <path
    d="M23.779 20.3275L21.8078 22.8474L20.6005 21.9692C20.335 21.7752 19.9618 21.8335 19.7677 22.0977C19.5736 22.3618 19.6314 22.7325 19.8969 22.9257L21.5712 24.1432C21.6773 24.2204 21.8004 24.2574 21.9226 24.2574C22.1004 24.2574 22.276 24.1787 22.3933 24.0287L24.7196 21.0548C24.9217 20.7964 24.8748 20.4242 24.6151 20.2237C24.355 20.0228 23.9809 20.0691 23.779 20.3275Z"
    fill="#EBF4FA"/>
</svg>
