<svg width="64" height="64" viewBox="0 0 64 64" fill="none" xmlns="http://www.w3.org/2000/svg">
  <path
    d="M53.8648 54.2781C50.869 54.2781 50.297 52.6742 50.0633 52.4969C49.8763 52.6375 49.2309 54.2781 46.2622 54.2781C43.2667 54.2781 42.6905 52.669 42.4612 52.4966C42.2757 52.6361 41.6288 54.2781 38.6602 54.2781C35.6647 54.2781 35.0917 52.6718 34.8592 52.4969C34.6557 52.6513 34.035 54.2781 31.0581 54.2781C28.0623 54.2781 27.4903 52.6742 27.2566 52.4969C27.0696 52.6375 26.4242 54.2781 23.4555 54.2781C20.46 54.2781 19.8838 52.669 19.6545 52.4966C19.469 52.6361 18.8221 54.2781 15.8535 54.2781C12.858 54.2781 12.285 52.6718 12.0525 52.4969C11.8505 52.6502 11.2277 54.2781 8.25091 54.2781C6.79646 54.2781 5.4809 53.8029 4.89989 53.0672L4 53.8075C4.80399 54.8254 6.43293 55.458 8.25103 55.458C9.77664 55.458 11.169 55.013 12.0526 54.2686C12.9356 55.013 14.328 55.458 15.8536 55.458C17.3792 55.458 18.771 55.013 19.6546 54.2686C21.538 55.855 25.376 55.8538 27.2566 54.2686C28.1403 55.013 29.5326 55.458 31.0582 55.458C32.5832 55.458 33.9756 55.013 34.8592 54.2686C35.7423 55.013 37.1346 55.458 38.6602 55.458C40.1858 55.458 41.5776 55.013 42.4613 54.2686C43.3449 55.013 44.7367 55.458 46.2623 55.458C47.7879 55.458 49.1802 55.013 50.0633 54.2686C50.9469 55.013 52.3393 55.458 53.8649 55.458C55.6829 55.458 57.3118 54.8254 58.1159 53.8075L57.2159 53.0672C56.6348 53.8029 55.3193 54.2781 53.8648 54.2781Z"
    fill="#EBF4FA"/>
  <path
    d="M53.8648 57.8202C50.869 57.8202 50.2985 56.2177 50.0633 56.0392C49.8772 56.1791 49.2309 57.8202 46.2622 57.8202C43.2667 57.8202 42.6889 56.2102 42.4612 56.0389C42.2762 56.1781 41.6288 57.8202 38.6602 57.8202C35.6647 57.8202 35.0884 56.2116 34.8592 56.0392C34.6585 56.1915 34.0328 57.8202 31.0581 57.8202C28.0623 57.8202 27.4918 56.2177 27.2566 56.0392C27.0705 56.1791 26.4242 57.8202 23.4555 57.8202C20.46 57.8202 19.8822 56.2102 19.6545 56.0389C19.4695 56.1781 18.8221 57.8202 15.8535 57.8202C12.858 57.8202 12.2817 56.2116 12.0525 56.0392C11.849 56.1937 11.2277 57.8202 8.25091 57.8202C6.79646 57.8202 5.48149 57.3449 4.89989 56.6092L4 57.3495C4.80399 58.3677 6.43293 59 8.25103 59C9.77664 59 11.1684 58.555 12.0526 57.8104C12.9362 58.555 14.328 59 15.8536 59C17.3792 59 18.771 58.555 19.6546 57.8107C20.5383 58.555 21.9301 59 23.4557 59C24.9813 59 26.3731 58.555 27.2567 57.8104C28.1409 58.555 29.5327 59 31.0582 59C32.5833 59 33.9756 58.555 34.8593 57.8104C35.7429 58.555 37.1347 59 38.6603 59C40.1859 59 41.5777 58.555 42.4613 57.8107C43.345 58.555 44.7367 59 46.2624 59C47.788 59 49.1798 58.555 50.0634 57.8104C50.9476 58.555 52.3393 59 53.8649 59C55.683 59 57.3119 58.3677 58.116 57.3495L57.2159 56.6092C56.6342 57.3449 55.3193 57.8202 53.8648 57.8202Z"
    fill="#EBF4FA"/>
  <path
    d="M53.8648 50.6739C50.869 50.6739 50.297 49.07 50.0633 48.8926C49.8763 49.0333 49.2309 50.6739 46.2622 50.6739C43.2667 50.6739 42.6905 49.0647 42.4612 48.8923C42.2757 49.0319 41.6288 50.6739 38.6602 50.6739C35.6647 50.6739 35.0917 49.0675 34.8592 48.8926C34.6557 49.0471 34.035 50.6739 31.0581 50.6739C28.0623 50.6739 27.4903 49.07 27.2566 48.8926L26.806 49.4632C25.5384 51.0697 21.3735 51.0707 20.1051 49.4632L19.6545 48.8923C19.469 49.0319 18.8221 50.6739 15.8535 50.6739C12.858 50.6739 12.285 49.0675 12.0525 48.8926C11.8505 49.046 11.2277 50.6739 8.25091 50.6739C6.79646 50.6739 5.4809 50.1986 4.89989 49.4629L4 50.2032C4.80399 51.2211 6.43293 51.8537 8.25103 51.8537C9.77664 51.8537 11.169 51.4086 12.0526 50.6644C12.9356 51.4087 14.328 51.8537 15.8536 51.8537C17.3792 51.8537 18.771 51.4086 19.6546 50.6644C21.538 52.2508 25.376 52.2495 27.2566 50.6644C28.1403 51.4087 29.5326 51.8537 31.0582 51.8537C32.5832 51.8537 33.9756 51.4086 34.8592 50.6644C35.7423 51.4087 37.1346 51.8537 38.6602 51.8537C40.1858 51.8537 41.5776 51.4086 42.4613 50.6644C43.3449 51.4087 44.7367 51.8537 46.2623 51.8537C47.7879 51.8537 49.1802 51.4086 50.0633 50.6644C50.9469 51.4087 52.3393 51.8537 53.8649 51.8537C55.6829 51.8537 57.3118 51.2211 58.1159 50.2032L57.2159 49.4629C56.6348 50.1986 55.3193 50.6739 53.8648 50.6739Z"
    fill="#EBF4FA"/>
  <path
    d="M53.8648 47.4331C50.869 47.4331 50.2985 45.8307 50.0633 45.6522C49.8772 45.792 49.2309 47.4331 46.2622 47.4331C43.2667 47.4331 42.6889 45.8231 42.4612 45.6519C42.2762 45.791 41.6288 47.4331 38.6602 47.4331C35.6647 47.4331 35.0884 45.8245 34.8592 45.6522C34.6585 45.8044 34.0328 47.4331 31.0581 47.4331C28.0623 47.4331 27.4918 45.8307 27.2566 45.6522L26.8066 46.2222C25.5367 47.8306 21.3727 47.8284 20.1045 46.2222L19.6545 45.6519C19.4695 45.791 18.8221 47.4331 15.8535 47.4331C12.858 47.4331 12.2817 45.8245 12.0525 45.6522C11.849 45.8066 11.2277 47.4331 8.25091 47.4331C6.79646 47.4331 5.48149 46.9578 4.89989 46.2222L4 46.9624C4.80399 47.9807 6.43293 48.6129 8.25103 48.6129C9.77664 48.6129 11.1684 48.1679 12.0526 47.4233C12.9362 48.1679 14.328 48.6129 15.8536 48.6129C17.3792 48.6129 18.771 48.1679 19.6546 47.4236C21.5383 49.0102 25.3753 49.0086 27.2566 47.4233C28.1408 48.1679 29.5326 48.6129 31.0582 48.6129C32.5832 48.6129 33.9756 48.1679 34.8592 47.4233C35.7428 48.1679 37.1346 48.6129 38.6602 48.6129C40.1858 48.6129 41.5776 48.1679 42.4613 47.4236C43.3449 48.1679 44.7367 48.6129 46.2623 48.6129C47.7879 48.6129 49.1797 48.1679 50.0633 47.4233C50.9475 48.1679 52.3393 48.6129 53.8649 48.6129C55.6829 48.6129 57.3118 47.9807 58.1159 46.9624L57.2159 46.2222C56.6342 46.9578 55.3193 47.4331 53.8648 47.4331Z"
    fill="#EBF4FA"/>
  <path
    d="M55.5424 23.4121C53.6357 23.4121 52.0846 24.9946 52.0846 26.9401V31.2921H43.1129V26.9401C43.1129 25.6453 44.145 24.5919 45.4143 24.5919C46.6836 24.5919 47.7157 25.6453 47.7157 26.9401V27.6489H48.872V26.9401C48.872 24.9947 47.321 23.4121 45.4143 23.4121C43.5075 23.4121 41.9565 24.9946 41.9565 26.9401V44.7083H43.1129V43.2309H52.0847V44.7083H53.241V26.9401C53.241 25.6453 54.2731 24.5919 55.5424 24.5919C56.8117 24.5919 57.8438 25.6453 57.8438 26.9401V27.6489H59.0001V26.9401C59.0001 24.9946 57.4491 23.4121 55.5424 23.4121ZM52.0847 32.4719V34.9027H43.1129V32.4719H52.0847ZM52.0847 38.5128H43.1129V36.0825H52.0847V38.5128V38.5128ZM43.1129 42.051V39.6926H52.0847V42.051H43.1129Z"
    fill="#EBF4FA"/>
  <path d="M58.421 38.5127H54.397V39.6925H58.421V38.5127Z" fill="#EBF4FA"/>
  <path
    d="M7.52507 26.3842C7.85461 26.2957 8.20152 26.2544 8.55422 26.2544C9.40414 26.2544 10.2656 26.5022 10.9362 26.9682C10.1788 22.8506 10.1268 18.6682 11.2311 16.7333C7.09139 18.5442 4.59375 23.1987 4.59375 27.8944C4.59375 28.4193 4.62845 28.9503 4.69205 29.4753C4.9117 28.036 6.05066 26.7736 7.52507 26.3842Z"
    fill="#EBF4FA"/>
  <path
    d="M14.1329 24.6992L16.3306 33.4514H17.5217L15.2548 24.405C15.4003 24.3899 15.5466 24.3785 15.6947 24.3785C16.4983 24.3785 17.3077 24.5968 17.9611 25.0097C16.1803 19.5471 13.7809 16.5681 12.7518 16.8277C11.7168 17.0931 11.0115 20.8921 12.0406 26.5671C12.4916 25.7545 13.2628 25.0765 14.1329 24.6992ZM14.7718 24.485L14.5677 24.5386C14.6044 24.5275 14.6402 24.5125 14.6771 24.5024C14.7081 24.4947 14.7405 24.492 14.7718 24.485Z"
    fill="#EBF4FA"/>
  <path
    d="M19.1232 24.8386C19.6377 23.7944 20.69 22.9332 21.8348 22.6264C23.3091 22.243 24.9106 22.7975 25.7837 23.9596C23.8989 19.0869 19.0018 15.4885 14.0063 16.0018C15.9027 17.1461 17.8454 20.8508 19.1232 24.8386Z"
    fill="#EBF4FA"/>
  <path
    d="M40.7986 38.5128H23.5341V35.8088H26.6237V34.629H10.5936L7.65983 31.5326L6.82868 32.3524L10.1035 35.8089H12.7267V38.5128H4.07324V39.6927H40.7986V38.5128ZM18.4118 36.9908H17.215L17.5986 38.5128H13.883V35.8088H22.3777V38.5128H18.7936L18.4118 36.9908Z"
    fill="#EBF4FA"/>
  <path d="M46.5382 4H45.3818V6.68108H46.5382V4Z" fill="#EBF4FA"/>
  <path d="M44.0175 7.05302L42.7036 4.7312L41.7021 5.32121L43.0159 7.64302L44.0175 7.05302Z" fill="#EBF4FA"/>
  <path d="M42.0171 8.66171L39.7417 7.32129L39.1634 8.34318L41.4388 9.6836L42.0171 8.66171Z" fill="#EBF4FA"/>
  <path d="M41.073 11.0779H38.4458V12.2577H41.073V11.0779Z" fill="#EBF4FA"/>
  <path d="M39.164 14.9893L39.7422 16.0114L42.0177 14.6713L41.4396 13.6493L39.164 14.9893Z" fill="#EBF4FA"/>
  <path d="M44.0188 16.2806L43.0171 15.6907L41.7035 18.0128L42.7052 18.6026L44.0188 16.2806Z" fill="#EBF4FA"/>
  <path d="M46.5382 16.6543H45.3818V19.3351H46.5382V16.6543Z" fill="#EBF4FA"/>
  <path d="M50.2191 18.0116L48.9053 15.6898L47.9037 16.2798L49.2176 18.6016L50.2191 18.0116Z" fill="#EBF4FA"/>
  <path d="M52.7548 14.9915L50.4795 13.6511L49.9012 14.673L52.1765 16.0134L52.7548 14.9915Z" fill="#EBF4FA"/>
  <path d="M53.4749 11.0779H50.8472V12.2577H53.4749V11.0779Z" fill="#EBF4FA"/>
  <path d="M50.4824 9.68307L52.7578 8.34265L52.1796 7.32076L49.9042 8.66118L50.4824 9.68307Z" fill="#EBF4FA"/>
  <path d="M50.2199 5.32121L49.2183 4.73132L47.9047 7.05341L48.9063 7.64329L50.2199 5.32121Z" fill="#EBF4FA"/>
  <path
    d="M49.4478 11.6659C49.4478 9.70744 47.881 8.10876 45.9615 8.10876C44.0362 8.10876 42.4751 9.70744 42.4751 11.6659C42.4751 13.6303 44.0362 15.229 45.9615 15.229C47.881 15.229 49.4478 13.6303 49.4478 11.6659Z"
    fill="#EBF4FA"/>
  <path
    d="M23.8939 12.618L25.1689 11.0736L26.9271 13.0933L28.6322 11.0269L29.9455 12.5362L30.8105 11.7528L28.6085 9.22314L26.9034 11.2896L25.1451 9.26983L23.0098 11.8582L23.8939 12.618Z"
    fill="#EBF4FA"/>
  <path
    d="M31.1924 6.83988L32.452 8.3259L33.7117 6.83988L34.5338 7.80999L35.409 7.03802L33.7117 5.03613L32.452 6.52216L31.1924 5.03613L29.4951 7.03802L30.3703 7.80999L31.1924 6.83988Z"
    fill="#EBF4FA"/>
  <path
    d="M19.6103 6.83958L20.8705 8.32561L22.1302 6.83988L22.9523 7.80999L23.8275 7.03802L22.1302 5.03613L20.8705 6.52246L19.6103 5.03643L17.9131 7.03802L18.7882 7.80999L19.6103 6.83958Z"
    fill="#EBF4FA"/>
</svg>
