<svg width="64" height="64" viewBox="0 0 64 64" fill="none" xmlns="http://www.w3.org/2000/svg">
  <path d="M19.2185 14.2207H14.2241V19.2156H19.2185V14.2207Z" fill="#2E79CA"/>
  <path d="M25.3303 14.2207H20.3359V19.2156H25.3303V14.2207Z" fill="#2E79CA"/>
  <path d="M31.4412 14.2207H26.4468V19.2156H31.4412V14.2207Z" fill="#2E79CA"/>
  <path d="M37.553 14.2207H32.5586V19.2156H37.553V14.2207Z" fill="#2E79CA"/>
  <path d="M43.6656 14.2207H38.6694V19.2156H43.6656V14.2207Z" fill="#2E79CA"/>
  <path d="M49.7764 14.2207H44.7808V19.2156H49.7764V14.2207Z" fill="#2E79CA"/>
  <path d="M19.2185 20.334H14.2241V25.3283H19.2185V20.334Z" fill="#2E79CA"/>
  <path d="M19.2185 2H14.2241V6.99554H19.2185V2Z" fill="#2E79CA"/>
  <path d="M25.3303 2H20.3359V6.99554H25.3303V2Z" fill="#2E79CA"/>
  <path d="M31.4412 2H26.4468V6.99554H31.4412V2Z" fill="#2E79CA"/>
  <path d="M37.553 2H32.5586V6.99554H37.553V2Z" fill="#2E79CA"/>
  <path d="M43.6656 2H38.6694V6.99554H43.6656V2Z" fill="#2E79CA"/>
  <path d="M49.7764 2H44.7808V6.99554H49.7764V2Z" fill="#2E79CA"/>
  <path d="M49.7764 20.334H44.7808V25.3283H49.7764V20.334Z" fill="#2E79CA"/>
  <path d="M19.2185 26.4473H14.2241V31.4428H19.2185V26.4473Z" fill="#2E79CA"/>
  <path d="M31.4412 26.4473H26.4468V31.4428H31.4412V26.4473Z" fill="#2E79CA"/>
  <path d="M37.553 26.4473H32.5586V31.4428H37.553V26.4473Z" fill="#2E79CA"/>
  <path d="M49.7764 26.4473H44.7808V31.4428H49.7764V26.4473Z" fill="#2E79CA"/>
  <path d="M19.2185 32.5576H14.2241V37.552H19.2185V32.5576Z" fill="#2E79CA"/>
  <path d="M31.4412 32.5576H26.4468V37.552H31.4412V32.5576Z" fill="#2E79CA"/>
  <path d="M37.553 32.5576H32.5586V37.552H37.553V32.5576Z" fill="#2E79CA"/>
  <path d="M49.7764 32.5576H44.7808V37.552H49.7764V32.5576Z" fill="#2E79CA"/>
  <path d="M19.2185 38.6689H14.2241V43.6633H19.2185V38.6689Z" fill="#2E79CA"/>
  <path d="M49.7764 38.6689H44.7808V43.6633H49.7764V38.6689Z" fill="#2E79CA"/>
  <path d="M19.2185 44.7812H14.2241V49.7768H19.2185V44.7812Z" fill="#2E79CA"/>
  <path d="M25.3303 44.7812H20.3359V49.7768H25.3303V44.7812Z" fill="#2E79CA"/>
  <path d="M31.4412 44.7812H26.4468V49.7768H31.4412V44.7812Z" fill="#2E79CA"/>
  <path d="M37.553 44.7812H32.5586V49.7768H37.553V44.7812Z" fill="#2E79CA"/>
  <path d="M43.6656 44.7812H38.6694V49.7768H43.6656V44.7812Z" fill="#2E79CA"/>
  <path d="M49.7764 44.7812H44.7808V49.7768H49.7764V44.7812Z" fill="#2E79CA"/>
  <path d="M19.2185 57.002H14.2241V61.9969H19.2185V57.002Z" fill="#2E79CA"/>
  <path d="M25.3303 57.002H20.3359V61.9969H25.3303V57.002Z" fill="#2E79CA"/>
  <path d="M13.1066 2H8.11035V6.99554H13.1066V2Z" fill="#2E79CA"/>
  <path d="M13.1066 57.002H8.11035V61.9969H13.1066V57.002Z" fill="#2E79CA"/>
  <path d="M6.9944 2H2V6.99554H6.9944V2Z" fill="#2E79CA"/>
  <path d="M6.9944 57.002H2V61.9969H6.9944V57.002Z" fill="#2E79CA"/>
  <path d="M31.4412 57.002H26.4468V61.9969H31.4412V57.002Z" fill="#2E79CA"/>
  <path d="M37.553 57.002H32.5586V61.9969H37.553V57.002Z" fill="#2E79CA"/>
  <path d="M43.6656 57.002H38.6694V61.9969H43.6656V57.002Z" fill="#2E79CA"/>
  <path d="M49.7764 57.002H44.7808V61.9969H49.7764V57.002Z" fill="#2E79CA"/>
  <path d="M55.8882 2H50.8926V6.99554H55.8882V2Z" fill="#2E79CA"/>
  <path d="M55.8882 57.002H50.8926V61.9969H55.8882V57.002Z" fill="#2E79CA"/>
  <path d="M61.9998 2H57.0054V6.99554H61.9998V2Z" fill="#2E79CA"/>
  <path d="M61.9998 57.002H57.0054V61.9969H61.9998V57.002Z" fill="#2E79CA"/>
</svg>
