<svg width="64" height="64" viewBox="0 0 64 64" fill="none" xmlns="http://www.w3.org/2000/svg">
  <path
    d="M18.6666 23.1718L25.5597 27.918L23.0802 35.4508C23.0053 35.6762 23.0092 35.9174 23.0913 36.1407C23.1734 36.3641 23.3297 36.5584 23.5385 36.6968C23.7472 36.8351 23.9979 36.9106 24.2558 36.9126C24.5136 36.9147 24.7657 36.8432 24.977 36.7082L32.0437 32.1772L39.1104 36.7082C39.3265 36.8357 39.5806 36.8986 39.8376 36.8883C40.0946 36.878 40.3417 36.7948 40.5447 36.6505C40.7477 36.5061 40.8965 36.3076 40.9705 36.0825C41.0444 35.8574 41.04 35.6168 40.9577 35.3942L38.4781 27.8614L45.3712 23.1152C45.5778 22.9737 45.7309 22.7769 45.8091 22.5521C45.8874 22.3274 45.8869 22.0859 45.8077 21.8614C45.7286 21.6369 45.5747 21.4406 45.3675 21.2998C45.1604 21.1591 44.9103 21.0809 44.6522 21.0763L35.9738 20.9403L33.1595 13.4869C33.0752 13.2643 32.9171 13.0713 32.7071 12.9346C32.4971 12.798 32.2457 12.7246 31.9879 12.7246C31.7302 12.7246 31.4788 12.798 31.2688 12.9346C31.0588 13.0713 30.9007 13.2643 30.8164 13.4869L28.0021 20.9403L19.3237 21.0763C19.0656 21.0809 18.8155 21.1591 18.6084 21.2998C18.4012 21.4406 18.2473 21.6369 18.1681 21.8614C18.089 22.0859 18.0885 22.3274 18.1667 22.5521C18.245 22.7769 18.3981 22.9737 18.6046 23.1152L18.6666 23.1718ZM28.9319 23.2511C29.1861 23.2479 29.433 23.1733 29.6392 23.0376C29.8455 22.9018 30.001 22.7114 30.0849 22.4922L31.9941 17.3835L33.9158 22.4809C33.9996 22.7001 34.1552 22.8905 34.3615 23.0262C34.5677 23.162 34.8146 23.2366 35.0688 23.2398L40.9577 23.3304L36.2465 26.5701C36.0446 26.7105 35.8947 26.9043 35.8171 27.1251C35.7395 27.3459 35.7379 27.5831 35.8126 27.8048L37.5359 32.9588L32.7132 29.8664C32.5044 29.7323 32.2555 29.6604 32.0003 29.6604C31.7452 29.6604 31.4962 29.7323 31.2875 29.8664L26.4648 32.9588L28.188 27.8048C28.2627 27.5831 28.2612 27.3459 28.1836 27.1251C28.106 26.9043 27.9561 26.7105 27.7541 26.5701L23.043 23.3304L28.9319 23.2511Z"
    fill="#2E79CA"/>
  <path
    d="M18.1335 38.3984C21.3256 41.172 25.4313 42.9042 29.8121 43.3258C31.2624 43.4708 32.7258 43.4708 34.1761 43.3258C34.858 43.2579 35.515 43.1559 36.1845 43.0313C39.2721 42.4543 42.1657 41.2159 44.6273 39.4179C45.0571 39.1083 45.4704 38.776 45.8671 38.4211C48.844 35.8788 50.915 32.5771 51.8109 28.9451C52.7067 25.3131 52.386 21.5189 50.8904 18.0557C49.3947 14.5925 46.7934 11.6205 43.4246 9.52602C40.0557 7.43156 36.0751 6.31152 32.0003 6.31152C27.9255 6.31152 23.9449 7.43156 20.576 9.52602C17.2072 11.6205 14.6059 14.5925 13.1102 18.0557C11.6146 21.5189 11.2939 25.3131 12.1897 28.9451C13.0856 32.5771 15.1566 35.8788 18.1335 38.4211V38.3984ZM31.9941 8.55054C36.7225 8.55654 41.2551 10.2762 44.5974 13.3321C47.9398 16.388 49.8187 20.5305 49.822 24.8508C49.8381 27.0237 49.3745 29.1772 48.4589 31.1827C47.5434 33.1882 46.1947 35.0044 44.4935 36.5229C42.7922 38.0413 40.7734 39.2307 38.5576 40.0201C36.3418 40.8094 33.9746 41.1825 31.5974 41.117C31.0891 41.117 30.5808 41.117 30.0849 41.0377C29.5889 40.9584 29.1178 40.9244 28.6467 40.8451C25.8252 40.3794 23.1726 39.2862 20.923 37.6621C20.551 37.3903 20.1874 37.0995 19.832 36.7899C18.0391 35.2735 16.6107 33.4332 15.6375 31.3857C14.6643 29.3382 14.1675 27.1283 14.1786 24.8961C14.1737 22.754 14.6307 20.632 15.5233 18.6513C16.416 16.6706 17.7269 14.8699 19.3812 13.3521C21.0356 11.8343 23.0009 10.629 25.165 9.80518C27.3291 8.98132 29.6497 8.555 31.9941 8.55054Z"
    fill="#2E79CA"/>
  <path
    d="M52.698 35.5657C52.5605 35.4861 52.4071 35.432 52.2466 35.4066C52.0862 35.3811 51.9219 35.3848 51.763 35.4174C51.6041 35.4501 51.4538 35.5109 51.3207 35.5966C51.1876 35.6823 51.0742 35.7911 50.9871 35.9168C49.5224 38.019 47.6483 39.858 45.4578 41.3427V41.3427C41.8072 43.8397 37.4069 45.255 32.8493 45.3979C32.5766 45.3979 32.2914 45.3979 32.0063 45.3979C31.7211 45.3979 31.436 45.3979 31.1137 45.3979C27.3226 45.2615 23.6308 44.2524 20.3805 42.4643C17.1303 40.6762 14.427 38.167 12.5214 35.1696C10.6158 32.1721 9.56968 28.7834 9.48007 25.318C9.39047 21.8525 10.2603 18.4225 12.0088 15.3462C12.133 15.0833 12.1435 14.7872 12.0384 14.5174C11.9333 14.2477 11.7203 14.0244 11.4423 13.8923C11.1642 13.7603 10.8417 13.7293 10.5397 13.8057C10.2377 13.8821 9.97857 14.0601 9.81442 14.304C7.96593 17.5628 7.00079 21.1795 7.00014 24.8499C6.98739 28.2834 7.82896 31.6746 9.46127 34.7673C11.0936 37.86 13.4739 40.5732 16.4224 42.702L12.7031 57.3597C12.6598 57.5326 12.6616 57.7124 12.7083 57.8846C12.755 58.0568 12.8454 58.2166 12.972 58.351C13.0987 58.4855 13.2581 58.5909 13.4375 58.6587C13.6169 58.7266 13.8112 58.755 14.0048 58.7417L21.8774 58.1753L28.6837 61.8227C28.8517 61.9126 29.0405 61.965 29.2348 61.9758C29.4291 61.9866 29.6234 61.9554 29.8021 61.8848C29.9808 61.8143 30.1387 61.7062 30.2632 61.5695C30.3877 61.4327 30.4752 61.2711 30.5186 61.0978L31.9939 55.3321L33.4568 61.1204C33.5002 61.2938 33.5877 61.4554 33.7122 61.5921C33.8367 61.7289 33.9946 61.8369 34.1733 61.9075C34.3519 61.9781 34.5463 62.0093 34.7406 61.9985C34.9349 61.9877 35.1237 61.9352 35.2917 61.8454L42.098 58.1979L49.9705 58.7643C50.1641 58.7776 50.3585 58.7492 50.5379 58.6814C50.7173 58.6135 50.8767 58.5081 51.0034 58.3737C51.13 58.2392 51.2203 58.0795 51.2671 57.9073C51.3138 57.7351 51.3156 57.5553 51.2723 57.3824L47.553 42.6567C49.7145 41.1061 51.5789 39.2381 53.07 37.1289C53.2471 36.8764 53.3073 36.5701 53.2376 36.277C53.1679 35.984 52.9739 35.7282 52.698 35.5657ZM28.4977 59.1041L23.6131 56.4875L24.766 52.387C24.8482 52.0955 24.8004 51.7862 24.633 51.5271C24.4656 51.2679 24.1923 51.0801 23.8734 51.005C23.5545 50.9299 23.2159 50.9736 22.9323 51.1266C22.6486 51.2795 22.4431 51.5292 22.3609 51.8206L21.2079 55.9324L15.5174 56.3402L18.592 44.1066H18.6788C19.1499 44.3784 19.6334 44.6352 20.1293 44.8768L20.65 45.1147C20.9971 45.2733 21.3443 45.4319 21.7038 45.5791L22.3361 45.8283L23.3403 46.1908L24.0222 46.4061L25.0264 46.6892L25.7207 46.8591L26.7745 47.0857L27.4439 47.2103L28.6093 47.3689L29.1796 47.4368C29.7623 47.4935 30.3574 47.5388 30.9401 47.5615H31.3616V47.6634L28.4977 59.1041ZM42.8047 55.9664L41.7757 51.8885C41.739 51.7435 41.6715 51.6065 41.5769 51.4853C41.4823 51.3641 41.3625 51.2611 41.2244 51.1822C41.0862 51.1034 40.9324 51.0501 40.7718 51.0255C40.6111 51.0009 40.4467 51.0055 40.2879 51.039C40.1292 51.0724 39.9792 51.1342 39.8466 51.2206C39.714 51.307 39.6013 51.4165 39.5149 51.5427C39.4286 51.6689 39.3703 51.8094 39.3434 51.9562C39.3165 52.103 39.3215 52.2532 39.3581 52.3983L40.3871 56.4762L35.428 59.1041L33.2337 50.28L33.9031 47.6181H34.4734L35.0809 47.5615L36.3207 47.3915L36.7918 47.3236C37.3621 47.2216 37.92 47.1084 38.4655 46.9724L38.7382 46.8931C39.2011 46.7723 39.6557 46.6439 40.102 46.508L40.6227 46.3268L41.7261 45.9303L42.2716 45.7151L43.3626 45.228L43.8337 45.0014C44.3172 44.7636 44.8007 44.503 45.2718 44.2312L48.3588 56.4762L42.8047 55.9664Z"
    fill="#2E79CA"/>
  <path
    d="M55.2886 29.288C54.9714 29.212 54.6341 29.254 54.3506 29.4047C54.0671 29.5554 53.8605 29.8027 53.7761 30.0923C53.4723 31.1385 53.0784 32.1611 52.5983 33.1507C52.5324 33.2868 52.4965 33.4334 52.4925 33.5823C52.4886 33.7311 52.5168 33.8791 52.5756 34.018C52.6343 34.1568 52.7223 34.2837 52.8347 34.3915C52.9471 34.4992 53.0817 34.5857 53.2306 34.6459C53.3796 34.7062 53.5401 34.739 53.703 34.7426C53.8658 34.7462 54.0279 34.7204 54.1798 34.6667C54.3318 34.6131 54.4707 34.5326 54.5886 34.4299C54.7066 34.3272 54.8012 34.2043 54.8671 34.0682C55.3988 32.9687 55.8341 31.8324 56.1689 30.67C56.2521 30.3801 56.2062 30.0719 56.0412 29.8129C55.8762 29.5539 55.6056 29.3651 55.2886 29.288V29.288Z"
    fill="#2E79CA"/>
  <path
    d="M31.9941 2C28.5436 2.00293 25.131 2.65633 21.9695 3.91933C18.8081 5.18233 15.9659 7.02776 13.6207 9.34019C13.3971 9.561 13.2787 9.85392 13.2915 10.1545C13.3043 10.4551 13.4472 10.7387 13.6889 10.943C13.9306 11.1473 14.2512 11.2555 14.5801 11.2438C14.9091 11.2322 15.2196 11.1015 15.4432 10.8807C18.5177 7.83819 22.5252 5.71377 26.9421 4.78506C31.3589 3.85635 35.9797 4.16656 40.2005 5.67514C44.4213 7.18371 48.046 9.8205 50.6008 13.241C53.1556 16.6614 54.5217 20.7064 54.5207 24.8475C54.5207 25.4705 54.5207 26.1048 54.4215 26.7278C54.394 27.0267 54.4973 27.3233 54.7088 27.5526C54.9203 27.7819 55.2227 27.9253 55.5497 27.9512H55.6613C55.9716 27.9524 56.2712 27.8471 56.5007 27.6563C56.7303 27.4654 56.8731 27.2028 56.901 26.9204C56.963 26.2294 57.0002 25.5271 57.0002 24.8362C56.9904 18.7804 54.3522 12.9755 49.6645 8.69449C44.9767 4.4135 38.622 2.00599 31.9941 2V2Z"
    fill="#2E79CA"/>
</svg>
