<svg width="64" height="64" viewBox="0 0 64 64" fill="none" xmlns="http://www.w3.org/2000/svg">
  <path
    d="M47.4109 24.2884C51.9246 25.8559 56.9371 24.7206 60.3372 21.3199C63.9453 17.7134 64.994 12.3422 63.0077 7.6369L62.4804 6.38701L54.9742 13.8922C53.6305 15.234 51.4463 15.234 50.1041 13.8922C49.4535 13.2424 49.0956 12.378 49.0956 11.4588C49.0956 10.5397 49.4535 9.67526 50.1041 9.02476L57.6111 1.51815L56.3609 0.99104C51.6544 -0.993299 46.282 0.0550861 42.676 3.66238C39.2745 7.06306 38.1411 12.0765 39.7082 16.5861L38.147 18.147L26.4286 6.43227L26.2387 6.24173L16.6008 4.16686L18.9099 13.5877L30.8072 25.4835L28.8684 27.4211L11.676 10.233L0 21.9054L17.1931 39.0936L2.35361 53.9308L10.057 61.6331L24.8972 46.7958L42.1057 64L53.7802 52.3269L36.5725 35.1234L38.5106 33.1851L55.719 50.3892L63.0581 43.0527L45.8497 25.8486L47.4109 24.2884ZM41.8398 17.0351L41.6142 16.4752C40.0157 12.5028 40.9387 7.9793 43.9663 4.95242C46.7136 2.20588 50.6606 1.19619 54.333 2.21464L48.813 7.73326C47.8177 8.72835 47.27 10.0512 47.27 11.4581C47.27 12.8649 47.8177 14.1878 48.813 15.1829C50.8672 17.2366 54.2096 17.2374 56.2645 15.1829L61.7845 9.66358C62.8032 13.3358 61.794 17.2819 59.0461 20.0292C56.0184 23.056 51.496 23.9803 47.5212 22.3807L46.9611 22.1559L44.5586 24.5578L39.4366 19.4371L41.8398 17.0351ZM23.9523 7.61718L20.236 11.3325L19.0676 6.56588L23.9523 7.61718ZM10.0563 59.0516L4.93432 53.9301L18.4834 40.3843L23.6062 45.5058L10.0563 59.0516ZM42.1057 61.4192L39.4658 58.78L44.8171 53.4285L43.526 52.1385L38.1747 57.4899L37.0494 56.3649L40.2282 53.1869L38.9371 51.8961L35.7583 55.0741L34.6344 53.9505L39.9857 48.5998L38.6946 47.3091L33.3434 52.6598L32.2188 51.5362L35.3968 48.3582L34.1057 47.0674L30.9277 50.2454L29.8031 49.1211L35.1551 43.7704L33.864 42.4796L28.512 47.8303L27.3881 46.7068L30.5662 43.5287L29.2751 42.238L26.0971 45.416L24.9717 44.2917L30.3245 38.941L29.0334 37.6502L23.6806 43.0009L22.5568 41.8773L25.7356 38.6993L24.4445 37.4085L21.2657 40.5866L20.1411 39.4622L25.4931 34.1123L24.202 32.8215L18.85 38.1715L17.7254 37.0472L20.9042 33.8692L19.6131 32.5784L16.4343 35.7564L15.3105 34.6328L20.6625 29.2821L19.3714 27.9913L14.0194 33.342L12.8992 32.2199L16.078 29.0426L14.7869 27.7519L11.6081 30.9291L10.4842 29.8056L15.8355 24.4549L14.5444 23.1641L9.19315 28.5148L8.06857 27.3905L11.2474 24.2132L9.95627 22.9224L6.77748 26.0997L5.65362 24.9761L11.0056 19.6254L9.71528 18.3361L4.36326 23.6868L2.58144 21.9054L11.6753 12.8138L51.1988 52.3276L42.1057 61.4192ZM35.2814 33.8326L30.1587 28.7112L32.0975 26.7736L37.2195 31.8943L35.2814 33.8326ZM58.7437 44.7852L31.3074 17.3549L30.0163 18.6457L57.4527 46.076L55.719 47.8084L21.0262 13.1234L22.7598 11.3902L28.152 16.7811L29.4431 15.4903L24.0509 10.0994L25.7838 8.36697L60.4781 43.052L58.7437 44.7852Z"
    fill="#2E79CA"/>
</svg>
